<svg xmlns="http://www.w3.org/2000/svg">
<defs>
<font id="GTPressuraMono-Bold" horiz-adv-x="550" >
  <font-face 
    font-family="GT Pressura Mono Bold"
    font-weight="700"
    font-stretch="normal"
    units-per-em="1000"
    panose-1="2 0 8 6 0 0 0 2 0 4"
    ascent="800"
    descent="-200"
    x-height="500"
    cap-height="700"
    bbox="-268 -305 634 1080"
    underline-thickness="50"
    underline-position="-200"
    unicode-range="U+0020-FB02"
  />
<missing-glyph 
d="M184 120q-12 0 -18.5 -9t-9.5 -19.5t-12.5 -19.5t-27.5 -9q-21 0 -36.5 13.5t-15.5 31.5q0 22 21 44t21 53q0 17 -8 27.5t-20 10.5q-8 0 -15.5 -3.5t-14.5 -3.5q-14 0 -22 15.5t-8 36.5q0 14 9.5 26.5t23.5 12.5q7 0 14.5 -5.5t12.5 -5.5q13 0 20 13.5t7 26.5
q0 8 -5 24.5t-5 24.5q0 37 40 37q9 0 9 8q0 3 -4 11t-4 13t5.5 9.5t10.5 4.5q11 0 22 -17.5t20 -17.5q11 0 15 8.5t4.5 19t7.5 19t22 8.5q21 0 37 -24t35 -24q20 0 27.5 11t7.5 37q0 27 14.5 40t38.5 13q22 0 34.5 -13t12.5 -35q0 -18 -12 -31t-24 -21t-12 -17q0 -12 12 -22
t27 -16t27 -21t12 -37q0 -20 -16 -38t-16 -34q0 -26 44 -26q40 0 40 -45q0 -22 -15 -37t-37 -15q-15 0 -35 25t-37 25q-25 0 -25 -21q0 -10 10 -21t10 -28q0 -14 -9 -23.5t-26 -9.5q-10 0 -35 15t-45 15q-26 0 -26 -31q0 -27 -24 -27q-8 0 -13 7.5t-7 16.5t-10.5 16.5
t-23.5 7.5zM298 340q0 -16 12 -28t28 -12q17 0 30 12t13 28q0 17 -13.5 32t-29.5 15t-28 -15t-12 -32zM281 226q-26 0 -48 20q-5 5 -7 0q-1 -3 2 -7q18 -29 53 -29q30 0 44 34q2 4 -1 6t-5 -2q-12 -22 -38 -22zM214 335q0 21 14 21t14 -21t-14 -21t-14 21zM310 340
q0 21 14 21t14 -21t-14 -21t-14 21zM178 340q0 -21 10 -35.5t26 -14.5q17 0 28.5 14.5t11.5 35.5t-11.5 35.5t-28.5 14.5q-16 0 -26 -14.5t-10 -35.5zM85 520q0 14 8.5 24t20.5 10q10 0 17 -10t7 -24t-7 -24t-17 -10q-12 0 -20.5 10t-8.5 24z" />
    <glyph glyph-name="IJ" unicode="IJ" 
d="M284 0h-239q-8 0 -14 6t-6 14v95q0 8 6 14t14 6h40q10 0 10 10v410q0 10 -10 10h-30q-8 0 -14 6t-6 14v95q0 8 6 14t14 6h220q8 0 14 -6t6 -14v-95q0 -8 -6 -14t-14 -6h-30q-10 0 -10 -10v-410q0 -10 10 -10h39q41 0 65.5 24.5t24.5 66.5v454q0 8 6 14t14 6h101
q8 0 14 -6t6 -14v-458q0 -94 -64 -158t-167 -64z" />
    <glyph glyph-name="ij" unicode="ij" 
d="M291 -210h-42q-8 0 -14 6t-6 14v90q0 8 6 14t14 6h42q26 0 43 13t17 37v401q0 10 -10 10h-90v-365q0 -16 -16 -16h-98q-16 0 -16 16v347q0 10 -10 10h-60q-8 0 -14 6t-6 14v87q0 8 6 14t14 6h414q7 0 11.5 -5t4.5 -11v-516q0 -77 -55.5 -127.5t-134.5 -50.5zM487 694
v-108q0 -16 -16 -16h-108q-16 0 -16 16v108q0 6 4.5 11t11.5 5h108q7 0 11.5 -5t4.5 -11zM257 694v-108q0 -16 -16 -16h-108q-16 0 -16 16v108q0 6 4.5 11t11.5 5h108q7 0 11.5 -5t4.5 -11z" />
    <glyph glyph-name="napostrophe" unicode="&#x22;n" 
d="M185 476q-10 0 -22 12q-10 12 -23 12h-50q-8 0 -14 -6t-6 -14v-460q0 -8 6 -14t14 -6h90q8 0 14 6t6 14v310q0 23 20.5 39t54.5 16q35 0 55 -16.5t20 -42.5v-306q0 -8 6 -14t14 -6h90q8 0 14 6t6 14v305q0 79 -53 132.5t-132 53.5q-34 0 -66.5 -17.5t-43.5 -17.5zM-7 560
h-24q-8 0 -14 6t-6 14v100q0 8 6 14t14 6h100q8 0 14 -6t6 -14v-97q0 -36 -22 -69l-34 -54q-13 -20 -34 -20h-10q-15 0 -21.5 12t0.5 26l34 69q3 5 -0.5 9t-8.5 4z" />
    <glyph glyph-name="f_f" unicode="ff" 
d="M500 590q-33 0 -51.5 -19t-18.5 -46v-18q0 -10 10 -10h60q8 0 14 -6t6 -14v-80q0 -8 -6 -14t-14 -6h-60q-10 0 -10 -10v-347q0 -8 -6 -14t-14 -6h-80q-8 0 -14 6t-6 14v347q0 10 -10 10h-78q-10 0 -10 -10v-347q0 -8 -6 -14t-14 -6h-80q-8 0 -14 6t-6 14v347q0 10 -10 10
h-30q-8 0 -14 6t-6 14v80q0 8 6 14t14 6h30q10 0 10 10v20q0 77 55.5 130t134.5 53q8 0 14 -6t6 -14v-80q0 -8 -6 -14t-14 -6q-34 0 -52 -19t-18 -46v-18q0 -10 7 -10h83q8 0 8 10v20q0 77 55.5 130t134.5 53q8 0 14 -6t6 -14v-80q0 -8 -6 -14t-14 -6z" />
    <glyph glyph-name="fi" unicode="fi" 
d="M371 20v347q0 10 -8 10h-112q-10 0 -10 -10v-347q0 -8 -6 -14t-14 -6h-90q-8 0 -14 6t-6 14v347q0 10 -10 10h-50q-8 0 -14 6t-6 14v80q0 8 6 14t14 6h50q10 0 10 10v20q0 77 55.5 130t134.5 53h186q8 0 14 -6t6 -14v-90q0 -8 -6 -14t-14 -6h-186q-25 0 -42.5 -15.5
t-17.5 -39.5v-18q0 -10 10 -10h234q7 0 11.5 -5t4.5 -11v-461q0 -8 -6 -14t-14 -6h-90q-8 0 -14 6t-6 14z" />
    <glyph glyph-name="fl" unicode="fl" 
d="M350 377h-120q-10 0 -10 -10v-347q0 -8 -6 -14t-14 -6h-90q-8 0 -14 6t-6 14v347q0 10 -10 10h-40q-8 0 -14 6t-6 14v80q0 8 6 14t14 6h40q10 0 10 10v20q0 77 55.5 130t134.5 53q8 0 14 -6t6 -14v-90q0 -8 -6 -14t-14 -6q-25 0 -42.5 -15.5t-17.5 -39.5v-18
q0 -10 10 -10h120q10 0 10 10v179q0 8 6 14t14 6h80q8 0 14 -6t6 -14v-666q0 -8 -6 -14t-14 -6h-80q-8 0 -14 6t-6 14v347q0 10 -10 10z" />
    <glyph glyph-name=".notdef" 
d="M184 120q-12 0 -18.5 -9t-9.5 -19.5t-12.5 -19.5t-27.5 -9q-21 0 -36.5 13.5t-15.5 31.5q0 22 21 44t21 53q0 17 -8 27.5t-20 10.5q-8 0 -15.5 -3.5t-14.5 -3.5q-14 0 -22 15.5t-8 36.5q0 14 9.5 26.5t23.5 12.5q7 0 14.5 -5.5t12.5 -5.5q13 0 20 13.5t7 26.5
q0 8 -5 24.5t-5 24.5q0 37 40 37q9 0 9 8q0 3 -4 11t-4 13t5.5 9.5t10.5 4.5q11 0 22 -17.5t20 -17.5q11 0 15 8.5t4.5 19t7.5 19t22 8.5q21 0 37 -24t35 -24q20 0 27.5 11t7.5 37q0 27 14.5 40t38.5 13q22 0 34.5 -13t12.5 -35q0 -18 -12 -31t-24 -21t-12 -17q0 -12 12 -22
t27 -16t27 -21t12 -37q0 -20 -16 -38t-16 -34q0 -26 44 -26q40 0 40 -45q0 -22 -15 -37t-37 -15q-15 0 -35 25t-37 25q-25 0 -25 -21q0 -10 10 -21t10 -28q0 -14 -9 -23.5t-26 -9.5q-10 0 -35 15t-45 15q-26 0 -26 -31q0 -27 -24 -27q-8 0 -13 7.5t-7 16.5t-10.5 16.5
t-23.5 7.5zM298 340q0 -16 12 -28t28 -12q17 0 30 12t13 28q0 17 -13.5 32t-29.5 15t-28 -15t-12 -32zM281 226q-26 0 -48 20q-5 5 -7 0q-1 -3 2 -7q18 -29 53 -29q30 0 44 34q2 4 -1 6t-5 -2q-12 -22 -38 -22zM214 335q0 21 14 21t14 -21t-14 -21t-14 21zM310 340
q0 21 14 21t14 -21t-14 -21t-14 21zM178 340q0 -21 10 -35.5t26 -14.5q17 0 28.5 14.5t11.5 35.5t-11.5 35.5t-28.5 14.5q-16 0 -26 -14.5t-10 -35.5zM85 520q0 14 8.5 24t20.5 10q10 0 17 -10t7 -24t-7 -24t-17 -10q-12 0 -20.5 10t-8.5 24z" />
    <glyph glyph-name=".null" horiz-adv-x="0" 
 />
    <glyph glyph-name="nonmarkingreturn" horiz-adv-x="333" 
 />
    <glyph glyph-name="space" unicode=" " 
 />
    <glyph glyph-name="exclam" unicode="!" 
d="M346 684v-451q0 -6 -4.5 -11t-11.5 -5h-108q-7 0 -11.5 5t-4.5 11v451q0 6 4.5 11t11.5 5h108q7 0 11.5 -5t4.5 -11zM355 140v-120q0 -8 -6 -14t-14 -6h-120q-8 0 -14 6t-6 14v120q0 8 6 14t14 6h120q8 0 14 -6t6 -14z" />
    <glyph glyph-name="quotedbl" unicode="&#x22;" 
d="M351 540h-24q-8 0 -14 6t-6 14v120q0 8 6 14t14 6h120q8 0 14 -6t6 -14v-117q0 -40 -22 -69l-64 -84q-13 -20 -34 -20h-20q-15 0 -22 12t1 26l54 99q3 5 -0.5 9t-8.5 4zM131 540h-24q-8 0 -14 6t-6 14v120q0 8 6 14t14 6h120q8 0 14 -6t6 -14v-117q0 -40 -22 -69l-64 -84
q-13 -20 -34 -20h-20q-15 0 -22 12t1 26l54 99q3 5 -0.5 9t-8.5 4z" />
    <glyph glyph-name="numbersign" unicode="#" 
d="M315 267l27 153q2 10 -8 10h-86q-10 0 -12 -10l-27 -153q-2 -10 8 -10h86q10 0 12 10zM102 267l27 153q2 10 -8 10h-50q-8 0 -13 6t-4 14l11 66q4 20 24 20h50q10 0 12 10l24 134q4 20 23 20h67q8 0 13 -6t4 -14l-24 -134q-2 -10 8 -10h86q10 0 12 10l24 134q4 20 23 20
h67q8 0 13 -6t4 -14l-24 -134q-2 -10 8 -10h50q8 0 13 -6t3 -14l-11 -66q-4 -20 -23 -20h-50q-10 0 -12 -10l-27 -153q-2 -10 8 -10h50q8 0 13 -6t3 -14l-11 -69q-4 -20 -23 -20h-50q-10 0 -12 -10l-22 -118q-4 -20 -23 -20h-67q-8 0 -13 6t-4 14l22 118q2 10 -8 10h-86
q-10 0 -12 -10l-22 -118q-4 -20 -23 -20h-67q-8 0 -13 6t-4 14l22 118q2 10 -8 10h-50q-8 0 -13 6t-4 14l11 69q4 20 24 20h50q10 0 12 10z" />
    <glyph glyph-name="dollar" unicode="$" 
d="M194 699q16 5 16 15v36q0 8 6 14t14 6h85q8 0 14 -6t6 -14v-34q0 -11 15 -16q68 -21 110 -75.5t42 -124.5v-15q0 -8 -6 -14t-14 -6h-101q-8 0 -14 6t-6 14v15q0 31 -24 53t-65 22q-40 0 -63.5 -21.5t-23.5 -53.5q0 -50 89 -67q115 -23 178.5 -75t63.5 -150
q0 -79 -45.5 -134t-120.5 -75q-15 -4 -15 -15v-34q0 -8 -6 -14t-14 -6h-85q-8 0 -14 6t-6 14v35q0 10 -16 15q-72 22 -116 78.5t-44 129.5v30q0 8 6 14t14 6h101q8 0 14 -6t6 -14v-30q0 -36 26 -59t71 -23q46 0 72.5 23t26.5 59q0 32 -23.5 49.5t-80.5 30.5
q-105 23 -164.5 72.5t-59.5 139.5q0 70 41.5 124t109.5 75z" />
    <glyph glyph-name="percent" unicode="%" 
d="M478 672l-326 -657q-8 -15 -21 -15h-47q-10 0 -15.5 9t-0.5 19l324 657q8 15 22 15h48q10 0 15.5 -9t0.5 -19zM127 550q0 -59 29 -59t29 59t-29 59t-29 -59zM49 550q0 140 107 140t107 -140t-107 -140t-107 140zM361 150q0 -59 29 -59t29 59t-29 59t-29 -59zM283 150
q0 140 107 140t107 -140t-107 -140t-107 140z" />
    <glyph glyph-name="ampersand" unicode="&#x26;" 
d="M254 109q22 0 45 15q3 4 1 6l-118 140q-3 3 -6 0q-27 -25 -27 -64q0 -37 33.5 -67t71.5 -30zM378 237q6 10 6 83q0 8 6 14t14 6h68q8 0 14 -6t6 -14q0 -136 -26 -180q-4 -6 1 -12l77 -91q9 -10 3.5 -23.5t-21.5 -13.5h-79q-12 0 -22 10l-22 23q-8 8 -19 0
q-55 -44 -142 -44q-93 0 -161.5 63t-68.5 154q0 42 21 83t55 67q11 8 1 22q-46 56 -46 129q0 82 59.5 137.5t144.5 55.5q77 0 133 -53.5t56 -130.5q0 -18 -7.5 -24t-22.5 -6h-74q-28 0 -31 29q-2 24 -17.5 39t-40.5 15q-31 0 -49 -16.5t-18 -45.5q0 -44 44 -95l149 -177
q5 -5 9 2z" />
    <glyph glyph-name="quotesingle" unicode="'" 
d="M241 540h-24q-8 0 -14 6t-6 14v120q0 8 6 14t14 6h120q8 0 14 -6t6 -14v-117q0 -40 -22 -69l-64 -84q-13 -20 -34 -20h-20q-15 0 -22 12t1 26l54 99q3 5 -0.5 9t-8.5 4z" />
    <glyph glyph-name="parenleft" unicode="(" 
d="M380 38h62q8 0 14 -6t6 -14v-88q0 -8 -6 -14t-14 -6h-62q-90 0 -151.5 57t-73.5 153q-7 61 -7 195.5t7 194.5q10 87 70.5 148.5t154.5 61.5h62q8 0 14 -6t6 -14v-88q0 -8 -6 -14t-14 -6h-62q-79 0 -95 -82q-12 -62 -11.5 -195t11.5 -195q15 -82 95 -82z" />
    <glyph glyph-name="parenright" unicode=")" 
d="M107 38h62q80 0 95 82q11 62 11.5 195t-11.5 195q-16 82 -95 82h-62q-8 0 -14 6t-6 14v88q0 8 6 14t14 6h62q94 0 154.5 -61.5t70.5 -148.5q8 -60 8 -194.5t-8 -195.5q-12 -96 -73.5 -153t-151.5 -57h-62q-8 0 -14 6t-6 14v88q0 8 6 14t14 6z" />
    <glyph glyph-name="asterisk" unicode="*" 
d="M351 473l-25 17l3 -30q1 -12 -8 -21t-22 -9h-49q-13 0 -22 8.5t-8 21.5l2 30l-25 -17q-10 -7 -22 -3.5t-19 14.5l-23 42q-7 11 -4 23t15 18l27 13l-28 13q-11 5 -14 17.5t3 23.5l25 42q6 11 18 14.5t23 -3.5l24 -17l-2 30q-1 13 8 21.5t22 8.5h49q13 0 22 -9t8 -21
l-3 -30l26 17q10 7 22 3.5t19 -14.5l23 -42q7 -11 4 -23t-15 -18l-27 -13l28 -13q11 -5 14 -17.5t-3 -23.5l-25 -42q-6 -11 -18 -14.5t-23 3.5z" />
    <glyph glyph-name="plus" unicode="+" 
d="M75 315h125q10 0 10 10v125q0 8 6 14t14 6h89q8 0 14 -6t6 -14v-125q0 -10 10 -10h126q8 0 14 -6t6 -14v-89q0 -8 -6 -14t-14 -6h-126q-10 0 -10 -10v-126q0 -8 -6 -14t-14 -6h-89q-8 0 -14 6t-6 14v126q0 10 -10 10h-125q-8 0 -14 6t-6 14v89q0 8 6 14t14 6z" />
    <glyph glyph-name="comma" unicode="," 
d="M241 0h-24q-8 0 -14 6t-6 14v120q0 8 6 14t14 6h120q8 0 14 -6t6 -14v-117q0 -36 -22 -69l-64 -84q-13 -20 -34 -20h-20q-15 0 -22 12t1 26l54 99q3 5 -0.5 9t-8.5 4z" />
    <glyph glyph-name="hyphen" unicode="-" 
d="M138 337h273q8 0 14 -6t6 -14v-99q0 -8 -6 -14t-14 -6h-273q-8 0 -14 6t-6 14v99q0 8 6 14t14 6z" />
    <glyph glyph-name="period" unicode="." 
d="M355 140v-120q0 -8 -6 -14t-14 -6h-120q-8 0 -14 6t-6 14v120q0 8 6 14t14 6h120q8 0 14 -6t6 -14z" />
    <glyph glyph-name="slash" unicode="/" 
d="M471 682l-264 -679q-5 -15 -21 -15h-92q-10 0 -15 8.5t-1 19.5l266 679q5 15 19 15h92q10 0 15 -8.5t1 -19.5z" />
    <glyph glyph-name="zero" unicode="0" 
d="M52 490q11 93 72 157t151 64t151 -64t72 -157q17 -140 0 -280q-11 -93 -72 -157t-151 -64t-151 64t-72 157q-17 140 0 280zM275 575q-34 0 -57 -23t-27 -58q-17 -144 0 -288q4 -35 27 -58t57 -23t57 23t27 58q17 144 0 288q-4 35 -27 58t-57 23z" />
    <glyph glyph-name="one" unicode="1" 
d="M229 145v355q0 9 -7.5 11t-11.5 -3l-121 -113q-9 -9 -21.5 -4t-12.5 20v96q0 27 16 44l116 125q22 24 50 24h111q8 0 14 -6t6 -14v-535q0 -10 10 -10h111q8 0 14 -6t6 -14v-95q0 -8 -6 -14t-14 -6h-410q-8 0 -14 6t-6 14v95q0 8 6 14t14 6h140q10 0 10 10z" />
    <glyph glyph-name="two" unicode="2" 
d="M355 503q0 31 -19.5 52t-52.5 21q-37 0 -59.5 -20t-22.5 -53v-17q0 -8 -6 -14t-14 -6h-95q-8 0 -14 6t-6 14v16q0 87 62.5 148t150.5 61q89 0 150 -60.5t61 -148.5q0 -81 -62 -148l-188 -199q-6 -5 -4 -12.5t14 -7.5h221q8 0 14 -6t6 -14v-95q0 -8 -6 -14t-14 -6h-392
q-8 0 -14 6t-6 14v118q0 16 9 25l259 275q9 10 18.5 30t9.5 35z" />
    <glyph glyph-name="three" unicode="3" 
d="M363 208q0 39 -24 61t-63 22h-12q-8 0 -14 6t-6 14v94q0 8 6 14t14 6h12q35 0 56.5 21t21.5 55t-21.5 54t-56.5 20q-34 0 -56 -20.5t-22 -53.5v-15q0 -8 -6 -14t-14 -6h-96q-8 0 -14 6t-6 14v15q0 87 63 148.5t151 61.5q89 0 151 -61t62 -149q0 -73 -53 -131
q-10 -10 0 -18q29 -24 46 -63t17 -81q0 -92 -65 -155.5t-158 -63.5t-158 63.5t-65 155.5v10q0 8 6 14t14 6h96q8 0 14 -6t6 -14v-10q0 -39 23.5 -61t63.5 -22q39 0 63 22t24 61z" />
    <glyph glyph-name="four" unicode="4" 
d="M449 251h37q8 0 14 -6t6 -14v-86q0 -8 -6 -14t-14 -6h-37q-10 0 -10 -10v-95q0 -8 -6 -14t-14 -6h-90q-8 0 -14 6t-6 14v95q0 10 -10 10h-235q-8 0 -14 6t-6 14v104q0 12 16 38l231 399q8 14 21 14h107q8 0 14 -6t6 -14v-419q0 -10 10 -10zM298 476l-115 -213
q-7 -12 6 -12h110q10 0 10 10v212q0 5 -4.5 6t-6.5 -3z" />
    <glyph glyph-name="five" unicode="5" 
d="M448 564h-238q-10 0 -10 -10v-93q0 -9 6 -11.5t13 2.5q25 17 62 17q97 0 156.5 -66t59.5 -171q0 -98 -59.5 -170.5t-163.5 -72.5q-94 0 -157.5 51.5t-63.5 147.5q0 20 20 20h94q8 0 14 -6t6 -14q0 -31 25.5 -47t61.5 -16q46 0 67 30t21 77t-22 79t-66 32q-43 0 -66 -32
q-8 -11 -24 -11h-97q-8 0 -14 6t-6 14v360q0 8 6 14t14 6h361q8 0 14 -6t6 -14v-96q0 -8 -6 -14t-14 -6z" />
    <glyph glyph-name="six" unicode="6" 
d="M280 335q-38 0 -62 -25t-27 -65q-1 -20 0 -39q3 -39 26.5 -62.5t62.5 -23.5t62.5 23.5t26.5 62.5q1 19 0 39q-3 40 -27 65t-62 25zM492 516q0 -8 -6 -14t-14 -6h-85q-23 0 -28 20q-16 64 -84 64q-45 0 -68 -31.5t-23 -85.5q0 -10 7.5 -14t15.5 1q30 16 73 16
q92 0 157.5 -65.5t65.5 -157.5v-35q0 -92 -65 -155.5t-158 -63.5q-90 0 -151 62t-72 155q-17 144 0 288q11 92 71 154.5t147 62.5q86 0 151.5 -55t65.5 -140z" />
    <glyph glyph-name="seven" unicode="7" 
d="M110 24l235 531q4 10 -7 10h-255q-8 0 -14 6t-6 14v95q0 8 6 14t14 6h384q8 0 14 -6t6 -14v-120q0 -9 -5 -20l-228 -525q-7 -15 -19 -15h-107q-12 0 -16.5 8t-1.5 16z" />
    <glyph glyph-name="eight" unicode="8" 
d="M275 122q43 0 69.5 24t26.5 62q0 39 -26.5 64.5t-69.5 25.5t-69.5 -25.5t-26.5 -64.5q0 -38 26.5 -62t69.5 -24zM275 420q37 0 61.5 23.5t24.5 57.5q0 33 -24.5 55t-61.5 22t-61.5 -22t-24.5 -55q0 -34 24.5 -57.5t61.5 -23.5zM275 711q92 0 155 -61t63 -149
q0 -76 -44 -129q-10 -12 0 -22q54 -54 54 -142q0 -92 -66 -155.5t-162 -63.5t-162 63.5t-66 155.5q0 79 53 142q9 10 -1 22q-43 55 -43 129q0 88 63.5 149t155.5 61z" />
    <glyph glyph-name="nine" unicode="9" 
d="M271 366q34 0 56 23.5t26 59.5q3 27 0 55q-3 35 -25.5 57t-56.5 22t-56.5 -22t-25.5 -57q-3 -28 0 -55q4 -36 26 -59.5t56 -23.5zM49 186q0 8 6 14t14 6h81q23 0 28 -20q15 -66 88 -66q105 0 105 120q0 10 -8 13.5t-16 -0.5q-42 -15 -82 -15q-87 0 -147.5 62t-65.5 152
q-1 23 0 49q5 89 65.5 149.5t148.5 60.5q92 0 153.5 -62t72.5 -155q17 -144 0 -288q-11 -93 -72 -155t-151 -62q-94 0 -157 56.5t-63 140.5z" />
    <glyph glyph-name="colon" unicode=":" 
d="M356 140v-120q0 -8 -6 -14t-14 -6h-120q-8 0 -14 6t-6 14v120q0 8 6 14t14 6h120q8 0 14 -6t6 -14zM356 480v-120q0 -8 -6 -14t-14 -6h-120q-8 0 -14 6t-6 14v120q0 8 6 14t14 6h120q8 0 14 -6t6 -14z" />
    <glyph glyph-name="semicolon" unicode=";" 
d="M357 480v-120q0 -8 -6 -14t-14 -6h-120q-8 0 -14 6t-6 14v120q0 8 6 14t14 6h120q8 0 14 -6t6 -14zM241 0h-24q-8 0 -14 6t-6 14v120q0 8 6 14t14 6h120q8 0 14 -6t6 -14v-117q0 -40 -22 -69l-64 -84q-13 -20 -34 -20h-20q-15 0 -22 12t1 26l54 99q3 5 -0.5 9t-8.5 4z
" />
    <glyph glyph-name="less" unicode="&#x3c;" 
d="M258 246l202 -101q15 -7 15 -21v-105q0 -11 -8 -17t-15 -2l-362 204q-15 8 -15 32v29q0 24 15 32l362 203q7 4 15 -2t8 -17v-105q0 -12 -15 -21l-202 -101q-8 -4 0 -8z" />
    <glyph glyph-name="equal" unicode="=" 
d="M475 286h-400q-8 0 -14 6t-6 14v87q0 8 6 14t14 6h400q8 0 14 -6t6 -14v-87q0 -8 -6 -14t-14 -6zM475 87h-400q-8 0 -14 6t-6 14v87q0 8 6 14t14 6h400q8 0 14 -6t6 -14v-87q0 -8 -6 -14t-14 -6z" />
    <glyph glyph-name="greater" unicode="&#x3e;" 
d="M90 145l202 101q8 4 0 8l-202 101q-15 7 -15 21v105q0 11 8 17t15 2l362 -203q15 -8 15 -32v-29q0 -24 -15 -32l-362 -204q-7 -4 -15 2t-8 17v105q0 14 15 21z" />
    <glyph glyph-name="question" unicode="?" 
d="M343 506q0 32 -20 51t-51 19q-32 0 -52 -21.5t-20 -51.5v-17q0 -8 -6 -14t-14 -6h-100q-8 0 -14 6t-6 14v15q0 88 62.5 151t149.5 63q89 0 150 -57t61 -145q0 -103 -97 -174q-28 -21 -37 -39t-9 -53v-10q0 -8 -6 -14t-14 -6h-100q-8 0 -14 6t-6 14v10v16v21t1.5 20
t4.5 23.5t8.5 21t13.5 22.5q13 16 42 37.5t35 27.5q38 36 38 70zM350 140v-120q0 -8 -6 -14t-14 -6h-120q-8 0 -14 6t-6 14v120q0 8 6 14t14 6h120q8 0 14 -6t6 -14z" />
    <glyph glyph-name="at" unicode="@" 
d="M279 40q61 0 106 21q10 4 17 -0.5t7 -14.5v-46q0 -3 -0.5 -6t-2.5 -5.5t-2.5 -4t-4 -3.5t-4.5 -3t-5 -4l-5 -2q-39 -22 -106 -22q-110 0 -184.5 64t-74.5 184v144q0 105 76 176.5t185 71.5q103 0 175.5 -58.5t72.5 -169.5v-142q0 -54 -24 -87t-70 -33q-20 0 -40 10
t-26 10q-7 0 -38 -12q-25 -10 -51 -10q-127 0 -127 166q0 37 4 64.5t16 56.5t38.5 45t67.5 16q55 0 90 -32.5t35 -81.5v-110q0 -22 19 -22q21 0 21 22v140q0 67 -48.5 102.5t-116.5 35.5q-77 0 -122.5 -42.5t-45.5 -115.5v-144q0 -80 52 -119t116 -39zM321 218v108
q0 32 -42 32q-13 0 -22 -5t-13.5 -11t-6.5 -20.5t-2.5 -24.5t-0.5 -32v-17.5t1 -16.5t4 -18t7.5 -13t13 -11t19.5 -3q42 0 42 32z" />
    <glyph glyph-name="A" unicode="A" 
d="M182 118l-28 -103q-3 -15 -19 -15h-105q-11 0 -16.5 6t-3.5 14l179 665q3 15 19 15h134q16 0 19 -15l178 -665q2 -8 -3.5 -14t-16.5 -6h-105q-14 0 -19 15l-31 103q-4 15 -15 15h-152q-12 0 -15 -15zM268 524l-48 -240q-3 -11 8 -11h92q11 0 8 11l-48 240q-1 4 -5 4h-2
q-4 0 -5 -4z" />
    <glyph glyph-name="B" unicode="B" 
d="M446 370q-10 -10 0 -18q25 -21 42 -59.5t17 -76.5q0 -98 -56.5 -157t-148.5 -59h-236q-8 0 -14 6t-6 14v660q0 8 6 14t14 6h236q84 0 140.5 -59.5t56.5 -144.5q0 -33 -14.5 -68.5t-36.5 -57.5zM295 560h-104q-10 0 -10 -10v-109q0 -10 10 -10h104q26 0 46 19.5t20 45.5
t-20 45t-46 19zM191 140h104q31 0 50.5 22.5t19.5 53.5q0 30 -19.5 52.5t-50.5 22.5h-104q-10 0 -10 -10v-131q0 -10 10 -10z" />
    <glyph glyph-name="C" unicode="C" 
d="M279 130q42 0 68.5 24t29.5 64q2 20 20 20h100q8 0 14 -6t6 -14q0 -100 -67 -164.5t-171 -64.5q-100 0 -163.5 63.5t-74.5 157.5q-17 140 0 280q11 94 74.5 157.5t163.5 63.5q104 0 171 -64.5t67 -164.5q0 -8 -6 -14t-14 -6h-100q-18 0 -20 20q-3 40 -29.5 64t-68.5 24
q-44 0 -68.5 -22.5t-28.5 -57.5q-17 -140 0 -280q4 -35 28.5 -57.5t68.5 -22.5z" />
    <glyph glyph-name="D" unicode="D" 
d="M274 0h-210q-8 0 -14 6t-6 14v660q0 8 6 14t14 6h210q90 0 151 -64t72 -157q15 -129 0 -258q-11 -93 -72 -157t-151 -64zM194 140h80q33 0 55.5 23.5t26.5 57.5q15 129 0 258q-4 34 -26.5 57.5t-55.5 23.5h-80q-10 0 -10 -10v-400q0 -10 10 -10z" />
    <glyph glyph-name="E" unicode="E" 
d="M211 550v-120q0 -10 10 -10h225q8 0 14 -6t6 -14v-100q0 -8 -6 -14t-14 -6h-225q-10 0 -10 -10v-120q0 -10 10 -10h237q8 0 14 -6t6 -14v-100q0 -8 -6 -14t-14 -6h-367q-8 0 -14 6t-6 14v660q0 8 6 14t14 6h363q8 0 14 -6t6 -14v-100q0 -8 -6 -14t-14 -6h-233
q-10 0 -10 -10z" />
    <glyph glyph-name="F" unicode="F" 
d="M240 270v-250q0 -8 -6 -14t-14 -6h-100q-8 0 -14 6t-6 14v660q0 8 6 14t14 6h350q8 0 14 -6t6 -14v-100q0 -8 -6 -14t-14 -6h-220q-10 0 -10 -10v-120q0 -10 10 -10h210q8 0 14 -6t6 -14v-100q0 -8 -6 -14t-14 -6h-210q-10 0 -10 -10z" />
    <glyph glyph-name="G" unicode="G" 
d="M377 482q-3 40 -29.5 64t-68.5 24q-44 0 -68.5 -22.5t-28.5 -57.5q-17 -140 0 -280q4 -35 28.5 -57.5t68.5 -22.5q45 0 73 22t28 56v43q0 10 -10 10h-68q-8 0 -14 6t-6 14v95q0 8 6 14t14 6h195q8 0 14 -6t6 -14v-168q0 -91 -68 -155t-170 -64q-100 0 -163.5 63.5
t-74.5 157.5q-17 140 0 280q11 94 74.5 157.5t163.5 63.5q104 0 171 -64.5t67 -164.5q0 -8 -6 -14t-14 -6h-100q-18 0 -20 20z" />
    <glyph glyph-name="H" unicode="H" 
d="M189 680v-250q0 -10 10 -10h152q10 0 10 10v250q0 8 6 14t14 6h100q8 0 14 -6t6 -14v-660q0 -8 -6 -14t-14 -6h-100q-8 0 -14 6t-6 14v250q0 10 -10 10h-152q-10 0 -10 -10v-250q0 -8 -8 -14t-17 -6h-95q-8 0 -14 6t-6 14v660q0 8 6 14t14 6h100q8 0 14 -6t6 -14z" />
    <glyph glyph-name="I" unicode="I" 
d="M205 145v410q0 10 -10 10h-100q-8 0 -14 6t-6 14v95q0 8 6 14t14 6h360q8 0 14 -6t6 -14v-95q0 -8 -6 -14t-14 -6h-100q-10 0 -10 -10v-410q0 -10 10 -10h110q8 0 14 -6t6 -14v-95q0 -8 -6 -14t-14 -6h-380q-8 0 -14 6t-6 14v95q0 8 6 14t14 6h110q10 0 10 10z" />
    <glyph glyph-name="J" unicode="J" 
d="M164 239v-28q0 -34 25.5 -57.5t65.5 -23.5q41 0 65.5 24.5t24.5 66.5v459q0 8 6 14t14 6h101q8 0 14 -6t6 -14v-469q0 -94 -64 -158t-167 -64q-98 0 -165 65t-67 157v28q0 8 6 14t14 6h101q8 0 14 -6t6 -14z" />
    <glyph glyph-name="K" unicode="K" 
d="M206 447l165 243q7 10 22 10h101q14 0 19.5 -12.5t-2.5 -23.5l-187 -276q-11 -16 0 -33l205 -317q8 -10 1.5 -24t-22.5 -14h-108q-16 0 -23 12l-171 273q-1 2 -3.5 2.5t-4.5 -1t-2 -4.5v-262q0 -8 -6 -14t-14 -6h-99q-8 0 -14 6t-6 14v660q0 8 6 14t14 6h99q8 0 14 -6
t6 -14v-230q0 -3 2 -4.5t4.5 -1t3.5 2.5z" />
    <glyph glyph-name="L" unicode="L" 
d="M235 680v-530q0 -10 10 -10h250q8 0 14 -6t6 -14v-100q0 -8 -6 -14t-14 -6h-380q-8 0 -14 6t-6 14v660q0 8 6 14t14 6h100q8 0 14 -6t6 -14z" />
    <glyph glyph-name="M" unicode="M" 
d="M210 683l56 -195q2 -8 9 -8t9 8l56 195q4 17 21 17h138q8 0 14 -6t6 -14v-660q0 -8 -6 -14t-14 -6h-98q-8 0 -14 6t-6 14v396q0 2 -1.5 3.5t-3.5 0.5t-3 -3l-47 -150q-6 -17 -21 -17h-59q-15 0 -21 17l-48 150q-1 2 -3 3t-3.5 -0.5t-1.5 -3.5v-396q0 -8 -6 -14t-14 -6
h-98q-8 0 -14 6t-6 14v660q0 8 6 14t14 6h138q17 0 21 -17z" />
    <glyph glyph-name="N" unicode="N" 
d="M500 680v-660q0 -8 -6 -14t-14 -6h-118q-21 0 -27 17l-136 351q-1 4 -5 3.5t-4 -5.5v-346q0 -8 -6 -14t-14 -6h-100q-8 0 -14 6t-6 14v660q0 8 6 14t14 6h119q19 0 25 -18l137 -380q1 -4 5 -3.5t4 5.5v376q0 8 6 14t14 6h100q8 0 14 -6t6 -14z" />
    <glyph glyph-name="O" unicode="O" 
d="M275 570q-44 0 -68.5 -22.5t-28.5 -57.5q-17 -140 0 -280q4 -35 28.5 -57.5t68.5 -22.5t68.5 22.5t28.5 57.5q17 140 0 280q-4 35 -28.5 57.5t-68.5 22.5zM275 711q100 0 163.5 -63.5t74.5 -157.5q17 -140 0 -280q-11 -94 -74.5 -157.5t-163.5 -63.5t-163.5 63.5
t-74.5 157.5q-17 140 0 280q11 94 74.5 157.5t163.5 63.5z" />
    <glyph glyph-name="P" unicode="P" 
d="M210 270v-250q0 -8 -6 -14t-14 -6h-100q-8 0 -14 6t-6 14v660q0 8 6 14t14 6h220q86 0 148 -62t62 -148q0 -87 -62 -148.5t-148 -61.5h-90q-10 0 -10 -10zM310 560h-90q-10 0 -10 -10v-120q0 -10 10 -10h90q29 0 49.5 20.5t20.5 49.5q0 28 -21 49t-49 21z" />
    <glyph glyph-name="Q" unicode="Q" 
d="M275 570q-44 0 -68.5 -22.5t-28.5 -57.5q-17 -140 0 -280q4 -35 28.5 -57.5t68.5 -22.5t68.5 22.5t28.5 57.5q17 140 0 280q-4 35 -28.5 57.5t-68.5 22.5zM445 57q-10 -10 -4 -22l45 -89q7 -10 1.5 -23t-25.5 -13h-92q-8 0 -14 3.5t-8.5 7.5t-7.5 13l-23 45q-6 10 -18 10
h-24q-100 0 -163.5 63.5t-74.5 157.5q-17 140 0 280q11 94 74.5 157.5t163.5 63.5t163.5 -63.5t74.5 -157.5q17 -140 0 -280q-12 -97 -68 -153z" />
    <glyph glyph-name="R" unicode="R" 
d="M298 560h-90q-10 0 -10 -10v-120q0 -10 10 -10h90q29 0 49.5 20.5t20.5 49.5q0 28 -21 49t-49 21zM234 280h-26q-10 0 -10 -10v-250q0 -8 -6 -14t-14 -6h-100q-8 0 -14 6t-6 14v660q0 8 6 14t14 6h220q86 0 148 -62t62 -148q0 -57 -25 -98.5t-79 -78.5q-16 -11 -6 -33
l107 -250q6 -11 0.5 -20.5t-19.5 -9.5h-103q-21 0 -29 20l-102 247q-5 13 -18 13z" />
    <glyph glyph-name="S" unicode="S" 
d="M371 208q0 32 -23.5 49.5t-80.5 30.5q-105 23 -164.5 72.5t-59.5 139.5q0 89 65.5 150t163.5 61q100 0 165 -61t65 -150v-15q0 -8 -6 -14t-14 -6h-101q-8 0 -14 6t-6 14v15q0 31 -24 53t-65 22t-64 -19.5t-23 -50.5q0 -55 89 -72q115 -23 178.5 -75t63.5 -150
q0 -97 -68.5 -158t-175.5 -61q-103 0 -170.5 63.5t-67.5 155.5v30q0 8 6 14t14 6h101q8 0 14 -6t6 -14v-30q0 -36 26 -59t71 -23q44 0 71.5 23t27.5 59z" />
    <glyph glyph-name="T" unicode="T" 
d="M194 560h-135q-8 0 -14 6t-6 14v100q0 8 6 14t14 6h430q8 0 14 -6t6 -14v-100q0 -8 -6 -14t-14 -6h-135q-10 0 -10 -10v-530q0 -8 -6 -14t-14 -6h-100q-8 0 -14 6t-6 14v530q0 10 -10 10z" />
    <glyph glyph-name="U" unicode="U" 
d="M178 680v-470q0 -34 26 -57t69 -23q44 0 70.5 23t26.5 57v470q0 8 6 14t14 6h101q8 0 14 -6t6 -14v-470q0 -92 -68 -156.5t-170 -64.5q-101 0 -168.5 64.5t-67.5 156.5v470q0 8 6 14t14 6h101q8 0 14 -6t6 -14z" />
    <glyph glyph-name="V" unicode="V" 
d="M285 216l109 469q3 15 19 15h110q11 0 16.5 -8t2.5 -16l-173 -661q-5 -15 -19 -15h-151q-15 0 -19 15l-173 661q-3 8 2.5 16t16.5 8h110q16 0 19 -15l110 -469q2 -7 7 -7h6q5 0 7 7z" />
    <glyph glyph-name="W" unicode="W" 
d="M324 485l37 -200q1 -4 4 -6t6.5 0t3.5 6l38 400q1 15 19 15h93q22 0 20 -20l-71 -665q-2 -15 -19 -15h-120q-16 0 -19 15l-35 181q-1 4 -6 4t-6 -4l-35 -181q-3 -15 -19 -15h-120q-17 0 -19 15l-71 665q-2 20 20 20h93q18 0 19 -15l39 -400q0 -4 3.5 -6t6.5 0t4 6l36 200
q3 15 19 15h60q16 0 19 -15z" />
    <glyph glyph-name="X" unicode="X" 
d="M374 15l-93 237q-2 4 -5 4h-2q-3 0 -5 -4l-93 -237q-5 -15 -21 -15h-118q-10 0 -15 9t-1 19l147 333q5 10 0 22l-130 289q-4 10 1 19t15 9h113q12 0 19 -15l83 -207q2 -4 5 -4h2q3 0 5 4l83 207q7 15 19 15h113q10 0 15 -9t1 -19l-130 -290q-5 -12 0 -22l147 -332
q4 -10 -1 -19t-15 -9h-118q-16 0 -21 15z" />
    <glyph glyph-name="Y" unicode="Y" 
d="M281 408l96 277q5 15 19 15h110q10 0 15 -8.5t1 -19.5l-177 -446v-206q0 -8 -6 -14t-14 -6h-100q-8 0 -14 6t-6 14v206l-177 446q-4 11 1 19.5t15 8.5h110q14 0 19 -15l96 -277q1 -4 5 -4h2q4 0 5 4z" />
    <glyph glyph-name="Z" unicode="Z" 
d="M487 548l-275 -401q-6 -10 6 -10h264q8 0 14 -6t6 -14v-97q0 -8 -6 -14t-14 -6h-414q-8 0 -14 6t-6 14v119q0 8 5 16l276 398q6 10 -6 10h-240q-8 0 -14 6t-6 14v97q0 8 6 14t14 6h389q8 0 14 -6t6 -14v-116q0 -8 -5 -16z" />
    <glyph glyph-name="bracketleft" unicode="[" 
d="M316 588v-546q0 -10 10 -10h130q8 0 14 -6t6 -14v-82q0 -8 -6 -14t-14 -6h-242q-8 0 -14 6t-6 14v770q0 8 6 14t14 6h242q8 0 14 -6t6 -14v-82q0 -8 -6 -14t-14 -6h-130q-10 0 -10 -10z" />
    <glyph glyph-name="backslash" unicode="\" 
d="M343 3l-264 679q-4 11 1 19.5t15 8.5h92q14 0 19 -15l266 -679q4 -11 -1 -19.5t-15 -8.5h-92q-16 0 -21 15z" />
    <glyph glyph-name="bracketright" unicode="]" 
d="M234 42v546q0 10 -10 10h-130q-8 0 -14 6t-6 14v82q0 8 6 14t14 6h242q8 0 14 -6t6 -14v-770q0 -8 -6 -14t-14 -6h-242q-8 0 -14 6t-6 14v82q0 8 6 14t14 6h130q10 0 10 10z" />
    <glyph glyph-name="asciicircum" unicode="^" 
d="M266 630l-35 -44q-11 -16 -31 -16h-95q-8 0 -11.5 5t-3 11t3.5 9l119 123q12 12 30 12h62q17 0 29 -12l119 -123q6 -5 2.5 -15t-15.5 -10h-94q-20 0 -31 16l-35 44q-7 10 -14 0z" />
    <glyph glyph-name="underscore" unicode="_" 
d="M-3 0h557q8 0 14 -6t6 -14v-59q0 -8 -6 -14t-14 -6h-557q-8 0 -14 6t-6 14v59q0 8 6 14t14 6z" />
    <glyph glyph-name="grave" unicode="`" 
d="M174 730h107q15 0 26 -16l82 -114q8 -12 3 -21t-16 -9h-69q-18 0 -30 12l-115 121q-9 9 -5.5 18t17.5 9z" />
    <glyph glyph-name="a" unicode="a" 
d="M348 204h-106q-28 0 -39.5 -16.5t-11.5 -33.5q0 -26 18.5 -39.5t47.5 -13.5q101 0 101 69v24q0 10 -10 10zM276 397q-24 0 -46.5 -8.5t-22.5 -29.5q0 -12 -6 -15.5t-21 -3.5h-72q-8 0 -14 6t-6 14q0 62 53 106.5t140 44.5q92 0 146 -47.5t54 -133.5v-310q0 -8 -6 -14
t-14 -6h-50q-8 0 -14 7q-2 2 -4.5 8t-6 9t-9.5 3t-21 -9.5t-41 -19t-58 -9.5q-88 0 -138 43.5t-50 121.5q0 58 46 107t126 49h102q10 0 10 10v16q0 30 -21.5 45.5t-55.5 15.5z" />
    <glyph glyph-name="b" unicode="b" 
d="M283 115q34 0 53.5 17t21.5 43q6 75 0 150q-2 26 -21.5 43t-53.5 17q-71 0 -76 -60q-6 -75 0 -150q5 -60 76 -60zM298 -11q-43 0 -72.5 17t-38.5 17q-11 0 -25 -16q-7 -7 -14 -7h-50q-8 0 -14 6t-6 14v670q0 8 6 14t14 6h90q8 0 14 -6t6 -14v-170q0 -16 9 -21t21 0
q28 12 60 12q78 0 131 -53t59 -133q6 -75 0 -150q-6 -80 -59 -133t-131 -53z" />
    <glyph glyph-name="c" unicode="c" 
d="M279 119q35 0 54 15.5t25 54.5q3 16 19 16h89q17 0 17 -20q0 -89 -59 -142.5t-145 -53.5q-89 0 -143.5 52t-64.5 134q-9 75 0 150q10 82 64.5 134t143.5 52q86 0 145 -53t59 -143q0 -20 -17 -20h-89q-18 0 -19 16q-4 70 -80 70q-70 0 -77 -56q-9 -75 0 -150q6 -56 78 -56
z" />
    <glyph glyph-name="d" unicode="d" 
d="M266 115q71 0 76 60q6 75 0 150q-5 60 -76 60q-34 0 -53.5 -17t-21.5 -43q-6 -75 0 -150q2 -26 21.5 -43t53.5 -17zM251 -11q-78 0 -131 53t-59 133q-6 75 0 150q6 80 59 133t131 53q32 0 60 -12q12 -5 21 0t9 21v170q0 8 6 14t14 6h90q8 0 14 -6t6 -14v-670q0 -8 -6 -14
t-14 -6h-50q-7 0 -14 7q-14 16 -25 16q-9 0 -38.5 -17t-72.5 -17z" />
    <glyph glyph-name="e" unicode="e" 
d="M190 195q0 -40 25 -62.5t63 -22.5q62 0 79 42q7 17 23 17h83q9 0 14.5 -5.5t2.5 -16.5q-18 -73 -69.5 -115.5t-132.5 -42.5q-88 0 -142.5 52t-64.5 134q-9 75 0 150q10 82 64.5 134t142.5 52q92 0 148 -52.5t56 -145.5v-83q0 -8 -6 -14t-14 -6h-257q-15 0 -15 -15z
M191 330q0 -9 10 -9h152q10 0 10 9q0 30 -25 46.5t-60 16.5q-42 0 -64.5 -17t-22.5 -46z" />
    <glyph glyph-name="f" unicode="f" 
d="M180 377h-110q-8 0 -14 6t-6 14v80q0 8 6 14t14 6h110q10 0 10 10v20q0 77 55.5 130t134.5 53h90q8 0 14 -6t6 -14v-90q0 -8 -6 -14t-14 -6h-90q-25 0 -42.5 -15.5t-17.5 -39.5v-18q0 -10 10 -10h150q8 0 14 -6t6 -14v-80q0 -8 -6 -14t-14 -6h-150q-10 0 -10 -10v-347
q0 -8 -6 -14t-14 -6h-90q-8 0 -14 6t-6 14v347q0 10 -10 10z" />
    <glyph glyph-name="g" unicode="g" 
d="M411 500h50q8 0 14 -6t6 -14v-510q0 -77 -56.5 -131t-140.5 -54q-81 0 -139 47t-58 118q0 8 6 14t14 6h75q4 0 7.5 -0.5t6 -1t4.5 -2t3 -2.5t2 -3.5t1 -3.5t1 -5t1 -5q4 -19 22.5 -31t47.5 -12q30 0 51.5 17.5t21.5 48.5v10q0 32 -30 21q-34 -12 -60 -12q-78 0 -131 53
t-59 133q-6 75 0 150q6 80 59 133t131 53q43 0 72.5 -17t38.5 -17q11 0 25 16q7 7 14 7zM276 385q-34 0 -53.5 -17t-21.5 -43q-6 -75 0 -150q2 -26 21.5 -43t53.5 -17q71 0 76 60q6 75 0 150q-5 60 -76 60z" />
    <glyph glyph-name="h" unicode="h" 
d="M185 0h-90q-8 0 -14 6t-6 14v670q0 8 6 14t14 6h90q8 0 14 -6t6 -14v-170q0 -13 8 -19.5t22 -1.5q34 12 60 12q79 0 134.5 -54t55.5 -132v-305q0 -8 -6 -14t-14 -6h-90q-8 0 -14 6t-6 14v305q0 26 -20 43t-55 17t-55 -17t-20 -43v-305q0 -8 -6 -14t-14 -6z" />
    <glyph glyph-name="i" unicode="i" 
d="M366 694v-108q0 -16 -16 -16h-108q-16 0 -16 16v108q0 6 4.5 11t11.5 5h108q7 0 11.5 -5t4.5 -11zM220 373h-100q-8 0 -14 6t-6 14v87q0 8 6 14t14 6h224q7 0 11.5 -5t4.5 -11v-344q0 -10 10 -10h110q8 0 14 -6t6 -14v-90q0 -8 -6 -14t-14 -6h-370q-8 0 -14 6t-6 14v90
q0 8 6 14t14 6h110q10 0 10 10v223q0 10 -10 10z" />
    <glyph glyph-name="j" unicode="j" 
d="M438 694v-108q0 -16 -16 -16h-108q-16 0 -16 16v108q0 6 4.5 11t11.5 5h108q7 0 11.5 -5t4.5 -11zM432 -32v516q0 6 -4.5 11t-11.5 5h-244q-8 0 -14 -6t-6 -14v-89q0 -8 6 -14t14 -6h120q10 0 10 -10v-391q0 -24 -17 -37.5t-43 -13.5t-43 13.5t-17 37.5q0 8 -6 14t-14 6
h-90q-8 0 -14 -6t-6 -14q0 -77 55.5 -129t134.5 -52t134.5 51t55.5 128z" />
    <glyph glyph-name="k" unicode="k" 
d="M382 15l-155 173q-1 2 -3.5 2.5t-4.5 -1t-2 -4.5v-165q0 -8 -6 -14t-14 -6h-90q-8 0 -14 6t-6 14v670q0 8 6 14t14 6h90q8 0 14 -6t6 -14v-349q0 -3 2 -4.5t4.5 -1t3.5 2.5l146 149q13 13 25 13h99q15 0 19.5 -13t-3.5 -20l-179 -185q-14 -14 1 -30l193 -219
q9 -10 3.5 -21.5t-19.5 -11.5h-104q-11 0 -26 15z" />
    <glyph glyph-name="l" unicode="l" 
d="M210 583h-100q-8 0 -14 6t-6 14v87q0 8 6 14t14 6h224q7 0 11.5 -5t4.5 -11v-554q0 -10 10 -10h120q8 0 14 -6t6 -14v-90q0 -8 -6 -14t-14 -6h-380q-8 0 -14 6t-6 14v90q0 8 6 14t14 6h110q10 0 10 10v433q0 10 -10 10z" />
    <glyph glyph-name="m" unicode="m" 
d="M298 484q32 26 92 26q61 0 96.5 -46t35.5 -114v-330q0 -8 -6 -14t-14 -6h-80q-8 0 -14 6t-6 14v340q0 14 -10.5 24.5t-24.5 10.5t-24.5 -10.5t-10.5 -24.5v-340q0 -8 -6 -14t-14 -6h-75q-8 0 -14 6t-6 14v340q0 14 -10.5 24.5t-24.5 10.5t-24.5 -10.5t-10.5 -24.5v-340
q0 -8 -6 -14t-14 -6h-80q-8 0 -14 6t-6 14v460q0 8 6 14t14 6h30q12 0 20 -10t18 -10q4 0 30 15t55 15q46 0 73 -25q6 -6 13 -6t12 5z" />
    <glyph glyph-name="n" unicode="n" 
d="M185 476q11 0 43.5 17.5t66.5 17.5q79 0 132 -53.5t53 -132.5v-305q0 -8 -6 -14t-14 -6h-90q-8 0 -14 6t-6 14v306q0 26 -20 42.5t-55 16.5q-34 0 -54.5 -16t-20.5 -39v-310q0 -8 -6 -14t-14 -6h-90q-8 0 -14 6t-6 14v460q0 8 6 14t14 6h50q13 0 23 -12q12 -12 22 -12z
" />
    <glyph glyph-name="o" unicode="o" 
d="M274 511q89 0 143.5 -52t64.5 -134q9 -75 0 -150q-10 -82 -64.5 -134t-142.5 -52q-89 0 -143.5 52t-64.5 134q-9 75 0 150q10 82 64.5 134t142.5 52zM274 119q70 0 78 56q11 75 0 150q-8 56 -78 56q-37 0 -54.5 -13.5t-22.5 -42.5q-11 -75 0 -150q8 -56 77 -56z" />
    <glyph glyph-name="p" unicode="p" 
d="M283 385q-71 0 -76 -60q-6 -75 0 -150q5 -60 76 -60q34 0 53.5 17t21.5 43q6 75 0 150q-2 26 -21.5 43t-53.5 17zM298 511q78 0 131 -53t59 -133q6 -75 0 -150q-6 -80 -59 -133t-131 -53q-32 0 -60 12q-12 5 -21 0t-9 -21v-160q0 -8 -6 -14t-14 -6h-90q-8 0 -14 6t-6 14
v660q0 8 6 14t14 6h50q7 0 14 -7q14 -16 25 -16q9 0 38.5 17t72.5 17z" />
    <glyph glyph-name="q" unicode="q" 
d="M266 385q-34 0 -53.5 -17t-21.5 -43q-6 -75 0 -150q2 -26 21.5 -43t53.5 -17q71 0 76 60q6 75 0 150q-5 60 -76 60zM251 511q43 0 72.5 -17t38.5 -17q11 0 25 16q7 7 14 7h50q8 0 14 -6t6 -14v-660q0 -8 -6 -14t-14 -6h-90q-8 0 -14 6t-6 14v160q0 16 -9 21t-21 0
q-28 -12 -60 -12q-78 0 -131 53t-59 133q-6 75 0 150q6 80 59 133t131 53z" />
    <glyph glyph-name="r" unicode="r" 
d="M372 336q0 24 -21 37.5t-54 13.5q-34 0 -57 -15t-23 -45v-307q0 -8 -6 -14t-14 -6h-90q-8 0 -14 6t-6 14v460q0 8 6 14t14 6h50q12 0 25 -11q12 -12 23 -12q10 0 42.5 17t74.5 17q79 0 129.5 -48.5t50.5 -126.5q0 -8 -6 -14t-14 -6h-90q-8 0 -14 6t-6 14z" />
    <glyph glyph-name="s" unicode="s" 
d="M62 164q0 8 6 14t14 6h76q17 0 22.5 -5.5t7.5 -19.5q5 -52 88 -52q42 0 67 12t25 35t-24 32t-68 14q-35 4 -66.5 13t-64 26t-51.5 48.5t-19 72.5q0 64 62 107.5t139 43.5q81 0 139.5 -41.5t58.5 -114.5q0 -25 -20 -25h-75q-19 0 -23 25q-4 23 -26.5 34.5t-53.5 11.5
q-80 0 -80 -41q0 -7 2.5 -13t9.5 -10t12 -7t17 -5.5t18 -3.5t21 -4q94 -17 124 -30q88 -38 88 -135q0 -72 -62 -117.5t-150 -45.5q-91 0 -152.5 43.5t-61.5 131.5z" />
    <glyph glyph-name="t" unicode="t" 
d="M279 367v-197q0 -24 17 -37.5t43 -13.5t43 13.5t17 37.5q0 8 6 14t14 6h90q8 0 14 -6t6 -14q0 -77 -55.5 -129t-134.5 -52t-134.5 51t-55.5 128v199q0 10 -10 10h-98q-8 0 -14 6t-6 14v80q0 8 6 14t14 6h98q10 0 10 10v153q0 8 6 14t14 6h90q8 0 14 -6t6 -14v-153
q0 -10 10 -10h170q8 0 14 -6t6 -14v-80q0 -8 -6 -14t-14 -6h-170q-10 0 -10 -10z" />
    <glyph glyph-name="u" unicode="u" 
d="M365 20q-11 0 -41 -15.5t-64 -15.5q-79 0 -134.5 54t-55.5 132v305q0 8 6 14t14 6h90q8 0 14 -6t6 -14v-306q0 -26 20 -42.5t55 -16.5q34 0 54.5 16t20.5 39v310q0 8 6 14t14 6h90q8 0 14 -6t6 -14v-460q0 -8 -6 -14t-14 -6h-50q-13 0 -23 10q-12 10 -22 10z" />
    <glyph glyph-name="v" unicode="v" 
d="M280 200l100 285q5 15 19 15h100q11 0 16.5 -7.5t2.5 -15.5l-170 -462q-6 -15 -19 -15h-106q-13 0 -19 15l-172 462q-3 8 2.5 15.5t16.5 7.5h100q14 0 19 -15l98 -285q2 -5 6 -5t6 5z" />
    <glyph glyph-name="w" unicode="w" 
d="M238 390h68q15 0 19 -15l37 -150q2 -4 6.5 -4t5.5 4l33 260q1 15 19 15h94q11 0 16 -7t3 -16l-79 -462q-3 -15 -19 -15h-109q-16 0 -19 15l-33 153q-2 5 -7.5 5t-6.5 -5l-28 -153q-3 -15 -19 -15h-109q-16 0 -19 15l-81 462q-2 9 3 16t16 7h94q18 0 19 -15l33 -260
q1 -4 6 -4t6 4l32 150q3 15 19 15z" />
    <glyph glyph-name="x" unicode="x" 
d="M270 152l-78 -142q-6 -10 -22 -10h-101q-14 0 -19 10t3 23l133 216q7 11 0 22l-116 196q-8 13 -3 23t19 10h93q16 0 22 -10l69 -125q6 -12 12 0l69 125q6 10 22 10h93q14 0 19 -10t-3 -23l-118 -196q-7 -11 0 -22l132 -216q8 -13 3 -23t-19 -10h-101q-16 0 -22 10
l-75 142q-6 12 -12 0z" />
    <glyph glyph-name="y" unicode="y" 
d="M185 485l88 -284q2 -6 6.5 -6t5.5 6l81 284q4 15 19 15h101q11 0 16.5 -7.5t2.5 -15.5l-235 -662q-5 -15 -19 -15h-92q-11 0 -16.5 7.5t-2.5 15.5l70 187q4 12 0 22l-166 445q-3 8 2.5 15.5t16.5 7.5h103q14 0 19 -15z" />
    <glyph glyph-name="z" unicode="z" 
d="M83 141l227 229q3 4 1.5 7t-6.5 3h-205q-8 0 -14 6t-6 14v80q0 8 6 14t14 6h348q8 0 14 -6t6 -14v-87q0 -21 -20 -41l-214 -222q-3 -4 -1.5 -7t6.5 -3h219q8 0 14 -6t6 -14v-80q0 -8 -6 -14t-14 -6h-368q-8 0 -14 6t-6 14v90q0 18 13 31z" />
    <glyph glyph-name="braceleft" unicode="{" 
d="M156 120v135q0 12 -18 20l-11 5q-20 8 -20 20v40q0 12 20 20l11 5q18 8 18 20v125q0 85 64 147.5t161 62.5h72q8 0 14 -6t6 -14v-88q0 -8 -6 -14t-14 -6h-72q-39 0 -66 -19t-28 -63l-1 -125q0 -40 -41 -65q41 -25 41 -65v-135q0 -37 26 -59.5t69 -22.5h72q8 0 14 -6
t6 -14v-88q0 -8 -6 -14t-14 -6h-72q-93 0 -159 58t-66 152z" />
    <glyph glyph-name="bar" unicode="|" 
d="M337 700v-750q0 -8 -6 -14t-14 -6h-85q-8 0 -14 6t-6 14v750q0 8 6 14t14 6h85q8 0 14 -6t6 -14z" />
    <glyph glyph-name="braceright" unicode="}" 
d="M394 255v-135q0 -94 -66 -152t-159 -58h-72q-8 0 -14 6t-6 14v88q0 8 6 14t14 6h72q43 0 69 22.5t26 59.5v135q0 40 41 65q-41 25 -41 65l-1 125q-1 44 -28 63t-66 19h-72q-8 0 -14 6t-6 14v88q0 8 6 14t14 6h72q97 0 161 -62.5t64 -147.5v-125q0 -12 18 -20l11 -5
q20 -8 20 -20v-40q0 -12 -20 -20l-11 -5q-18 -8 -18 -20z" />
    <glyph glyph-name="asciitilde" unicode="~" 
d="M161 220q-18 0 -46 -8t-36 -18q-5 -6 -12 -8t-12 3t-5 14v80q0 26 35.5 43.5t75.5 17.5q52 0 112.5 -22.5t115.5 -22.5q18 0 46 8t36 18q5 6 12 8t12 -3t5 -14v-80q0 -26 -35.5 -43.5t-75.5 -17.5q-51 0 -112 22.5t-116 22.5z" />
    <glyph glyph-name="exclamdown" unicode="&#xa1;" 
d="M345 267v-451q0 -6 -4.5 -11t-11.5 -5h-108q-7 0 -11.5 5t-4.5 11v451q0 6 4.5 11t11.5 5h108q7 0 11.5 -5t4.5 -11zM355 480v-120q0 -8 -6 -14t-14 -6h-120q-8 0 -14 6t-6 14v120q0 8 6 14t14 6h120q8 0 14 -6t6 -14z" />
    <glyph glyph-name="cent" unicode="&#xa2;" 
d="M357 -1q-15 -6 -15 -17v-32q0 -8 -6 -14t-14 -6h-85q-8 0 -14 6t-6 14v33q0 10 -16 15q-55 19 -89 66.5t-42 110.5q-9 75 0 150q8 63 41.5 110.5t89.5 66.5q16 5 16 15v33q0 8 6 14t14 6h85q8 0 14 -6t6 -14v-33q0 -12 14 -17q57 -20 92 -68.5t35 -116.5q0 -20 -17 -20
h-89q-18 0 -19 16q-2 36 -24 55t-57 19q-69 0 -77 -60q-9 -75 0 -150q7 -60 78 -60q69 0 80 74q3 16 19 16h89q17 0 17 -20q0 -66 -34.5 -114.5t-91.5 -71.5z" />
    <glyph glyph-name="sterling" unicode="&#xa3;" 
d="M369 510v20q0 21 -14 36t-40 15q-25 0 -39 -15t-14 -36v-106q0 -10 10 -10h120q8 0 14 -6t6 -14v-75q0 -8 -6 -14t-14 -6h-119q-10 0 -10 -12v-43q0 -71 -17 -101q-7 -11 7 -11h237q8 0 14 -6t6 -14v-92q0 -8 -6 -14t-14 -6h-429q-9 0 -15 6t-6 14v92q0 8 6 14t14 6
q42 0 56 22.5t14 62.5v70q0 12 -10 12h-41q-8 0 -14 6t-6 14v75q0 8 6 14t14 6h41q10 0 10 10v106q0 76 54 129.5t131 53.5t131 -53.5t54 -129.5v-20q0 -8 -6 -14t-14 -6h-91q-8 0 -14 6t-6 14z" />
    <glyph glyph-name="currency" unicode="&#xa4;" 
d="M479 575l65 -65q13 -15 0 -28l-78 -79q23 -48 23 -96q0 -52 -24 -98l80 -80q14 -14 -1 -27l-65 -65q-13 -15 -27 -1l-80 79q-48 -24 -99 -24q-53 0 -97 23l-77 -77q-13 -13 -28 0l-65 65q-13 15 0 28l76 76q-25 47 -25 101q0 55 24 98l-76 78q-14 14 1 27l65 65
q13 15 27 1l76 -77q46 24 99 24q54 0 101 -25l77 77q13 13 28 0zM172 307q0 -41 30 -71t71 -30q42 0 72 30t30 71q0 42 -30 72t-72 30q-41 0 -71 -30t-30 -72z" />
    <glyph glyph-name="yen" unicode="&#xa5;" 
d="M208 214h-135q-8 0 -14 6t-6 14v67q0 8 6 14t14 6h96l-17 42h-79q-8 0 -14 6t-6 14v67q0 8 6 14t14 6h36l-81 202q-4 11 1 19.5t15 8.5h107q14 0 19 -15l99 -277q1 -4 5 -4h2q4 0 5 4l99 277q5 15 19 15h107q10 0 15 -8.5t1 -19.5l-82 -202h36q8 0 14 -6t6 -14v-67
q0 -8 -6 -14t-14 -6h-79l-17 -42h96q8 0 14 -6t6 -14v-67q0 -8 -6 -14t-14 -6h-134v-194q0 -8 -6 -14t-14 -6h-94q-8 0 -14 6t-6 14v194z" />
    <glyph glyph-name="brokenbar" unicode="&#xa6;" 
d="M333 687v-267q0 -8 -6 -14t-14 -6h-76q-8 0 -14 6t-6 14v267q0 8 6 14t14 6h76q8 0 14 -6t6 -14zM333 287v-267q0 -8 -6 -14t-14 -6h-76q-8 0 -14 6t-6 14v267q0 8 6 14t14 6h76q8 0 14 -6t6 -14z" />
    <glyph glyph-name="section" unicode="&#xa7;" 
d="M204 256l126 -109q10 -9 19 0q20 20 20 38q0 25 -22 44l-127 111q-10 9 -19 0q-19 -22 -19 -42q0 -23 22 -42zM84 -35v24q0 9 6 15t14 6h84q8 0 14 -6t6 -15v-24q0 -52 60 -52q53 0 53 45q0 22 -27 47q-17 15 -55.5 47.5t-69 59.5t-54.5 49q-34 32 -48 64t-14 78
q0 69 77 128q-32 45 -32 98q0 79 55.5 126t128.5 47q77 0 128.5 -49t51.5 -128v-14q0 -9 -6 -15t-14 -6h-84q-8 0 -14 6t-6 15v14q0 22 -15 37t-41 15q-24 0 -39 -11.5t-15 -32.5q0 -33 24 -53l179 -155q65 -57 65 -141q0 -75 -72 -134q28 -37 28 -92q0 -78 -55.5 -123.5
t-128.5 -45.5q-79 0 -131.5 45.5t-52.5 130.5z" />
    <glyph glyph-name="dieresis" unicode="&#xa8;" 
d="M239 690v-90q0 -8 -6 -14t-14 -6h-90q-8 0 -14 6t-6 14v90q0 8 6 14t14 6h90q8 0 14 -6t6 -14zM439 690v-90q0 -8 -6 -14t-14 -6h-90q-8 0 -14 6t-6 14v90q0 8 6 14t14 6h90q8 0 14 -6t6 -14z" />
    <glyph glyph-name="copyright" unicode="&#xa9;" 
d="M18 350q0 106 75 181t182 75t181.5 -75t74.5 -181q0 -107 -75 -182t-181 -75q-107 0 -182 75.5t-75 181.5zM93 350q0 -76 53 -129t129 -53q75 0 128 53t53 129q0 75 -53 128t-128 53q-76 0 -129 -53t-53 -128zM379 305q0 11 -12 11h-43q-12 0 -12 -9q0 -20 -10.5 -30.5
t-26.5 -10.5q-39 0 -44 50q-2 31 0 62q5 49 44 49q17 0 27.5 -10.5t10.5 -30.5q0 -8 11 -8h46q9 0 9 11q0 44 -28.5 73t-75.5 29q-51 0 -79 -32t-31 -81q-3 -31 0 -62q4 -50 31.5 -81.5t78.5 -31.5q47 0 75.5 29t28.5 73z" />
    <glyph glyph-name="ordfeminine" unicode="&#xaa;" 
d="M242 550h-54q-11 0 -16.5 -7t-5.5 -13q0 -22 30 -22q50 0 50 28v10q0 4 -4 4zM208 648q-29 0 -38 -16q-4 -9 -14 -9h-43q-10 0 -10 10q0 33 30.5 54t76.5 21q45 0 76 -22.5t31 -67.5v-155q0 -10 -10 -10h-32q-4 0 -7 3q-1 1 -2.5 4t-3 4.5t-4.5 1.5q-1 0 -24.5 -9.5
t-45.5 -9.5q-44 0 -69 22t-25 61q0 29 23 53.5t63 24.5h61q5 0 5 5v8q0 27 -38 27z" />
    <glyph glyph-name="guillemotleft" unicode="&#xab;" 
d="M67 274l96 161q9 15 25 15h80q15 0 19.5 -8.5t-3.5 -24.5l-85 -145q-8 -11 0 -24l85 -145q8 -16 3.5 -24.5t-19.5 -8.5h-80q-16 0 -25 15l-96 161q-9 14 0 28zM265 274l96 161q9 15 25 15h80q15 0 19.5 -8.5t-3.5 -24.5l-85 -145q-8 -11 0 -24l85 -145q8 -16 3.5 -24.5
t-19.5 -8.5h-80q-16 0 -25 15l-96 161q-9 14 0 28z" />
    <glyph glyph-name="logicalnot" unicode="&#xac;" 
d="M360 90v70q0 10 -10 10h-270q-8 0 -14 6t-6 14v90q0 8 6 14t14 6h390q8 0 14 -6t6 -14v-190q0 -8 -6 -14t-14 -6h-90q-8 0 -14 6t-6 14z" />
    <glyph glyph-name="registered" unicode="&#xae;" 
d="M13 350q0 106 75 181t182 75q106 0 181 -75t75 -181q0 -107 -75 -182t-181 -75t-181.5 75.5t-75.5 181.5zM88 350q0 -76 53 -129t129 -53q75 0 128 53t53 129q0 75 -53 128t-128 53q-76 0 -129 -53t-53 -128zM291 420h-40q-6 0 -6 -6v-34q0 -4 6 -4h40q22 0 22 22
q0 8 -6 15t-16 7zM338 326q-10 -6 -10.5 -6.5t0.5 -9.5l41 -78q4 -6 1 -11t-10 -5h-41q-10 0 -16 11l-38 76q-3 7 -9 7h-5q-6 0 -6 -5v-78q0 -11 -10 -11h-45q-9 0 -9 11v247q0 11 9 11h101q36 0 61 -25.5t25 -61.5q0 -48 -39 -72z" />
    <glyph glyph-name="macron" unicode="&#xaf;" 
d="M394 596h-262q-8 0 -14 6t-6 14v58q0 8 6 14t14 6h262q8 0 14 -6t6 -14v-58q0 -8 -6 -14t-14 -6z" />
    <glyph glyph-name="degree" unicode="&#xb0;" 
d="M126 585q0 62 43.5 105t105.5 43q61 0 104.5 -43.5t43.5 -104.5q0 -62 -43 -105.5t-105 -43.5t-105.5 43.5t-43.5 105.5zM225 585q0 -20 15 -35t35 -15t34.5 15t14.5 35t-14.5 34.5t-34.5 14.5t-35 -14.5t-15 -34.5z" />
    <glyph glyph-name="plusminus" unicode="&#xb1;" 
d="M75 483h125q10 0 10 10v125q0 8 6 14t14 6h89q8 0 14 -6t6 -14v-125q0 -10 10 -10h126q8 0 14 -6t6 -14v-89q0 -8 -6 -14t-14 -6h-126q-10 0 -10 -10v-126q0 -8 -6 -14t-14 -6h-89q-8 0 -14 6t-6 14v126q0 10 -10 10h-125q-8 0 -14 6t-6 14v89q0 8 6 14t14 6zM78 129h394
q8 0 14 -6t6 -14v-89q0 -8 -6 -14t-14 -6h-394q-8 0 -14 6t-6 14v89q0 8 6 14t14 6z" />
    <glyph glyph-name="twosuperior" unicode="&#xb2;" 
d="M303 602q0 10 -7.5 17t-19.5 7q-30 0 -30 -30v-9q0 -10 -10 -10h-64q-4 0 -7 3.5t-3 6.5v8q0 47 34 79.5t81 32.5q48 0 81 -28.5t33 -74.5q0 -38 -36 -74l-84 -84q-2 -2 -2.5 -4.5t1.5 -4.5t7 -2h109q10 0 10 -10v-65q0 -10 -10 -10h-217q-10 0 -10 10v79q0 8 4 12
l107 106q33 31 33 45z" />
    <glyph glyph-name="threesuperior" unicode="&#xb3;" 
d="M308 462q0 16 -11 24.5t-23 8.5h-6q-10 0 -10 10v42q0 10 10 10h6q12 0 22 9t10 24t-8.5 24t-22.5 9q-13 0 -21.5 -8.5t-8.5 -19.5v-8q0 -10 -10 -10h-64q-10 0 -10 10v8q0 46 34 79t80 33q47 0 80 -33t33 -79q0 -34 -24 -64q-4 -5 0 -7q27 -21 27 -66q0 -48 -34 -81.5
t-82 -33.5t-82 33.5t-34 81.5v6q0 10 10 10h63q10 0 10 -10v-6q0 -14 9 -22.5t24 -8.5q33 0 33 35z" />
    <glyph glyph-name="acute" unicode="&#xb4;" 
d="M268 730h107q14 0 17.5 -9t-5.5 -18l-115 -121q-12 -12 -30 -12h-69q-11 0 -16 9t3 21l82 114q11 16 26 16z" />
    <glyph glyph-name="uni00B5" unicode="&#xb5;" 
d="M70 -180q0 110 0.5 330t0.5 330q0 8 5.5 14t13.5 6h60h10h11.5t10 -1t10 -3t6 -6t2.5 -10v-306q0 -26 20 -42.5t55 -16.5q34 0 54.5 16t20.5 39v310q0 8 6 14t14 6h90q8 0 14 -6t6 -14v-460q0 -8 -6 -14t-14 -6h-50q-12 0 -23 10t-22 10q-9 0 -35 -15t-58 -15
q-18 0 -42 11q-12 5 -21 0t-9 -21v-160q0 -8 -6 -14t-14 -6h-90q-8 0 -14 6t-6 14z" />
    <glyph glyph-name="paragraph" unicode="&#xb6;" 
d="M210 360q-66 0 -113 50.5t-47 119.5q0 70 50 120t120 50h260q8 0 14 -6t6 -14v-760q0 -8 -6 -14t-14 -6h-60q-8 0 -14 6t-6 14v675q0 10 -10 10h-60q-10 0 -10 -10v-675q0 -8 -6 -14t-14 -6h-60q-8 0 -14 6t-6 14v430q0 10 -10 10z" />
    <glyph glyph-name="periodcentered" unicode="&#xb7;" 
d="M366 326v-143q0 -8 -6 -14t-14 -6h-143q-8 0 -14 6t-6 14v143q0 8 6 14t14 6h143q8 0 14 -6t6 -14z" />
    <glyph glyph-name="cedilla" unicode="&#xb8;" 
d="M347 -84l-21 -92q-6 -24 -32 -24h-62q-22 0 -28.5 12.5t-1.5 26.5l29 92q7 24 32 24h54q22 0 28 -12t2 -27z" />
    <glyph glyph-name="onesuperior" unicode="&#xb9;" 
d="M243 440v142q0 6 -5 7.5t-8 -2.5l-53 -40q-7 -5 -14.5 -1t-7.5 13v55q0 16 6 23l48 46q17 17 36 17h74q10 0 10 -10v-250q0 -5 5 -5h52q10 0 10 -10v-65q0 -10 -10 -10h-216q-10 0 -10 10v65q0 10 10 10h68q5 0 5 5z" />
    <glyph glyph-name="ordmasculine" unicode="&#xba;" 
d="M215 634q-38 0 -44 -37q-3 -21 0 -41q7 -34 44 -34t44 34q3 20 0 41q-6 37 -44 37zM215 711q42 0 75.5 -28t39.5 -80q3 -22 0 -51q-6 -49 -40 -78t-75 -29t-75 29t-40 78q-3 29 0 51q6 52 39.5 80t75.5 28z" />
    <glyph glyph-name="guillemotright" unicode="&#xbb;" 
d="M386 435l96 -161q9 -14 0 -28l-96 -161q-9 -15 -25 -15h-80q-15 0 -19.5 8.5t3.5 24.5l85 145q8 13 0 24l-85 145q-8 16 -3.5 24.5t19.5 8.5h80q16 0 25 -15zM188 435l96 -161q9 -14 0 -28l-96 -161q-9 -15 -25 -15h-80q-15 0 -19.5 8.5t3.5 24.5l85 145q8 13 0 24
l-85 145q-8 16 -3.5 24.5t19.5 8.5h80q16 0 25 -15z" />
    <glyph glyph-name="onequarter" unicode="&#xbc;" 
d="M28 617l75 71q12 12 25 12h68q10 0 10 -10v-330q0 -10 -10 -10h-72q-10 0 -10 10v214q0 3 -1.5 4.5t-3.5 1.5t-4 -2l-68 -57q-5 -5 -11 -2t-6 10v66q0 15 8 22zM485 135h22q10 0 10 -10v-60q0 -10 -10 -10h-22q-5 0 -5 -5v-40q0 -10 -10 -10h-60q-10 0 -10 10v40
q0 5 -5 5h-128q-10 0 -10 10v69q0 7 8 19l126 190q4 7 10 7h69q10 0 10 -10v-200q0 -5 5 -5zM394 217l-47 -76q-4 -6 3 -6h45q5 0 5 5v75q-1 4 -6 2zM131 15l379 657q6 9 0 18.5t-16 9.5h-48q-13 0 -22 -15l-380 -657q-6 -10 0 -19t16 -9h50q12 0 21 15z" />
    <glyph glyph-name="onehalf" unicode="&#xbd;" 
d="M28 617l75 71q12 12 25 12h68q10 0 10 -10v-330q0 -10 -10 -10h-72q-10 0 -10 10v214q0 3 -1.5 4.5t-3.5 1.5t-4 -2l-68 -57q-5 -5 -11 -2t-6 10v66q0 15 8 22zM131 15l379 657q6 9 0 18.5t-16 9.5h-48q-13 0 -22 -15l-380 -657q-6 -10 0 -19t16 -9h50q12 0 21 15z
M443 252q0 -14 -33 -45l-107 -106q-4 -4 -4 -12v-79q0 -10 10 -10h217q10 0 10 10v65q0 10 -10 10h-109q-5 0 -7 2t-1.5 4.5t2.5 4.5l84 84q36 36 36 74q0 46 -33 74.5t-81 28.5q-47 0 -81 -32.5t-34 -79.5v-8q0 -3 3 -6.5t7 -3.5h64q10 0 10 10v9q0 30 30 30q12 0 19.5 -7
t7.5 -17z" />
    <glyph glyph-name="threequarters" unicode="&#xbe;" 
d="M502 135h22q10 0 10 -10v-60q0 -10 -10 -10h-22q-5 0 -5 -5v-40q0 -10 -10 -10h-60q-10 0 -10 10v40q0 5 -5 5h-128q-10 0 -10 10v69q0 7 8 19l126 190q4 7 10 7h69q10 0 10 -10v-200q0 -5 5 -5zM411 217l-47 -76q-4 -6 3 -6h45q5 0 5 5v75q-1 4 -6 2zM153 15l379 657
q6 9 0 18.5t-16 9.5h-48q-13 0 -22 -15l-380 -657q-6 -10 0 -19t16 -9h50q12 0 21 15zM178 454q0 38 -37 38h-6q-10 0 -10 10v54q0 10 10 10h6q33 0 33 34q0 30 -33 30q-13 0 -23 -9t-10 -21v-7q0 -10 -10 -10h-64q-10 0 -10 10v7q0 46 31 75.5t86 29.5q48 0 82 -27.5
t34 -77.5q0 -21 -11 -39t-25 -26q-8 -4 0 -9q41 -23 41 -72q0 -51 -35.5 -80.5t-85.5 -29.5q-59 0 -90.5 30.5t-31.5 79.5v5q0 10 10 10h63q10 0 10 -10v-5q0 -14 11.5 -23.5t27.5 -9.5q14 0 25.5 9.5t11.5 23.5z" />
    <glyph glyph-name="questiondown" unicode="&#xbf;" 
d="M204 -6q0 34 38 70q6 6 35 27.5t42 37.5q8 10 13.5 22.5t8.5 21t4.5 23.5t1.5 20v21v16v10q0 8 -6 14t-14 6h-100q-8 0 -14 -6t-6 -14v-10q0 -35 -9 -53t-37 -39q-97 -71 -97 -174q0 -88 61 -145t150 -57q87 0 149.5 63t62.5 151v15q0 8 -6 14t-14 6h-100q-8 0 -14 -6
t-6 -14v-17q0 -30 -20 -51.5t-52 -21.5q-31 0 -51 19t-20 51zM197 360v120q0 8 6 14t14 6h120q8 0 14 -6t6 -14v-120q0 -8 -6 -14t-14 -6h-120q-8 0 -14 6t-6 14z" />
    <glyph glyph-name="Agrave" unicode="&#xc0;" 
d="M182 118l-28 -103q-3 -15 -19 -15h-105q-11 0 -16.5 6t-3.5 14l179 665q3 15 19 15h134q16 0 19 -15l178 -665q2 -8 -3.5 -14t-16.5 -6h-105q-14 0 -19 15l-31 103q-4 15 -15 15h-152q-12 0 -15 -15zM268 524l-48 -240q-3 -11 8 -11h92q11 0 8 11l-48 240q-1 4 -5 4h-2
q-4 0 -5 -4zM113 910h107q15 0 26 -16l82 -114q8 -12 3 -21t-16 -9h-69q-18 0 -30 12l-115 121q-9 9 -5.5 18t17.5 9z" />
    <glyph glyph-name="Aacute" unicode="&#xc1;" 
d="M182 118l-28 -103q-3 -15 -19 -15h-105q-11 0 -16.5 6t-3.5 14l179 665q3 15 19 15h134q16 0 19 -15l178 -665q2 -8 -3.5 -14t-16.5 -6h-105q-14 0 -19 15l-31 103q-4 15 -15 15h-152q-12 0 -15 -15zM268 524l-48 -240q-3 -11 8 -11h92q11 0 8 11l-48 240q-1 4 -5 4h-2
q-4 0 -5 -4zM320 910h107q14 0 17.5 -9t-5.5 -18l-115 -121q-12 -12 -30 -12h-69q-11 0 -16 9t3 21l82 114q11 16 26 16z" />
    <glyph glyph-name="Acircumflex" unicode="&#xc2;" 
d="M182 118l-28 -103q-3 -15 -19 -15h-105q-11 0 -16.5 6t-3.5 14l179 665q3 15 19 15h134q16 0 19 -15l178 -665q2 -8 -3.5 -14t-16.5 -6h-105q-14 0 -19 15l-31 103q-4 15 -15 15h-152q-12 0 -15 -15zM268 524l-48 -240q-3 -11 8 -11h92q11 0 8 11l-48 240q-1 4 -5 4h-2
q-4 0 -5 -4zM270 810l-35 -44q-11 -16 -31 -16h-95q-8 0 -11.5 5t-3 11t3.5 9l119 123q12 12 30 12h62q17 0 29 -12l119 -123q6 -5 2.5 -15t-15.5 -10h-94q-20 0 -31 16l-35 44q-7 10 -14 0z" />
    <glyph glyph-name="Atilde" unicode="&#xc3;" 
d="M182 118l-28 -103q-3 -15 -19 -15h-105q-11 0 -16.5 6t-3.5 14l179 665q3 15 19 15h134q16 0 19 -15l178 -665q2 -8 -3.5 -14t-16.5 -6h-105q-14 0 -19 15l-31 103q-4 15 -15 15h-152q-12 0 -15 -15zM268 524l-48 -240q-3 -11 8 -11h92q11 0 8 11l-48 240q-1 4 -5 4h-2
q-4 0 -5 -4zM367 864q29 0 46 21q6 8 15.5 4t9.5 -18v-60q0 -20 -21 -35.5t-50 -15.5q-31 0 -88 12.5t-92 12.5q-28 0 -46 -21q-6 -8 -15.5 -3.5t-9.5 17.5v60q0 20 21 35.5t50 15.5q31 0 88 -12.5t92 -12.5z" />
    <glyph glyph-name="Adieresis" unicode="&#xc4;" 
d="M182 118l-28 -103q-3 -15 -19 -15h-105q-11 0 -16.5 6t-3.5 14l179 665q3 15 19 15h134q16 0 19 -15l178 -665q2 -8 -3.5 -14t-16.5 -6h-105q-14 0 -19 15l-31 103q-4 15 -15 15h-152q-12 0 -15 -15zM268 524l-48 -240q-3 -11 8 -11h92q11 0 8 11l-48 240q-1 4 -5 4h-2
q-4 0 -5 -4zM240 870v-90q0 -8 -6 -14t-14 -6h-90q-8 0 -14 6t-6 14v90q0 8 6 14t14 6h90q8 0 14 -6t6 -14zM440 870v-90q0 -8 -6 -14t-14 -6h-90q-8 0 -14 6t-6 14v90q0 8 6 14t14 6h90q8 0 14 -6t6 -14z" />
    <glyph glyph-name="Aring" unicode="&#xc5;" 
d="M182 118l-28 -103q-3 -15 -19 -15h-105q-11 0 -16.5 6t-3.5 14l179 665q3 15 19 15h134q16 0 19 -15l178 -665q2 -8 -3.5 -14t-16.5 -6h-105q-14 0 -19 15l-31 103q-4 15 -15 15h-152q-12 0 -15 -15zM268 524l-48 -240q-3 -11 8 -11h92q11 0 8 11l-48 240q-1 4 -5 4h-2
q-4 0 -5 -4zM159 850q0 48 34 81.5t82 33.5t81.5 -33.5t33.5 -81.5t-33.5 -82t-81.5 -34t-82 34t-34 82zM243 850q0 -14 9 -23t23 -9t23 9t9 23t-9 23t-23 9t-23 -9t-9 -23z" />
    <glyph glyph-name="AE" unicode="&#xc6;" 
d="M284 20v98q0 15 -15 15h-87q-12 0 -15 -15l-28 -103q-3 -15 -19 -15h-95q-11 0 -16.5 6t-3.5 14l176 654q2 9 11 17.5t23 8.5h311q8 0 14 -6t6 -14v-100q0 -8 -6 -14t-14 -6h-102q-10 0 -10 -10v-120q0 -10 10 -10h94q8 0 14 -6t6 -14v-100q0 -8 -6 -14t-14 -6h-94
q-10 0 -10 -10v-120q0 -10 10 -10h103q8 0 14 -6t6 -14v-100q0 -8 -6 -14t-14 -6h-223q-8 0 -14 6t-6 14zM213 273h61q10 0 10 11v266q0 10 -10 10h-2q-10 0 -13 -10l-54 -266q-3 -11 8 -11z" />
    <glyph glyph-name="Ccedilla" unicode="&#xc7;" 
d="M279 130q42 0 68.5 24t29.5 64q2 20 20 20h100q8 0 14 -6t6 -14q0 -100 -67 -164.5t-171 -64.5q-100 0 -163.5 63.5t-74.5 157.5q-17 140 0 280q11 94 74.5 157.5t163.5 63.5q104 0 171 -64.5t67 -164.5q0 -8 -6 -14t-14 -6h-100q-18 0 -20 20q-3 40 -29.5 64t-68.5 24
q-44 0 -68.5 -22.5t-28.5 -57.5q-17 -140 0 -280q4 -35 28.5 -57.5t68.5 -22.5zM338 -84l-21 -92q-6 -24 -32 -24h-62q-22 0 -28.5 12.5t-1.5 26.5l29 92q7 24 32 24h54q22 0 28 -12t2 -27z" />
    <glyph glyph-name="Egrave" unicode="&#xc8;" 
d="M211 550v-120q0 -10 10 -10h225q8 0 14 -6t6 -14v-100q0 -8 -6 -14t-14 -6h-225q-10 0 -10 -10v-120q0 -10 10 -10h237q8 0 14 -6t6 -14v-100q0 -8 -6 -14t-14 -6h-367q-8 0 -14 6t-6 14v660q0 8 6 14t14 6h363q8 0 14 -6t6 -14v-100q0 -8 -6 -14t-14 -6h-233
q-10 0 -10 -10zM113 910h107q15 0 26 -16l82 -114q8 -12 3 -21t-16 -9h-69q-18 0 -30 12l-115 121q-9 9 -5.5 18t17.5 9z" />
    <glyph glyph-name="Eacute" unicode="&#xc9;" 
d="M211 430v120q0 10 10 10h233q8 0 14 6t6 14v100q0 8 -6 14t-14 6h-363q-8 0 -14 -6t-6 -14v-660q0 -8 6 -14t14 -6h367q8 0 14 6t6 14v100q0 8 -6 14t-14 6h-237q-10 0 -10 10v120q0 10 10 10h225q8 0 14 6t6 14v100q0 8 -6 14t-14 6h-225q-10 0 -10 10zM320 910h107
q14 0 17.5 -9t-5.5 -18l-115 -121q-12 -12 -30 -12h-69q-11 0 -16 9t3 21l82 114q11 16 26 16z" />
    <glyph glyph-name="Ecircumflex" unicode="&#xca;" 
d="M211 550v-120q0 -10 10 -10h225q8 0 14 -6t6 -14v-100q0 -8 -6 -14t-14 -6h-225q-10 0 -10 -10v-120q0 -10 10 -10h237q8 0 14 -6t6 -14v-100q0 -8 -6 -14t-14 -6h-367q-8 0 -14 6t-6 14v660q0 8 6 14t14 6h363q8 0 14 -6t6 -14v-100q0 -8 -6 -14t-14 -6h-233
q-10 0 -10 -10zM270 810l-35 -44q-11 -16 -31 -16h-95q-8 0 -11.5 5t-3 11t3.5 9l119 123q12 12 30 12h62q17 0 29 -12l119 -123q6 -5 2.5 -15t-15.5 -10h-94q-20 0 -31 16l-35 44q-7 10 -14 0z" />
    <glyph glyph-name="Edieresis" unicode="&#xcb;" 
d="M211 430v120q0 10 10 10h233q8 0 14 6t6 14v100q0 8 -6 14t-14 6h-363q-8 0 -14 -6t-6 -14v-660q0 -8 6 -14t14 -6h367q8 0 14 6t6 14v100q0 8 -6 14t-14 6h-237q-10 0 -10 10v120q0 10 10 10h225q8 0 14 6t6 14v100q0 8 -6 14t-14 6h-225q-10 0 -10 10zM240 870v-90
q0 -8 -6 -14t-14 -6h-90q-8 0 -14 6t-6 14v90q0 8 6 14t14 6h90q8 0 14 -6t6 -14zM440 870v-90q0 -8 -6 -14t-14 -6h-90q-8 0 -14 6t-6 14v90q0 8 6 14t14 6h90q8 0 14 -6t6 -14z" />
    <glyph glyph-name="Igrave" unicode="&#xcc;" 
d="M205 145v410q0 10 -10 10h-100q-8 0 -14 6t-6 14v95q0 8 6 14t14 6h360q8 0 14 -6t6 -14v-95q0 -8 -6 -14t-14 -6h-100q-10 0 -10 -10v-410q0 -10 10 -10h110q8 0 14 -6t6 -14v-95q0 -8 -6 -14t-14 -6h-380q-8 0 -14 6t-6 14v95q0 8 6 14t14 6h110q10 0 10 10zM113 910
h107q15 0 26 -16l82 -114q8 -12 3 -21t-16 -9h-69q-18 0 -30 12l-115 121q-9 9 -5.5 18t17.5 9z" />
    <glyph glyph-name="Iacute" unicode="&#xcd;" 
d="M205 145v410q0 10 -10 10h-100q-8 0 -14 6t-6 14v95q0 8 6 14t14 6h360q8 0 14 -6t6 -14v-95q0 -8 -6 -14t-14 -6h-100q-10 0 -10 -10v-410q0 -10 10 -10h110q8 0 14 -6t6 -14v-95q0 -8 -6 -14t-14 -6h-380q-8 0 -14 6t-6 14v95q0 8 6 14t14 6h110q10 0 10 10zM320 910
h107q14 0 17.5 -9t-5.5 -18l-115 -121q-12 -12 -30 -12h-69q-11 0 -16 9t3 21l82 114q11 16 26 16z" />
    <glyph glyph-name="Icircumflex" unicode="&#xce;" 
d="M205 145v410q0 10 -10 10h-100q-8 0 -14 6t-6 14v95q0 8 6 14t14 6h360q8 0 14 -6t6 -14v-95q0 -8 -6 -14t-14 -6h-100q-10 0 -10 -10v-410q0 -10 10 -10h110q8 0 14 -6t6 -14v-95q0 -8 -6 -14t-14 -6h-380q-8 0 -14 6t-6 14v95q0 8 6 14t14 6h110q10 0 10 10zM270 810
l-35 -44q-11 -16 -31 -16h-95q-8 0 -11.5 5t-3 11t3.5 9l119 123q12 12 30 12h62q17 0 29 -12l119 -123q6 -5 2.5 -15t-15.5 -10h-94q-20 0 -31 16l-35 44q-7 10 -14 0z" />
    <glyph glyph-name="Idieresis" unicode="&#xcf;" 
d="M205 145v410q0 10 -10 10h-100q-8 0 -14 6t-6 14v95q0 8 6 14t14 6h360q8 0 14 -6t6 -14v-95q0 -8 -6 -14t-14 -6h-100q-10 0 -10 -10v-410q0 -10 10 -10h110q8 0 14 -6t6 -14v-95q0 -8 -6 -14t-14 -6h-380q-8 0 -14 6t-6 14v95q0 8 6 14t14 6h110q10 0 10 10zM240 870
v-90q0 -8 -6 -14t-14 -6h-90q-8 0 -14 6t-6 14v90q0 8 6 14t14 6h90q8 0 14 -6t6 -14zM440 870v-90q0 -8 -6 -14t-14 -6h-90q-8 0 -14 6t-6 14v90q0 8 6 14t14 6h90q8 0 14 -6t6 -14z" />
    <glyph glyph-name="Eth" unicode="&#xd0;" 
d="M44 430v250q0 8 6 14t14 6h210q90 0 151 -64t72 -157q15 -129 0 -258q-11 -93 -72 -157t-151 -64h-210q-8 0 -14 6t-6 14v250q0 10 -10 10h-7q-8 0 -14 6t-6 14v100q0 8 6 14t14 6h7q10 0 10 10zM184 270v-120q0 -10 10 -10h80q33 0 55.5 23.5t26.5 57.5q15 129 0 258
q-4 34 -26.5 57.5t-55.5 23.5h-80q-10 0 -10 -10v-120q0 -10 10 -10h80q8 0 14 -6t6 -14v-100q0 -8 -6 -14t-14 -6h-80q-10 0 -10 -10z" />
    <glyph glyph-name="Ntilde" unicode="&#xd1;" 
d="M500 680v-660q0 -8 -6 -14t-14 -6h-118q-21 0 -27 17l-136 351q-1 4 -5 3.5t-4 -5.5v-346q0 -8 -6 -14t-14 -6h-100q-8 0 -14 6t-6 14v660q0 8 6 14t14 6h119q19 0 25 -18l137 -380q1 -4 5 -3.5t4 5.5v376q0 8 6 14t14 6h100q8 0 14 -6t6 -14zM367 864q29 0 46 21
q6 8 15.5 4t9.5 -18v-60q0 -20 -21 -35.5t-50 -15.5q-31 0 -88 12.5t-92 12.5q-28 0 -46 -21q-6 -8 -15.5 -3.5t-9.5 17.5v60q0 20 21 35.5t50 15.5q31 0 88 -12.5t92 -12.5z" />
    <glyph glyph-name="Ograve" unicode="&#xd2;" 
d="M275 570q-44 0 -68.5 -22.5t-28.5 -57.5q-17 -140 0 -280q4 -35 28.5 -57.5t68.5 -22.5t68.5 22.5t28.5 57.5q17 140 0 280q-4 35 -28.5 57.5t-68.5 22.5zM275 711q100 0 163.5 -63.5t74.5 -157.5q17 -140 0 -280q-11 -94 -74.5 -157.5t-163.5 -63.5t-163.5 63.5
t-74.5 157.5q-17 140 0 280q11 94 74.5 157.5t163.5 63.5zM113 910h107q15 0 26 -16l82 -114q8 -12 3 -21t-16 -9h-69q-18 0 -30 12l-115 121q-9 9 -5.5 18t17.5 9z" />
    <glyph glyph-name="Oacute" unicode="&#xd3;" 
d="M275 570q44 0 68.5 -22.5t28.5 -57.5q17 -140 0 -280q-4 -35 -28.5 -57.5t-68.5 -22.5t-68.5 22.5t-28.5 57.5q-17 140 0 280q4 35 28.5 57.5t68.5 22.5zM275 711q-100 0 -163.5 -63.5t-74.5 -157.5q-17 -140 0 -280q11 -94 74.5 -157.5t163.5 -63.5t163.5 63.5
t74.5 157.5q17 140 0 280q-11 94 -74.5 157.5t-163.5 63.5zM320 910h107q14 0 17.5 -9t-5.5 -18l-115 -121q-12 -12 -30 -12h-69q-11 0 -16 9t3 21l82 114q11 16 26 16z" />
    <glyph glyph-name="Ocircumflex" unicode="&#xd4;" 
d="M275 570q-44 0 -68.5 -22.5t-28.5 -57.5q-17 -140 0 -280q4 -35 28.5 -57.5t68.5 -22.5t68.5 22.5t28.5 57.5q17 140 0 280q-4 35 -28.5 57.5t-68.5 22.5zM275 711q100 0 163.5 -63.5t74.5 -157.5q17 -140 0 -280q-11 -94 -74.5 -157.5t-163.5 -63.5t-163.5 63.5
t-74.5 157.5q-17 140 0 280q11 94 74.5 157.5t163.5 63.5zM270 810l-35 -44q-11 -16 -31 -16h-95q-8 0 -11.5 5t-3 11t3.5 9l119 123q12 12 30 12h62q17 0 29 -12l119 -123q6 -5 2.5 -15t-15.5 -10h-94q-20 0 -31 16l-35 44q-7 10 -14 0z" />
    <glyph glyph-name="Otilde" unicode="&#xd5;" 
d="M275 570q-44 0 -68.5 -22.5t-28.5 -57.5q-17 -140 0 -280q4 -35 28.5 -57.5t68.5 -22.5t68.5 22.5t28.5 57.5q17 140 0 280q-4 35 -28.5 57.5t-68.5 22.5zM275 711q100 0 163.5 -63.5t74.5 -157.5q17 -140 0 -280q-11 -94 -74.5 -157.5t-163.5 -63.5t-163.5 63.5
t-74.5 157.5q-17 140 0 280q11 94 74.5 157.5t163.5 63.5zM367 864q29 0 46 21q6 8 15.5 4t9.5 -18v-60q0 -20 -21 -35.5t-50 -15.5q-31 0 -88 12.5t-92 12.5q-28 0 -46 -21q-6 -8 -15.5 -3.5t-9.5 17.5v60q0 20 21 35.5t50 15.5q31 0 88 -12.5t92 -12.5z" />
    <glyph glyph-name="Odieresis" unicode="&#xd6;" 
d="M275 570q44 0 68.5 -22.5t28.5 -57.5q17 -140 0 -280q-4 -35 -28.5 -57.5t-68.5 -22.5t-68.5 22.5t-28.5 57.5q-17 140 0 280q4 35 28.5 57.5t68.5 22.5zM275 711q-100 0 -163.5 -63.5t-74.5 -157.5q-17 -140 0 -280q11 -94 74.5 -157.5t163.5 -63.5t163.5 63.5
t74.5 157.5q17 140 0 280q-11 94 -74.5 157.5t-163.5 63.5zM240 870v-90q0 -8 -6 -14t-14 -6h-90q-8 0 -14 6t-6 14v90q0 8 6 14t14 6h90q8 0 14 -6t6 -14zM440 870v-90q0 -8 -6 -14t-14 -6h-90q-8 0 -14 6t-6 14v90q0 8 6 14t14 6h90q8 0 14 -6t6 -14z" />
    <glyph glyph-name="multiply" unicode="&#xd7;" 
d="M88 155l88 88q7 7 0 14l-88 88q-14 15 0 29l63 63q5 5 14 5.5t14 -5.5l88 -89q7 -7 14 0l89 89q6 6 14.5 6t14.5 -6l63 -63q13 -13 0 -28l-89 -89q-9 -7 0 -14l89 -89q13 -15 0 -28l-63 -63q-6 -6 -14.5 -6t-14.5 6l-89 89q-7 7 -14 0l-88 -89q-5 -6 -14 -5.5t-14 5.5
l-63 63q-14 14 0 29z" />
    <glyph glyph-name="Oslash" unicode="&#xd8;" 
d="M134 24l-5 -9q-9 -15 -21 -15h-64q-10 0 -16 9t0 19l41 68q5 7 1 15q-25 44 -31 99q-17 140 0 280q11 94 74.5 157.5t163.5 63.5q71 0 127 -35q10 -5 15 2l5 7q9 15 19 15h64q10 0 16 -9.5t0 -18.5l-40 -66q-3 -6 0 -16q24 -42 32 -100q17 -140 0 -280
q-11 -94 -74.5 -157.5t-163.5 -63.5q-77 0 -133 37q-7 3 -10 -2zM277 130q44 0 68.5 22.5t28.5 57.5q11 96 6 208q0 4 -2 6t-5 -3l-160 -265q-4 -6 2 -9q25 -17 62 -17zM277 570q-44 0 -68.5 -22.5t-28.5 -57.5q-12 -93 -7 -208q0 -4 2 -5t5 4l157 260q5 10 -1 13
q-24 16 -59 16z" />
    <glyph glyph-name="Ugrave" unicode="&#xd9;" 
d="M178 680v-470q0 -34 26 -57t69 -23q44 0 70.5 23t26.5 57v470q0 8 6 14t14 6h101q8 0 14 -6t6 -14v-470q0 -92 -68 -156.5t-170 -64.5q-101 0 -168.5 64.5t-67.5 156.5v470q0 8 6 14t14 6h101q8 0 14 -6t6 -14zM113 910h107q15 0 26 -16l82 -114q8 -12 3 -21t-16 -9h-69
q-18 0 -30 12l-115 121q-9 9 -5.5 18t17.5 9z" />
    <glyph glyph-name="Uacute" unicode="&#xda;" 
d="M178 210v470q0 8 -6 14t-14 6h-101q-8 0 -14 -6t-6 -14v-470q0 -92 67.5 -156.5t168.5 -64.5q102 0 170 64.5t68 156.5v470q0 8 -6 14t-14 6h-101q-8 0 -14 -6t-6 -14v-470q0 -34 -26.5 -57t-70.5 -23q-43 0 -69 23t-26 57zM320 910h107q14 0 17.5 -9t-5.5 -18l-115 -121
q-12 -12 -30 -12h-69q-11 0 -16 9t3 21l82 114q11 16 26 16z" />
    <glyph glyph-name="Ucircumflex" unicode="&#xdb;" 
d="M178 680v-470q0 -34 26 -57t69 -23q44 0 70.5 23t26.5 57v470q0 8 6 14t14 6h101q8 0 14 -6t6 -14v-470q0 -92 -68 -156.5t-170 -64.5q-101 0 -168.5 64.5t-67.5 156.5v470q0 8 6 14t14 6h101q8 0 14 -6t6 -14zM270 810l-35 -44q-11 -16 -31 -16h-95q-8 0 -11.5 5t-3 11
t3.5 9l119 123q12 12 30 12h62q17 0 29 -12l119 -123q6 -5 2.5 -15t-15.5 -10h-94q-20 0 -31 16l-35 44q-7 10 -14 0z" />
    <glyph glyph-name="Udieresis" unicode="&#xdc;" 
d="M178 210v470q0 8 -6 14t-14 6h-101q-8 0 -14 -6t-6 -14v-470q0 -92 67.5 -156.5t168.5 -64.5q102 0 170 64.5t68 156.5v470q0 8 -6 14t-14 6h-101q-8 0 -14 -6t-6 -14v-470q0 -34 -26.5 -57t-70.5 -23q-43 0 -69 23t-26 57zM240 870v-90q0 -8 -6 -14t-14 -6h-90
q-8 0 -14 6t-6 14v90q0 8 6 14t14 6h90q8 0 14 -6t6 -14zM440 870v-90q0 -8 -6 -14t-14 -6h-90q-8 0 -14 6t-6 14v90q0 8 6 14t14 6h90q8 0 14 -6t6 -14z" />
    <glyph glyph-name="Yacute" unicode="&#xdd;" 
d="M377 685l-96 -277q-1 -4 -5 -4h-2q-4 0 -5 4l-96 277q-5 15 -19 15h-110q-10 0 -15 -8.5t-1 -19.5l177 -446v-206q0 -8 6 -14t14 -6h100q8 0 14 6t6 14v206l177 446q4 11 -1 19.5t-15 8.5h-110q-14 0 -19 -15zM320 910h107q14 0 17.5 -9t-5.5 -18l-115 -121
q-12 -12 -30 -12h-69q-11 0 -16 9t3 21l82 114q11 16 26 16z" />
    <glyph glyph-name="Thorn" unicode="&#xde;" 
d="M350 330v50q0 28 -21 49t-49 21h-70q-10 0 -10 -10v-170q0 -10 10 -10h70q29 0 49.5 20.5t20.5 49.5zM490 380v-50q0 -87 -62 -148.5t-148 -61.5h-70q-10 0 -10 -10v-90q0 -8 -6 -14t-14 -6h-100q-8 0 -14 6t-6 14v660q0 8 6 14t14 6h100q8 0 14 -6t6 -14v-80
q0 -10 10 -10h70q86 0 148 -62t62 -148z" />
    <glyph glyph-name="germandbls" unicode="&#xdf;" 
d="M56 20v481q0 87 63 147.5t151 60.5q89 0 151 -60.5t62 -147.5q0 -66 -51 -128q-9 -12 1 -22q60 -62 60 -143q0 -94 -64 -151t-159 -57h-16q-8 0 -14 6t-6 14v91q0 8 6 14t14 6h16q41 0 66.5 19.5t25.5 57.5q0 41 -25.5 63t-66.5 22h-12q-8 0 -14 6t-6 14v89q0 8 6 14
t14 6h12q35 0 59 22.5t24 56.5t-23 55.5t-60 21.5q-38 0 -60.5 -20.5t-22.5 -56.5v-481q0 -8 -6 -14t-14 -6h-91q-8 0 -14 6t-6 14z" />
    <glyph glyph-name="agrave" unicode="&#xe0;" 
d="M348 204h-106q-28 0 -39.5 -16.5t-11.5 -33.5q0 -26 18.5 -39.5t47.5 -13.5q101 0 101 69v24q0 10 -10 10zM276 397q-24 0 -46.5 -8.5t-22.5 -29.5q0 -12 -6 -15.5t-21 -3.5h-72q-8 0 -14 6t-6 14q0 62 53 106.5t140 44.5q92 0 146 -47.5t54 -133.5v-310q0 -8 -6 -14
t-14 -6h-50q-8 0 -14 7q-2 2 -4.5 8t-6 9t-9.5 3t-21 -9.5t-41 -19t-58 -9.5q-88 0 -138 43.5t-50 121.5q0 58 46 107t126 49h102q10 0 10 10v16q0 30 -21.5 45.5t-55.5 15.5zM153 730h107q15 0 26 -16l82 -114q8 -12 3 -21t-16 -9h-69q-18 0 -30 12l-115 121q-9 9 -5.5 18
t17.5 9z" />
    <glyph glyph-name="aacute" unicode="&#xe1;" 
d="M348 204h-106q-28 0 -39.5 -16.5t-11.5 -33.5q0 -26 18.5 -39.5t47.5 -13.5q101 0 101 69v24q0 10 -10 10zM276 397q-24 0 -46.5 -8.5t-22.5 -29.5q0 -12 -6 -15.5t-21 -3.5h-72q-8 0 -14 6t-6 14q0 62 53 106.5t140 44.5q92 0 146 -47.5t54 -133.5v-310q0 -8 -6 -14
t-14 -6h-50q-8 0 -14 7q-2 2 -4.5 8t-6 9t-9.5 3t-21 -9.5t-41 -19t-58 -9.5q-88 0 -138 43.5t-50 121.5q0 58 46 107t126 49h102q10 0 10 10v16q0 30 -21.5 45.5t-55.5 15.5zM320 730h107q14 0 17.5 -9t-5.5 -18l-115 -121q-12 -12 -30 -12h-69q-11 0 -16 9t3 21l82 114
q11 16 26 16z" />
    <glyph glyph-name="acircumflex" unicode="&#xe2;" 
d="M348 204h-106q-28 0 -39.5 -16.5t-11.5 -33.5q0 -26 18.5 -39.5t47.5 -13.5q101 0 101 69v24q0 10 -10 10zM276 397q-24 0 -46.5 -8.5t-22.5 -29.5q0 -12 -6 -15.5t-21 -3.5h-72q-8 0 -14 6t-6 14q0 62 53 106.5t140 44.5q92 0 146 -47.5t54 -133.5v-310q0 -8 -6 -14
t-14 -6h-50q-8 0 -14 7q-2 2 -4.5 8t-6 9t-9.5 3t-21 -9.5t-41 -19t-58 -9.5q-88 0 -138 43.5t-50 121.5q0 58 46 107t126 49h102q10 0 10 10v16q0 30 -21.5 45.5t-55.5 15.5zM277 630l-35 -44q-11 -16 -31 -16h-95q-8 0 -11.5 5t-3 11t3.5 9l119 123q12 12 30 12h62
q17 0 29 -12l119 -123q6 -5 2.5 -15t-15.5 -10h-94q-20 0 -31 16l-35 44q-7 10 -14 0z" />
    <glyph glyph-name="atilde" unicode="&#xe3;" 
d="M348 204h-106q-28 0 -39.5 -16.5t-11.5 -33.5q0 -26 18.5 -39.5t47.5 -13.5q101 0 101 69v24q0 10 -10 10zM276 397q-24 0 -46.5 -8.5t-22.5 -29.5q0 -12 -6 -15.5t-21 -3.5h-72q-8 0 -14 6t-6 14q0 62 53 106.5t140 44.5q92 0 146 -47.5t54 -133.5v-310q0 -8 -6 -14
t-14 -6h-50q-8 0 -14 7q-2 2 -4.5 8t-6 9t-9.5 3t-21 -9.5t-41 -19t-58 -9.5q-88 0 -138 43.5t-50 121.5q0 58 46 107t126 49h102q10 0 10 10v16q0 30 -21.5 45.5t-55.5 15.5zM375 684q29 0 46 21q6 8 15.5 4t9.5 -18v-60q0 -20 -21 -35.5t-50 -15.5q-32 0 -88.5 12.5
t-91.5 12.5q-28 0 -46 -21q-6 -8 -15.5 -3.5t-9.5 17.5v60q0 20 21 35.5t50 15.5q31 0 88 -12.5t92 -12.5z" />
    <glyph glyph-name="adieresis" unicode="&#xe4;" 
d="M348 204h-106q-28 0 -39.5 -16.5t-11.5 -33.5q0 -26 18.5 -39.5t47.5 -13.5q101 0 101 69v24q0 10 -10 10zM276 397q-24 0 -46.5 -8.5t-22.5 -29.5q0 -12 -6 -15.5t-21 -3.5h-72q-8 0 -14 6t-6 14q0 62 53 106.5t140 44.5q92 0 146 -47.5t54 -133.5v-310q0 -8 -6 -14
t-14 -6h-50q-8 0 -14 7q-2 2 -4.5 8t-6 9t-9.5 3t-21 -9.5t-41 -19t-58 -9.5q-88 0 -138 43.5t-50 121.5q0 58 46 107t126 49h102q10 0 10 10v16q0 30 -21.5 45.5t-55.5 15.5zM250 690v-90q0 -8 -6 -14t-14 -6h-90q-8 0 -14 6t-6 14v90q0 8 6 14t14 6h90q8 0 14 -6t6 -14z
M450 690v-90q0 -8 -6 -14t-14 -6h-90q-8 0 -14 6t-6 14v90q0 8 6 14t14 6h90q8 0 14 -6t6 -14z" />
    <glyph glyph-name="aring" unicode="&#xe5;" 
d="M348 204h-106q-28 0 -39.5 -16.5t-11.5 -33.5q0 -26 18.5 -39.5t47.5 -13.5q101 0 101 69v24q0 10 -10 10zM276 397q-24 0 -46.5 -8.5t-22.5 -29.5q0 -12 -6 -15.5t-21 -3.5h-72q-8 0 -14 6t-6 14q0 62 53 106.5t140 44.5q92 0 146 -47.5t54 -133.5v-310q0 -8 -6 -14
t-14 -6h-50q-8 0 -14 7q-2 2 -4.5 8t-6 9t-9.5 3t-21 -9.5t-41 -19t-58 -9.5q-88 0 -138 43.5t-50 121.5q0 58 46 107t126 49h102q10 0 10 10v16q0 30 -21.5 45.5t-55.5 15.5zM169 670q0 48 34 81.5t82 33.5t81.5 -33.5t33.5 -81.5t-33.5 -82t-81.5 -34t-82 34t-34 82z
M253 670q0 -14 9 -23t23 -9t23 9t9 23t-9 23t-23 9t-23 -9t-9 -23z" />
    <glyph glyph-name="ae" unicode="&#xe6;" 
d="M294 24q-20 17 -38 0q-40 -35 -102 -35q-65 0 -108 46t-43 119q0 58 43.5 107t115.5 49h36q10 0 10 10v16q-1 30 -14 45.5t-34 15.5q-31 0 -38 -38q-3 -12 -8 -15.5t-19 -3.5h-62q-8 0 -14 6t-6 14q0 60 39.5 105.5t109.5 45.5q52 0 99 -38q15 -13 30 0q45 38 96 38
q79 0 119.5 -66t40.5 -185v-30q-2 -20 -20 -20h-183q-15 0 -15 -15q0 -42 16 -65.5t45 -23.5q42 0 52 46q4 17 23 17h63q17 0 17 -20q0 -57 -41.5 -108.5t-106.5 -51.5q-63 0 -103 35zM203 204h-46q-20 0 -31 -16.5t-11 -33.5q0 -52 47 -52q51 0 51 78v14q0 10 -10 10z
M324 319q0 -9 10 -9h101q10 0 10 9q0 35 -16 54.5t-42 19.5q-30 0 -46.5 -21.5t-16.5 -52.5z" />
    <glyph glyph-name="ccedilla" unicode="&#xe7;" 
d="M279 119q35 0 54 15.5t25 54.5q3 16 19 16h89q17 0 17 -20q0 -89 -59 -142.5t-145 -53.5q-89 0 -143.5 52t-64.5 134q-9 75 0 150q10 82 64.5 134t143.5 52q86 0 145 -53t59 -143q0 -20 -17 -20h-89q-18 0 -19 16q-4 70 -80 70q-70 0 -77 -56q-9 -75 0 -150q6 -56 78 -56
zM348 -84l-21 -92q-6 -24 -32 -24h-62q-22 0 -28.5 12.5t-1.5 26.5l29 92q7 24 32 24h54q22 0 28 -12t2 -27z" />
    <glyph glyph-name="egrave" unicode="&#xe8;" 
d="M190 195q0 -40 25 -62.5t63 -22.5q62 0 79 42q7 17 23 17h83q9 0 14.5 -5.5t2.5 -16.5q-18 -73 -69.5 -115.5t-132.5 -42.5q-88 0 -142.5 52t-64.5 134q-9 75 0 150q10 82 64.5 134t142.5 52q92 0 148 -52.5t56 -145.5v-83q0 -8 -6 -14t-14 -6h-257q-15 0 -15 -15z
M191 330q0 -9 10 -9h152q10 0 10 9q0 30 -25 46.5t-60 16.5q-42 0 -64.5 -17t-22.5 -46zM143 730h107q15 0 26 -16l82 -114q8 -12 3 -21t-16 -9h-69q-18 0 -30 12l-115 121q-9 9 -5.5 18t17.5 9z" />
    <glyph glyph-name="eacute" unicode="&#xe9;" 
d="M190 195q0 15 15 15h257q8 0 14 6t6 14v83q0 93 -56 145.5t-148 52.5q-88 0 -142.5 -52t-64.5 -134q-9 -75 0 -150q10 -82 64.5 -134t142.5 -52q81 0 132.5 42.5t69.5 115.5q3 11 -2.5 16.5t-14.5 5.5h-83q-16 0 -23 -17q-17 -42 -79 -42q-38 0 -63 22.5t-25 62.5z
M191 330q0 29 22.5 46t64.5 17q35 0 60 -16.5t25 -46.5q0 -9 -10 -9h-152q-10 0 -10 9zM310 730h107q14 0 17.5 -9t-5.5 -18l-115 -121q-12 -12 -30 -12h-69q-11 0 -16 9t3 21l82 114q11 16 26 16z" />
    <glyph glyph-name="ecircumflex" unicode="&#xea;" 
d="M190 195q0 -40 25 -62.5t63 -22.5q62 0 79 42q7 17 23 17h83q9 0 14.5 -5.5t2.5 -16.5q-18 -73 -69.5 -115.5t-132.5 -42.5q-88 0 -142.5 52t-64.5 134q-9 75 0 150q10 82 64.5 134t142.5 52q92 0 148 -52.5t56 -145.5v-83q0 -8 -6 -14t-14 -6h-257q-15 0 -15 -15z
M191 330q0 -9 10 -9h152q10 0 10 9q0 30 -25 46.5t-60 16.5q-42 0 -64.5 -17t-22.5 -46zM277 630l-35 -44q-11 -16 -31 -16h-95q-8 0 -11.5 5t-3 11t3.5 9l119 123q12 12 30 12h62q17 0 29 -12l119 -123q6 -5 2.5 -15t-15.5 -10h-94q-20 0 -31 16l-35 44q-7 10 -14 0z" />
    <glyph glyph-name="edieresis" unicode="&#xeb;" 
d="M190 195q0 15 15 15h257q8 0 14 6t6 14v83q0 93 -56 145.5t-148 52.5q-88 0 -142.5 -52t-64.5 -134q-9 -75 0 -150q10 -82 64.5 -134t142.5 -52q81 0 132.5 42.5t69.5 115.5q3 11 -2.5 16.5t-14.5 5.5h-83q-16 0 -23 -17q-17 -42 -79 -42q-38 0 -63 22.5t-25 62.5z
M191 330q0 29 22.5 46t64.5 17q35 0 60 -16.5t25 -46.5q0 -9 -10 -9h-152q-10 0 -10 9zM250 690v-90q0 -8 -6 -14t-14 -6h-90q-8 0 -14 6t-6 14v90q0 8 6 14t14 6h90q8 0 14 -6t6 -14zM450 690v-90q0 -8 -6 -14t-14 -6h-90q-8 0 -14 6t-6 14v90q0 8 6 14t14 6h90q8 0 14 -6
t6 -14z" />
    <glyph glyph-name="igrave" unicode="&#xec;" 
d="M153 730h107q15 0 26 -16l82 -114q8 -12 3 -21t-16 -9h-69q-18 0 -30 12l-115 121q-9 9 -5.5 18t17.5 9zM220 373h-100q-8 0 -14 6t-6 14v87q0 8 6 14t14 6h224q7 0 11.5 -5t4.5 -11v-344q0 -10 10 -10h110q8 0 14 -6t6 -14v-90q0 -8 -6 -14t-14 -6h-370q-8 0 -14 6
t-6 14v90q0 8 6 14t14 6h110q10 0 10 10v223q0 10 -10 10z" />
    <glyph glyph-name="iacute" unicode="&#xed;" 
d="M320 730h107q14 0 17.5 -9t-5.5 -18l-115 -121q-12 -12 -30 -12h-69q-11 0 -16 9t3 21l82 114q11 16 26 16zM220 373h-100q-8 0 -14 6t-6 14v87q0 8 6 14t14 6h224q7 0 11.5 -5t4.5 -11v-344q0 -10 10 -10h110q8 0 14 -6t6 -14v-90q0 -8 -6 -14t-14 -6h-370q-8 0 -14 6
t-6 14v90q0 8 6 14t14 6h110q10 0 10 10v223q0 10 -10 10z" />
    <glyph glyph-name="icircumflex" unicode="&#xee;" 
d="M220 373h-100q-8 0 -14 6t-6 14v87q0 8 6 14t14 6h224q7 0 11.5 -5t4.5 -11v-344q0 -10 10 -10h110q8 0 14 -6t6 -14v-90q0 -8 -6 -14t-14 -6h-370q-8 0 -14 6t-6 14v90q0 8 6 14t14 6h110q10 0 10 10v223q0 10 -10 10zM267 630l-35 -44q-11 -16 -31 -16h-95
q-8 0 -11.5 5t-3 11t3.5 9l119 123q12 12 30 12h62q17 0 29 -12l119 -123q6 -5 2.5 -15t-15.5 -10h-94q-20 0 -31 16l-35 44q-7 10 -14 0z" />
    <glyph glyph-name="idieresis" unicode="&#xef;" 
d="M240 690v-90q0 -8 -6 -14t-14 -6h-90q-8 0 -14 6t-6 14v90q0 8 6 14t14 6h90q8 0 14 -6t6 -14zM440 690v-90q0 -8 -6 -14t-14 -6h-90q-8 0 -14 6t-6 14v90q0 8 6 14t14 6h90q8 0 14 -6t6 -14zM220 373h-100q-8 0 -14 6t-6 14v87q0 8 6 14t14 6h224q7 0 11.5 -5t4.5 -11
v-344q0 -10 10 -10h110q8 0 14 -6t6 -14v-90q0 -8 -6 -14t-14 -6h-370q-8 0 -14 6t-6 14v90q0 8 6 14t14 6h110q10 0 10 10v223q0 10 -10 10z" />
    <glyph glyph-name="eth" unicode="&#xf0;" 
d="M275 120q39 0 62.5 23.5t26.5 62.5q4 56 -18.5 92.5t-70.5 36.5q-38 0 -62 -25t-27 -65q-4 -57 18 -91t71 -34zM236 570h-21h-42q-8 0 -14 6t-6 14v90q0 8 6 14t14 6h66q73 0 125 -37q5 -2 9 1l72 41q7 5 16 0.5t9 -14.5v-61q0 -14 -13 -24l-15 -10q-8 -6 -5 -10
q35 -56 51.5 -166.5t4.5 -213.5q-11 -97 -64.5 -157t-153.5 -60q-102 0 -162.5 62t-60.5 157q0 110 58 181t165 71q27 0 46 -10q8 -5 15.5 -1t7.5 14q0 33 -15 55q-6 8 -11 6l-67 -46q-7 -6 -17.5 -1.5t-10.5 15.5v40q0 18 15 28q6 4 4.5 7t-6.5 3z" />
    <glyph glyph-name="ntilde" unicode="&#xf1;" 
d="M185 476q11 0 43.5 17.5t66.5 17.5q79 0 132 -53.5t53 -132.5v-305q0 -8 -6 -14t-14 -6h-90q-8 0 -14 6t-6 14v306q0 26 -20 42.5t-55 16.5q-34 0 -54.5 -16t-20.5 -39v-310q0 -8 -6 -14t-14 -6h-90q-8 0 -14 6t-6 14v460q0 8 6 14t14 6h50q13 0 23 -12q12 -12 22 -12z
M365 684q29 0 46 21q6 8 15.5 4t9.5 -18v-60q0 -20 -21 -35.5t-50 -15.5q-31 0 -88 12.5t-92 12.5q-28 0 -46 -21q-6 -8 -15.5 -3.5t-9.5 17.5v60q0 20 21 35.5t50 15.5q31 0 88.5 -12.5t91.5 -12.5z" />
    <glyph glyph-name="ograve" unicode="&#xf2;" 
d="M274 511q89 0 143.5 -52t64.5 -134q9 -75 0 -150q-10 -82 -64.5 -134t-142.5 -52q-89 0 -143.5 52t-64.5 134q-9 75 0 150q10 82 64.5 134t142.5 52zM274 119q70 0 78 56q11 75 0 150q-8 56 -78 56q-37 0 -54.5 -13.5t-22.5 -42.5q-11 -75 0 -150q8 -56 77 -56zM133 730
h107q15 0 26 -16l82 -114q8 -12 3 -21t-16 -9h-69q-18 0 -30 12l-115 121q-9 9 -5.5 18t17.5 9z" />
    <glyph glyph-name="oacute" unicode="&#xf3;" 
d="M274 511q-88 0 -142.5 -52t-64.5 -134q-9 -75 0 -150q10 -82 64.5 -134t143.5 -52q88 0 142.5 52t64.5 134q9 75 0 150q-10 82 -64.5 134t-143.5 52zM274 119q-69 0 -77 56q-11 75 0 150q5 29 22.5 42.5t54.5 13.5q70 0 78 -56q11 -75 0 -150q-8 -56 -78 -56zM310 730
h107q14 0 17.5 -9t-5.5 -18l-115 -121q-12 -12 -30 -12h-69q-11 0 -16 9t3 21l82 114q11 16 26 16z" />
    <glyph glyph-name="ocircumflex" unicode="&#xf4;" 
d="M274 511q89 0 143.5 -52t64.5 -134q9 -75 0 -150q-10 -82 -64.5 -134t-142.5 -52q-89 0 -143.5 52t-64.5 134q-9 75 0 150q10 82 64.5 134t142.5 52zM274 119q70 0 78 56q11 75 0 150q-8 56 -78 56q-37 0 -54.5 -13.5t-22.5 -42.5q-11 -75 0 -150q8 -56 77 -56zM267 630
l-35 -44q-11 -16 -31 -16h-95q-8 0 -11.5 5t-3 11t3.5 9l119 123q12 12 30 12h62q17 0 29 -12l119 -123q6 -5 2.5 -15t-15.5 -10h-94q-20 0 -31 16l-35 44q-7 10 -14 0z" />
    <glyph glyph-name="otilde" unicode="&#xf5;" 
d="M274 511q89 0 143.5 -52t64.5 -134q9 -75 0 -150q-10 -82 -64.5 -134t-142.5 -52q-89 0 -143.5 52t-64.5 134q-9 75 0 150q10 82 64.5 134t142.5 52zM274 119q70 0 78 56q11 75 0 150q-8 56 -78 56q-37 0 -54.5 -13.5t-22.5 -42.5q-11 -75 0 -150q8 -56 77 -56zM365 684
q29 0 46 21q6 8 15.5 4t9.5 -18v-60q0 -20 -21 -35.5t-50 -15.5q-31 0 -88 12.5t-92 12.5q-28 0 -46 -21q-6 -8 -15.5 -3.5t-9.5 17.5v60q0 20 21 35.5t50 15.5q31 0 88.5 -12.5t91.5 -12.5z" />
    <glyph glyph-name="odieresis" unicode="&#xf6;" 
d="M274 511q-88 0 -142.5 -52t-64.5 -134q-9 -75 0 -150q10 -82 64.5 -134t143.5 -52q88 0 142.5 52t64.5 134q9 75 0 150q-10 82 -64.5 134t-143.5 52zM274 119q-69 0 -77 56q-11 75 0 150q5 29 22.5 42.5t54.5 13.5q70 0 78 -56q11 -75 0 -150q-8 -56 -78 -56zM240 690
v-90q0 -8 -6 -14t-14 -6h-90q-8 0 -14 6t-6 14v90q0 8 6 14t14 6h90q8 0 14 -6t6 -14zM440 690v-90q0 -8 -6 -14t-14 -6h-90q-8 0 -14 6t-6 14v90q0 8 6 14t14 6h90q8 0 14 -6t6 -14z" />
    <glyph glyph-name="divide" unicode="&#xf7;" 
d="M70 311h410q8 0 14 -6t6 -14v-79q0 -8 -6 -14t-14 -6h-410q-8 0 -14 6t-6 14v79q0 8 6 14t14 6zM346 123v-103q0 -8 -6 -14t-14 -6h-103q-8 0 -14 6t-6 14v103q0 8 6 14t14 6h103q8 0 14 -6t6 -14zM346 480v-103q0 -8 -6 -14t-14 -6h-103q-8 0 -14 6t-6 14v103q0 8 6 14
t14 6h103q8 0 14 -6t6 -14z" />
    <glyph glyph-name="oslash" unicode="&#xf8;" 
d="M505 472l-46 -59q-3 -4 -1 -9q18 -36 24 -79q9 -75 0 -150q-10 -82 -64.5 -134t-142.5 -52q-69 0 -118 32q-6 6 -12 -1l-6 -7q-10 -13 -24 -13h-66q-10 0 -14 9.5t3 18.5l48 59q5 7 2 14q-17 37 -21 74q-9 75 0 150q10 82 64.5 134t142.5 52q65 0 116 -31q6 -3 10 1l4 4
q13 15 24 15h64q10 0 15 -9.5t-2 -18.5zM352 175q6 36 4 98q0 4 -1.5 5t-5.5 -3l-113 -140q-7 -8 2 -11q17 -5 36 -5q70 0 78 56zM197 325q-7 -40 -5 -92q0 -4 2 -5.5t7 3.5l109 137q5 6 -3 9q-12 4 -33 4q-37 0 -54.5 -13.5t-22.5 -42.5z" />
    <glyph glyph-name="ugrave" unicode="&#xf9;" 
d="M365 20q-11 0 -41 -15.5t-64 -15.5q-79 0 -134.5 54t-55.5 132v305q0 8 6 14t14 6h90q8 0 14 -6t6 -14v-306q0 -26 20 -42.5t55 -16.5q34 0 54.5 16t20.5 39v310q0 8 6 14t14 6h90q8 0 14 -6t6 -14v-460q0 -8 -6 -14t-14 -6h-50q-13 0 -23 10q-12 10 -22 10zM133 730h107
q15 0 26 -16l82 -114q8 -12 3 -21t-16 -9h-69q-18 0 -30 12l-115 121q-9 9 -5.5 18t17.5 9z" />
    <glyph glyph-name="uacute" unicode="&#xfa;" 
d="M365 20q10 0 22 -10q10 -10 23 -10h50q8 0 14 6t6 14v460q0 8 -6 14t-14 6h-90q-8 0 -14 -6t-6 -14v-310q0 -23 -20.5 -39t-54.5 -16q-35 0 -55 16.5t-20 42.5v306q0 8 -6 14t-14 6h-90q-8 0 -14 -6t-6 -14v-305q0 -78 55.5 -132t134.5 -54q34 0 64 15.5t41 15.5z
M310 730h107q14 0 17.5 -9t-5.5 -18l-115 -121q-12 -12 -30 -12h-69q-11 0 -16 9t3 21l82 114q11 16 26 16z" />
    <glyph glyph-name="ucircumflex" unicode="&#xfb;" 
d="M365 20q-11 0 -41 -15.5t-64 -15.5q-79 0 -134.5 54t-55.5 132v305q0 8 6 14t14 6h90q8 0 14 -6t6 -14v-306q0 -26 20 -42.5t55 -16.5q34 0 54.5 16t20.5 39v310q0 8 6 14t14 6h90q8 0 14 -6t6 -14v-460q0 -8 -6 -14t-14 -6h-50q-13 0 -23 10q-12 10 -22 10zM267 630
l-35 -44q-11 -16 -31 -16h-95q-8 0 -11.5 5t-3 11t3.5 9l119 123q12 12 30 12h62q17 0 29 -12l119 -123q6 -5 2.5 -15t-15.5 -10h-94q-20 0 -31 16l-35 44q-7 10 -14 0z" />
    <glyph glyph-name="udieresis" unicode="&#xfc;" 
d="M365 20q10 0 22 -10q10 -10 23 -10h50q8 0 14 6t6 14v460q0 8 -6 14t-14 6h-90q-8 0 -14 -6t-6 -14v-310q0 -23 -20.5 -39t-54.5 -16q-35 0 -55 16.5t-20 42.5v306q0 8 -6 14t-14 6h-90q-8 0 -14 -6t-6 -14v-305q0 -78 55.5 -132t134.5 -54q34 0 64 15.5t41 15.5z
M240 690v-90q0 -8 -6 -14t-14 -6h-90q-8 0 -14 6t-6 14v90q0 8 6 14t14 6h90q8 0 14 -6t6 -14zM440 690v-90q0 -8 -6 -14t-14 -6h-90q-8 0 -14 6t-6 14v90q0 8 6 14t14 6h90q8 0 14 -6t6 -14z" />
    <glyph glyph-name="yacute" unicode="&#xfd;" 
d="M273 201l-88 284q-5 15 -19 15h-103q-11 0 -16.5 -7.5t-2.5 -15.5l166 -445q4 -10 0 -22l-70 -187q-3 -8 2.5 -15.5t16.5 -7.5h92q14 0 19 15l235 662q3 8 -2.5 15.5t-16.5 7.5h-101q-15 0 -19 -15l-81 -284q-1 -6 -5.5 -6t-6.5 6zM310 730h107q14 0 17.5 -9t-5.5 -18
l-115 -121q-12 -12 -30 -12h-69q-11 0 -16 9t3 21l82 114q11 16 26 16z" />
    <glyph glyph-name="thorn" unicode="&#xfe;" 
d="M274 385q-71 0 -76 -60q-6 -75 0 -150q5 -60 76 -60q34 0 53.5 17t21.5 43q6 75 0 150q-2 26 -21.5 43t-53.5 17zM69 -180v870q0 8 6 14t14 6h90q8 0 14 -6t6 -14v-166q0 -16 9 -21t21 0q28 12 60 12q77 0 130.5 -55t59.5 -135q6 -75 0 -150q-6 -80 -59.5 -135
t-130.5 -55q-32 0 -60 12q-12 5 -21 0t-9 -21v-156q0 -8 -6 -14t-14 -6h-90q-8 0 -14 6t-6 14z" />
    <glyph glyph-name="ydieresis" unicode="&#xff;" 
d="M273 201l-88 284q-5 15 -19 15h-103q-11 0 -16.5 -7.5t-2.5 -15.5l166 -445q4 -10 0 -22l-70 -187q-3 -8 2.5 -15.5t16.5 -7.5h92q14 0 19 15l235 662q3 8 -2.5 15.5t-16.5 7.5h-101q-15 0 -19 -15l-81 -284q-1 -6 -5.5 -6t-6.5 6zM240 690v-90q0 -8 -6 -14t-14 -6h-90
q-8 0 -14 6t-6 14v90q0 8 6 14t14 6h90q8 0 14 -6t6 -14zM440 690v-90q0 -8 -6 -14t-14 -6h-90q-8 0 -14 6t-6 14v90q0 8 6 14t14 6h90q8 0 14 -6t6 -14z" />
    <glyph glyph-name="Amacron" unicode="&#x100;" 
d="M182 118l-28 -103q-3 -15 -19 -15h-105q-11 0 -16.5 6t-3.5 14l179 665q3 15 19 15h134q16 0 19 -15l178 -665q2 -8 -3.5 -14t-16.5 -6h-105q-14 0 -19 15l-31 103q-4 15 -15 15h-152q-12 0 -15 -15zM268 524l-48 -240q-3 -11 8 -11h92q11 0 8 11l-48 240q-1 4 -5 4h-2
q-4 0 -5 -4zM406 760h-262q-8 0 -14 6t-6 14v58q0 8 6 14t14 6h262q8 0 14 -6t6 -14v-58q0 -8 -6 -14t-14 -6z" />
    <glyph glyph-name="amacron" unicode="&#x101;" 
d="M348 204h-106q-28 0 -39.5 -16.5t-11.5 -33.5q0 -26 18.5 -39.5t47.5 -13.5q101 0 101 69v24q0 10 -10 10zM276 397q-24 0 -46.5 -8.5t-22.5 -29.5q0 -12 -6 -15.5t-21 -3.5h-72q-8 0 -14 6t-6 14q0 62 53 106.5t140 44.5q92 0 146 -47.5t54 -133.5v-310q0 -8 -6 -14
t-14 -6h-50q-8 0 -14 7q-2 2 -4.5 8t-6 9t-9.5 3t-21 -9.5t-41 -19t-58 -9.5q-88 0 -138 43.5t-50 121.5q0 58 46 107t126 49h102q10 0 10 10v16q0 30 -21.5 45.5t-55.5 15.5zM416 596h-262q-8 0 -14 6t-6 14v58q0 8 6 14t14 6h262q8 0 14 -6t6 -14v-58q0 -8 -6 -14t-14 -6z
" />
    <glyph glyph-name="Abreve" unicode="&#x102;" 
d="M182 118l-28 -103q-3 -15 -19 -15h-105q-11 0 -16.5 6t-3.5 14l179 665q3 15 19 15h134q16 0 19 -15l178 -665q2 -8 -3.5 -14t-16.5 -6h-105q-14 0 -19 15l-31 103q-4 15 -15 15h-152q-12 0 -15 -15zM268 524l-48 -240q-3 -11 8 -11h92q11 0 8 11l-48 240q-1 4 -5 4h-2
q-4 0 -5 -4zM335 886q0 7 5 12t12 5h63q7 0 12 -5t5 -12q0 -60 -44 -103t-113 -43q-70 0 -114 43t-44 103q0 7 5 12t12 5h63q7 0 12 -5t5 -12q0 -23 18.5 -39.5t42.5 -16.5t42 16.5t18 39.5z" />
    <glyph glyph-name="abreve" unicode="&#x103;" 
d="M348 204h-106q-28 0 -39.5 -16.5t-11.5 -33.5q0 -26 18.5 -39.5t47.5 -13.5q101 0 101 69v24q0 10 -10 10zM276 397q-24 0 -46.5 -8.5t-22.5 -29.5q0 -12 -6 -15.5t-21 -3.5h-72q-8 0 -14 6t-6 14q0 62 53 106.5t140 44.5q92 0 146 -47.5t54 -133.5v-310q0 -8 -6 -14
t-14 -6h-50q-8 0 -14 7q-2 2 -4.5 8t-6 9t-9.5 3t-21 -9.5t-41 -19t-58 -9.5q-88 0 -138 43.5t-50 121.5q0 58 46 107t126 49h102q10 0 10 10v16q0 30 -21.5 45.5t-55.5 15.5zM345 713q0 7 5 12t12 5h63q7 0 12 -5t5 -12q0 -60 -44 -103t-113 -43q-70 0 -114 43t-44 103
q0 7 5 12t12 5h63q7 0 12 -5t5 -12q0 -23 18.5 -39.5t42.5 -16.5t42 16.5t18 39.5z" />
    <glyph glyph-name="Aogonek" unicode="&#x104;" 
d="M539 20q2 -8 -3.5 -14t-16.5 -6q-25 0 -42 -18.5t-17 -42.5q0 -26 16.5 -42.5t44.5 -16.5q8 0 14 -6t6 -14v-60q0 -8 -6 -14t-14 -6q-88 0 -133.5 42t-45.5 113q0 49 47 98l-25 85q-4 15 -15 15h-152q-12 0 -15 -15l-28 -103q-3 -15 -19 -15h-105q-11 0 -16.5 6t-3.5 14
l179 665q3 15 19 15h134q16 0 19 -15zM328 284l-48 240q-1 4 -5 4h-2q-4 0 -5 -4l-48 -240q-3 -11 8 -11h92q11 0 8 11z" />
    <glyph glyph-name="aogonek" unicode="&#x105;" 
d="M275 397q-69 0 -69 -38q0 -12 -6 -15.5t-21 -3.5h-72q-8 0 -14 6t-6 14q0 62 53 106.5t140 44.5q92 0 146 -47.5t54 -133.5v-310q0 -8 -6 -14t-14 -6q-60 0 -60 -60q0 -25 15 -42.5t35 -17.5q8 0 14 -6t6 -14v-60q0 -8 -6 -14t-14 -6q-73 0 -118.5 39.5t-45.5 110.5
q0 39 20 64q-22 -5 -50 -5q-88 0 -138 43.5t-50 121.5q0 58 46 107t126 49h102q10 0 10 10v16q0 30 -21.5 45.5t-55.5 15.5zM347 204h-106q-28 0 -39.5 -16.5t-11.5 -33.5q0 -26 18.5 -39.5t47.5 -13.5q101 0 101 69v24q0 10 -10 10z" />
    <glyph glyph-name="Cacute" unicode="&#x106;" 
d="M279 130q-44 0 -68.5 22.5t-28.5 57.5q-17 140 0 280q4 35 28.5 57.5t68.5 22.5q42 0 68.5 -24t29.5 -64q2 -20 20 -20h100q8 0 14 6t6 14q0 100 -67 164.5t-171 64.5q-100 0 -163.5 -63.5t-74.5 -157.5q-17 -140 0 -280q11 -94 74.5 -157.5t163.5 -63.5q104 0 171 64.5
t67 164.5q0 8 -6 14t-14 6h-100q-18 0 -20 -20q-3 -40 -29.5 -64t-68.5 -24zM350 910h107q14 0 17.5 -9t-5.5 -18l-115 -121q-12 -12 -30 -12h-69q-11 0 -16 9t3 21l82 114q11 16 26 16z" />
    <glyph glyph-name="cacute" unicode="&#x107;" 
d="M279 119q-72 0 -78 56q-9 75 0 150q7 56 77 56q76 0 80 -70q1 -16 19 -16h89q17 0 17 20q0 90 -59 143t-145 53q-89 0 -143.5 -52t-64.5 -134q-9 -75 0 -150q10 -82 64.5 -134t143.5 -52q86 0 145 53.5t59 142.5q0 20 -17 20h-89q-16 0 -19 -16q-6 -39 -25 -54.5
t-54 -15.5zM310 730h107q14 0 17.5 -9t-5.5 -18l-115 -121q-12 -12 -30 -12h-69q-11 0 -16 9t3 21l82 114q11 16 26 16z" />
    <glyph glyph-name="Ccircumflex" unicode="&#x108;" 
d="M279 130q42 0 68.5 24t29.5 64q2 20 20 20h100q8 0 14 -6t6 -14q0 -100 -67 -164.5t-171 -64.5q-100 0 -163.5 63.5t-74.5 157.5q-17 140 0 280q11 94 74.5 157.5t163.5 63.5q104 0 171 -64.5t67 -164.5q0 -8 -6 -14t-14 -6h-100q-18 0 -20 20q-3 40 -29.5 64t-68.5 24
q-44 0 -68.5 -22.5t-28.5 -57.5q-17 -140 0 -280q4 -35 28.5 -57.5t68.5 -22.5zM280 810l-35 -44q-11 -16 -31 -16h-95q-8 0 -11.5 5t-3 11t3.5 9l119 123q12 12 30 12h62q17 0 29 -12l119 -123q6 -5 2.5 -15t-15.5 -10h-94q-20 0 -31 16l-35 44q-7 10 -14 0z" />
    <glyph glyph-name="ccircumflex" unicode="&#x109;" 
d="M279 119q35 0 54 15.5t25 54.5q3 16 19 16h89q17 0 17 -20q0 -89 -59 -142.5t-145 -53.5q-89 0 -143.5 52t-64.5 134q-9 75 0 150q10 82 64.5 134t143.5 52q86 0 145 -53t59 -143q0 -20 -17 -20h-89q-18 0 -19 16q-4 70 -80 70q-70 0 -77 -56q-9 -75 0 -150q6 -56 78 -56
zM277 630l-35 -44q-11 -16 -31 -16h-95q-8 0 -11.5 5t-3 11t3.5 9l119 123q12 12 30 12h62q17 0 29 -12l119 -123q6 -5 2.5 -15t-15.5 -10h-94q-20 0 -31 16l-35 44q-7 10 -14 0z" />
    <glyph glyph-name="Cdotaccent" unicode="&#x10a;" 
d="M279 130q-44 0 -68.5 22.5t-28.5 57.5q-17 140 0 280q4 35 28.5 57.5t68.5 22.5q42 0 68.5 -24t29.5 -64q2 -20 20 -20h100q8 0 14 6t6 14q0 100 -67 164.5t-171 64.5q-100 0 -163.5 -63.5t-74.5 -157.5q-17 -140 0 -280q11 -94 74.5 -157.5t163.5 -63.5q104 0 171 64.5
t67 164.5q0 8 -6 14t-14 6h-100q-18 0 -20 -20q-3 -40 -29.5 -64t-68.5 -24zM355 874v-108q0 -16 -16 -16h-108q-16 0 -16 16v108q0 6 4.5 11t11.5 5h108q7 0 11.5 -5t4.5 -11z" />
    <glyph glyph-name="cdotaccent" unicode="&#x10b;" 
d="M279 119q-72 0 -78 56q-9 75 0 150q7 56 77 56q76 0 80 -70q1 -16 19 -16h89q17 0 17 20q0 90 -59 143t-145 53q-89 0 -143.5 -52t-64.5 -134q-9 -75 0 -150q10 -82 64.5 -134t143.5 -52q86 0 145 53.5t59 142.5q0 20 -17 20h-89q-16 0 -19 -16q-6 -39 -25 -54.5
t-54 -15.5zM350 694v-108q0 -16 -16 -16h-108q-16 0 -16 16v108q0 6 4.5 11t11.5 5h108q7 0 11.5 -5t4.5 -11z" />
    <glyph glyph-name="Ccaron" unicode="&#x10c;" 
d="M279 130q-44 0 -68.5 22.5t-28.5 57.5q-17 140 0 280q4 35 28.5 57.5t68.5 22.5q42 0 68.5 -24t29.5 -64q2 -20 20 -20h100q8 0 14 6t6 14q0 100 -67 164.5t-171 64.5q-100 0 -163.5 -63.5t-74.5 -157.5q-17 -140 0 -280q11 -94 74.5 -157.5t163.5 -63.5q104 0 171 64.5
t67 164.5q0 8 -6 14t-14 6h-100q-18 0 -20 -20q-3 -40 -29.5 -64t-68.5 -24zM232 894l35 -44q7 -10 14 0l35 44q11 16 31 16h94q12 0 15.5 -10t-2.5 -15l-119 -123q-12 -12 -29 -12h-62q-18 0 -30 12l-119 123q-3 3 -3.5 9t3 11t11.5 5h95q20 0 31 -16z" />
    <glyph glyph-name="ccaron" unicode="&#x10d;" 
d="M279 119q-72 0 -78 56q-9 75 0 150q7 56 77 56q76 0 80 -70q1 -16 19 -16h89q17 0 17 20q0 90 -59 143t-145 53q-89 0 -143.5 -52t-64.5 -134q-9 -75 0 -150q10 -82 64.5 -134t143.5 -52q86 0 145 53.5t59 142.5q0 20 -17 20h-89q-16 0 -19 -16q-6 -39 -25 -54.5
t-54 -15.5zM242 714l35 -44q7 -10 14 0l35 44q11 16 31 16h94q12 0 15.5 -10t-2.5 -15l-119 -123q-12 -12 -29 -12h-62q-18 0 -30 12l-119 123q-3 3 -3.5 9t3 11t11.5 5h95q20 0 31 -16z" />
    <glyph glyph-name="Dcaron" unicode="&#x10e;" 
d="M64 0h210q90 0 151 64t72 157q15 129 0 258q-11 93 -72 157t-151 64h-210q-8 0 -14 -6t-6 -14v-660q0 -8 6 -14t14 -6zM274 140h-80q-10 0 -10 10v400q0 10 10 10h80q33 0 55.5 -23.5t26.5 -57.5q15 -129 0 -258q-4 -34 -26.5 -57.5t-55.5 -23.5zM202 894l35 -44
q7 -10 14 0l35 44q11 16 31 16h94q12 0 15.5 -10t-2.5 -15l-119 -123q-12 -12 -29 -12h-62q-18 0 -30 12l-119 123q-3 3 -3.5 9t3 11t11.5 5h95q20 0 31 -16z" />
    <glyph glyph-name="dcaron" unicode="&#x10f;" 
d="M256 115q71 0 76 60q6 75 0 150q-5 60 -76 60q-34 0 -53.5 -17t-21.5 -43q-6 -75 0 -150q2 -26 21.5 -43t53.5 -17zM241 -11q-78 0 -131 53t-59 133q-6 75 0 150q6 80 59 133t131 53q32 0 60 -12q12 -5 21 0t9 21v170q0 8 6 14t14 6h90q8 0 14 -6t6 -14v-670q0 -8 -6 -14
t-14 -6h-50q-7 0 -14 7q-14 16 -25 16q-9 0 -38.5 -17t-72.5 -17zM538 560h-24q-8 0 -14 6t-6 14v100q0 8 6 14t14 6h100q8 0 14 -6t6 -14v-97q0 -36 -22 -69l-34 -54q-13 -20 -34 -20h-10q-15 0 -21.5 12t0.5 26l34 69q3 5 -0.5 9t-8.5 4z" />
    <glyph glyph-name="Dcroat" unicode="&#x110;" 
d="M44 430v250q0 8 6 14t14 6h210q90 0 151 -64t72 -157q15 -129 0 -258q-11 -93 -72 -157t-151 -64h-210q-8 0 -14 6t-6 14v250q0 10 -10 10h-7q-8 0 -14 6t-6 14v100q0 8 6 14t14 6h7q10 0 10 10zM184 270v-120q0 -10 10 -10h80q33 0 55.5 23.5t26.5 57.5q15 129 0 258
q-4 34 -26.5 57.5t-55.5 23.5h-80q-10 0 -10 -10v-120q0 -10 10 -10h80q8 0 14 -6t6 -14v-100q0 -8 -6 -14t-14 -6h-80q-10 0 -10 -10z" />
    <glyph glyph-name="dcroat" unicode="&#x111;" 
d="M267 115q71 0 76 60q6 75 0 150q-5 60 -76 60q-34 0 -53.5 -17t-21.5 -43q-6 -75 0 -150q2 -26 21.5 -43t53.5 -17zM342 520v27q0 10 -10 10h-60q-8 0 -14 6t-6 14v50q0 8 6 14t14 6h60q10 0 10 10v33q0 8 6 14t14 6h90q8 0 14 -6t6 -14v-33q0 -10 10 -10h25q8 0 14 -6
t6 -14v-50q0 -8 -6 -14t-14 -6h-25q-10 0 -10 -10v-527q0 -8 -6 -14t-14 -6h-50q-7 0 -14 7q-14 16 -25 16q-9 0 -38.5 -17t-72.5 -17q-78 0 -131 53t-59 133q-6 75 0 150q6 80 59 133t131 53q32 0 60 -12q12 -5 21 0t9 21z" />
    <glyph glyph-name="Emacron" unicode="&#x112;" 
d="M211 430v120q0 10 10 10h233q8 0 14 6t6 14v100q0 8 -6 14t-14 6h-363q-8 0 -14 -6t-6 -14v-660q0 -8 6 -14t14 -6h367q8 0 14 6t6 14v100q0 8 -6 14t-14 6h-237q-10 0 -10 10v120q0 10 10 10h225q8 0 14 6t6 14v100q0 8 -6 14t-14 6h-225q-10 0 -10 10zM406 760h-262
q-8 0 -14 6t-6 14v58q0 8 6 14t14 6h262q8 0 14 -6t6 -14v-58q0 -8 -6 -14t-14 -6z" />
    <glyph glyph-name="emacron" unicode="&#x113;" 
d="M190 195q0 15 15 15h257q8 0 14 6t6 14v83q0 93 -56 145.5t-148 52.5q-88 0 -142.5 -52t-64.5 -134q-9 -75 0 -150q10 -82 64.5 -134t142.5 -52q81 0 132.5 42.5t69.5 115.5q3 11 -2.5 16.5t-14.5 5.5h-83q-16 0 -23 -17q-17 -42 -79 -42q-38 0 -63 22.5t-25 62.5z
M191 330q0 29 22.5 46t64.5 17q35 0 60 -16.5t25 -46.5q0 -9 -10 -9h-152q-10 0 -10 9zM416 596h-262q-8 0 -14 6t-6 14v58q0 8 6 14t14 6h262q8 0 14 -6t6 -14v-58q0 -8 -6 -14t-14 -6z" />
    <glyph glyph-name="Ebreve" unicode="&#x114;" 
d="M211 430v120q0 10 10 10h233q8 0 14 6t6 14v100q0 8 -6 14t-14 6h-363q-8 0 -14 -6t-6 -14v-660q0 -8 6 -14t14 -6h367q8 0 14 6t6 14v100q0 8 -6 14t-14 6h-237q-10 0 -10 10v120q0 10 10 10h225q8 0 14 6t6 14v100q0 8 -6 14t-14 6h-225q-10 0 -10 10zM335 886
q0 7 5 12t12 5h63q7 0 12 -5t5 -12q0 -60 -44 -103t-113 -43q-70 0 -114 43t-44 103q0 7 5 12t12 5h63q7 0 12 -5t5 -12q0 -23 18.5 -39.5t42.5 -16.5t42 16.5t18 39.5z" />
    <glyph glyph-name="ebreve" unicode="&#x115;" 
d="M190 195q0 15 15 15h257q8 0 14 6t6 14v83q0 93 -56 145.5t-148 52.5q-88 0 -142.5 -52t-64.5 -134q-9 -75 0 -150q10 -82 64.5 -134t142.5 -52q81 0 132.5 42.5t69.5 115.5q3 11 -2.5 16.5t-14.5 5.5h-83q-16 0 -23 -17q-17 -42 -79 -42q-38 0 -63 22.5t-25 62.5z
M191 330q0 29 22.5 46t64.5 17q35 0 60 -16.5t25 -46.5q0 -9 -10 -9h-152q-10 0 -10 9zM345 713q0 7 5 12t12 5h63q7 0 12 -5t5 -12q0 -60 -44 -103t-113 -43q-70 0 -114 43t-44 103q0 7 5 12t12 5h63q7 0 12 -5t5 -12q0 -23 18.5 -39.5t42.5 -16.5t42 16.5t18 39.5z" />
    <glyph glyph-name="Edotaccent" unicode="&#x116;" 
d="M211 430v120q0 10 10 10h233q8 0 14 6t6 14v100q0 8 -6 14t-14 6h-363q-8 0 -14 -6t-6 -14v-660q0 -8 6 -14t14 -6h367q8 0 14 6t6 14v100q0 8 -6 14t-14 6h-237q-10 0 -10 10v120q0 10 10 10h225q8 0 14 6t6 14v100q0 8 -6 14t-14 6h-225q-10 0 -10 10zM355 874v-108
q0 -16 -16 -16h-108q-16 0 -16 16v108q0 6 4.5 11t11.5 5h108q7 0 11.5 -5t4.5 -11z" />
    <glyph glyph-name="edotaccent" unicode="&#x117;" 
d="M190 195q0 15 15 15h257q8 0 14 6t6 14v83q0 93 -56 145.5t-148 52.5q-88 0 -142.5 -52t-64.5 -134q-9 -75 0 -150q10 -82 64.5 -134t142.5 -52q81 0 132.5 42.5t69.5 115.5q3 11 -2.5 16.5t-14.5 5.5h-83q-16 0 -23 -17q-17 -42 -79 -42q-38 0 -63 22.5t-25 62.5z
M191 330q0 29 22.5 46t64.5 17q35 0 60 -16.5t25 -46.5q0 -9 -10 -9h-152q-10 0 -10 9zM355 694v-108q0 -16 -16 -16h-108q-16 0 -16 16v108q0 6 4.5 11t11.5 5h108q7 0 11.5 -5t4.5 -11z" />
    <glyph glyph-name="Eogonek" unicode="&#x118;" 
d="M211 430q0 -10 10 -10h225q8 0 14 -6t6 -14v-100q0 -8 -6 -14t-14 -6h-225q-10 0 -10 -10v-120q0 -10 10 -10h237q8 0 14 -6t6 -14v-100q0 -8 -6 -14t-14 -6q-27 0 -46 -16.5t-19 -43.5q0 -25 17.5 -42.5t42.5 -17.5q8 0 14 -6t6 -14v-60q0 -8 -6 -14t-14 -6
q-79 0 -126.5 40.5t-47.5 119.5q0 36 17 60h-205q-8 0 -14 6t-6 14v660q0 8 6 14t14 6h363q8 0 14 -6t6 -14v-100q0 -8 -6 -14t-14 -6h-233q-10 0 -10 -10v-120z" />
    <glyph glyph-name="eogonek" unicode="&#x119;" 
d="M447 72q-4 -5 -16 -21t-18 -24.5t-14 -23.5t-11.5 -30.5t-3.5 -32.5q0 -25 17.5 -42.5t42.5 -17.5q8 0 14 -6t6 -14v-60q0 -8 -6 -14t-14 -6q-77 0 -125.5 40.5t-48.5 114.5q0 30 13 54h-5q-88 0 -142.5 52t-64.5 134q-9 75 0 150q10 82 64.5 134t142.5 52
q92 0 148 -52.5t56 -145.5v-83q0 -8 -6 -14t-14 -6h-257q-15 0 -15 -15q0 -40 25 -62.5t63 -22.5q62 0 79 42q7 17 23 17h83q9 0 14.5 -5.5t2.5 -16.5q-11 -44 -33 -75zM191 330q0 -9 10 -9h152q10 0 10 9q0 30 -25 46.5t-60 16.5q-42 0 -64.5 -17t-22.5 -46z" />
    <glyph glyph-name="Ecaron" unicode="&#x11a;" 
d="M211 430v120q0 10 10 10h233q8 0 14 6t6 14v100q0 8 -6 14t-14 6h-363q-8 0 -14 -6t-6 -14v-660q0 -8 6 -14t14 -6h367q8 0 14 6t6 14v100q0 8 -6 14t-14 6h-237q-10 0 -10 10v120q0 10 10 10h225q8 0 14 6t6 14v100q0 8 -6 14t-14 6h-225q-10 0 -10 10zM232 894l35 -44
q7 -10 14 0l35 44q11 16 31 16h94q12 0 15.5 -10t-2.5 -15l-119 -123q-12 -12 -29 -12h-62q-18 0 -30 12l-119 123q-3 3 -3.5 9t3 11t11.5 5h95q20 0 31 -16z" />
    <glyph glyph-name="ecaron" unicode="&#x11b;" 
d="M190 195q0 15 15 15h257q8 0 14 6t6 14v83q0 93 -56 145.5t-148 52.5q-88 0 -142.5 -52t-64.5 -134q-9 -75 0 -150q10 -82 64.5 -134t142.5 -52q81 0 132.5 42.5t69.5 115.5q3 11 -2.5 16.5t-14.5 5.5h-83q-16 0 -23 -17q-17 -42 -79 -42q-38 0 -63 22.5t-25 62.5z
M191 330q0 29 22.5 46t64.5 17q35 0 60 -16.5t25 -46.5q0 -9 -10 -9h-152q-10 0 -10 9zM242 714l35 -44q7 -10 14 0l35 44q11 16 31 16h94q12 0 15.5 -10t-2.5 -15l-119 -123q-12 -12 -29 -12h-62q-18 0 -30 12l-119 123q-3 3 -3.5 9t3 11t11.5 5h95q20 0 31 -16z" />
    <glyph glyph-name="Gcircumflex" unicode="&#x11c;" 
d="M377 482q-3 40 -29.5 64t-68.5 24q-44 0 -68.5 -22.5t-28.5 -57.5q-17 -140 0 -280q4 -35 28.5 -57.5t68.5 -22.5q45 0 73 22t28 56v43q0 10 -10 10h-68q-8 0 -14 6t-6 14v95q0 8 6 14t14 6h195q8 0 14 -6t6 -14v-168q0 -91 -68 -155t-170 -64q-100 0 -163.5 63.5
t-74.5 157.5q-17 140 0 280q11 94 74.5 157.5t163.5 63.5q104 0 171 -64.5t67 -164.5q0 -8 -6 -14t-14 -6h-100q-18 0 -20 20zM280 810l-35 -44q-11 -16 -31 -16h-95q-8 0 -11.5 5t-3 11t3.5 9l119 123q12 12 30 12h62q17 0 29 -12l119 -123q6 -5 2.5 -15t-15.5 -10h-94
q-20 0 -31 16l-35 44q-7 10 -14 0z" />
    <glyph glyph-name="gcircumflex" unicode="&#x11d;" 
d="M411 500h50q8 0 14 -6t6 -14v-510q0 -77 -56.5 -131t-140.5 -54q-81 0 -139 47t-58 118q0 8 6 14t14 6h75q4 0 7.5 -0.5t6 -1t4.5 -2t3 -2.5t2 -3.5t1 -3.5t1 -5t1 -5q4 -19 22.5 -31t47.5 -12q30 0 51.5 17.5t21.5 48.5v10q0 32 -30 21q-34 -12 -60 -12q-78 0 -131 53
t-59 133q-6 75 0 150q6 80 59 133t131 53q43 0 72.5 -17t38.5 -17q11 0 25 16q7 7 14 7zM276 385q-34 0 -53.5 -17t-21.5 -43q-6 -75 0 -150q2 -26 21.5 -43t53.5 -17q71 0 76 60q6 75 0 150q-5 60 -76 60zM277 630l-35 -44q-11 -16 -31 -16h-95q-8 0 -11.5 5t-3 11t3.5 9
l119 123q12 12 30 12h62q17 0 29 -12l119 -123q6 -5 2.5 -15t-15.5 -10h-94q-20 0 -31 16l-35 44q-7 10 -14 0z" />
    <glyph glyph-name="Gbreve" unicode="&#x11e;" 
d="M377 482q-3 40 -29.5 64t-68.5 24q-44 0 -68.5 -22.5t-28.5 -57.5q-17 -140 0 -280q4 -35 28.5 -57.5t68.5 -22.5q45 0 73 22t28 56v43q0 10 -10 10h-68q-8 0 -14 6t-6 14v95q0 8 6 14t14 6h195q8 0 14 -6t6 -14v-168q0 -91 -68 -155t-170 -64q-100 0 -163.5 63.5
t-74.5 157.5q-17 140 0 280q11 94 74.5 157.5t163.5 63.5q104 0 171 -64.5t67 -164.5q0 -8 -6 -14t-14 -6h-100q-18 0 -20 20zM335 886q0 7 5 12t12 5h63q7 0 12 -5t5 -12q0 -60 -44 -103t-113 -43q-70 0 -114 43t-44 103q0 7 5 12t12 5h63q7 0 12 -5t5 -12
q0 -23 18.5 -39.5t42.5 -16.5t42 16.5t18 39.5z" />
    <glyph glyph-name="gbreve" unicode="&#x11f;" 
d="M461 500h-50q-7 0 -14 -7q-14 -16 -25 -16q-9 0 -38.5 17t-72.5 17q-78 0 -131 -53t-59 -133q-6 -75 0 -150q6 -80 59 -133t131 -53q26 0 60 12q30 11 30 -21v-10q0 -31 -21.5 -48.5t-51.5 -17.5q-29 0 -47.5 12t-22.5 31q0 1 -1 5.5t-1.5 5t-1.5 4t-2.5 4t-4 2t-6.5 2
t-9 0.5h-75q-8 0 -14 -6t-6 -14q0 -71 58 -118t139 -47q84 0 140.5 54t56.5 131v510q0 8 -6 14t-14 6zM276 385q71 0 76 -60q6 -75 0 -150q-5 -60 -76 -60q-34 0 -53.5 17t-21.5 43q-6 75 0 150q2 26 21.5 43t53.5 17zM345 713q0 7 5 12t12 5h63q7 0 12 -5t5 -12
q0 -60 -44 -103t-113 -43q-70 0 -114 43t-44 103q0 7 5 12t12 5h63q7 0 12 -5t5 -12q0 -23 18.5 -39.5t42.5 -16.5t42 16.5t18 39.5z" />
    <glyph glyph-name="Gdotaccent" unicode="&#x120;" 
d="M377 482q-3 40 -29.5 64t-68.5 24q-44 0 -68.5 -22.5t-28.5 -57.5q-17 -140 0 -280q4 -35 28.5 -57.5t68.5 -22.5q45 0 73 22t28 56v43q0 10 -10 10h-68q-8 0 -14 6t-6 14v95q0 8 6 14t14 6h195q8 0 14 -6t6 -14v-168q0 -91 -68 -155t-170 -64q-100 0 -163.5 63.5
t-74.5 157.5q-17 140 0 280q11 94 74.5 157.5t163.5 63.5q104 0 171 -64.5t67 -164.5q0 -8 -6 -14t-14 -6h-100q-18 0 -20 20zM355 874v-108q0 -16 -16 -16h-108q-16 0 -16 16v108q0 6 4.5 11t11.5 5h108q7 0 11.5 -5t4.5 -11z" />
    <glyph glyph-name="gdotaccent" unicode="&#x121;" 
d="M461 500h-50q-7 0 -14 -7q-14 -16 -25 -16q-9 0 -38.5 17t-72.5 17q-78 0 -131 -53t-59 -133q-6 -75 0 -150q6 -80 59 -133t131 -53q26 0 60 12q30 11 30 -21v-10q0 -31 -21.5 -48.5t-51.5 -17.5q-29 0 -47.5 12t-22.5 31q0 1 -1 5.5t-1.5 5t-1.5 4t-2.5 4t-4 2t-6.5 2
t-9 0.5h-75q-8 0 -14 -6t-6 -14q0 -71 58 -118t139 -47q84 0 140.5 54t56.5 131v510q0 8 -6 14t-14 6zM276 385q71 0 76 -60q6 -75 0 -150q-5 -60 -76 -60q-34 0 -53.5 17t-21.5 43q-6 75 0 150q2 26 21.5 43t53.5 17zM355 694v-108q0 -16 -16 -16h-108q-16 0 -16 16v108
q0 6 4.5 11t11.5 5h108q7 0 11.5 -5t4.5 -11z" />
    <glyph glyph-name="Gcommaaccent" unicode="&#x122;" 
d="M377 482q-3 40 -29.5 64t-68.5 24q-44 0 -68.5 -22.5t-28.5 -57.5q-17 -140 0 -280q4 -35 28.5 -57.5t68.5 -22.5q45 0 73 22t28 56v43q0 10 -10 10h-68q-8 0 -14 6t-6 14v95q0 8 6 14t14 6h195q8 0 14 -6t6 -14v-168q0 -91 -68 -155t-170 -64q-100 0 -163.5 63.5
t-74.5 157.5q-17 140 0 280q11 94 74.5 157.5t163.5 63.5q104 0 171 -64.5t67 -164.5q0 -8 -6 -14t-14 -6h-100q-18 0 -20 20zM249 -185h-24q-8 0 -14 6t-6 14v100q0 8 6 14t14 6h100q8 0 14 -6t6 -14v-97q0 -36 -22 -69l-34 -54q-13 -20 -34 -20h-10q-15 0 -21.5 12.5
t0.5 25.5l34 69q3 5 -0.5 9t-8.5 4z" />
    <glyph glyph-name="gcommaaccent" unicode="&#x123;" 
d="M461 500h-50q-7 0 -14 -7q-14 -16 -25 -16q-9 0 -38.5 17t-72.5 17q-78 0 -131 -53t-59 -133q-6 -75 0 -150q6 -80 59 -133t131 -53q26 0 60 12q30 11 30 -21v-10q0 -31 -21.5 -48.5t-51.5 -17.5q-29 0 -47.5 12t-22.5 31q0 1 -1 5.5t-1.5 5t-1.5 4t-2.5 4t-4 2t-6.5 2
t-9 0.5h-75q-8 0 -14 -6t-6 -14q0 -71 58 -118t139 -47q84 0 140.5 54t56.5 131v510q0 8 -6 14t-14 6zM276 385q71 0 76 -60q6 -75 0 -150q-5 -60 -76 -60q-34 0 -53.5 17t-21.5 43q-6 75 0 150q2 26 21.5 43t53.5 17zM312 716h24q8 0 14 -6t6 -14v-100q0 -8 -6 -14t-14 -6
h-100q-8 0 -14 6t-6 14v97q0 36 22 69l34 54q13 20 34 20h10q15 0 21.5 -12t-0.5 -26l-34 -69q-3 -5 0.5 -9t8.5 -4z" />
    <glyph glyph-name="Hcircumflex" unicode="&#x124;" 
d="M189 680v-250q0 -10 10 -10h152q10 0 10 10v250q0 8 6 14t14 6h100q8 0 14 -6t6 -14v-660q0 -8 -6 -14t-14 -6h-100q-8 0 -14 6t-6 14v250q0 10 -10 10h-152q-10 0 -10 -10v-250q0 -8 -8 -14t-17 -6h-95q-8 0 -14 6t-6 14v660q0 8 6 14t14 6h100q8 0 14 -6t6 -14z
M270 810l-35 -44q-11 -16 -31 -16h-95q-8 0 -11.5 5t-3 11t3.5 9l119 123q12 12 30 12h62q17 0 29 -12l119 -123q6 -5 2.5 -15t-15.5 -10h-94q-20 0 -31 16l-35 44q-7 10 -14 0z" />
    <glyph glyph-name="hcircumflex" unicode="&#x125;" 
d="M185 0h-90q-8 0 -14 6t-6 14v670q0 8 6 14t14 6h90q8 0 14 -6t6 -14v-170q0 -13 8 -19.5t22 -1.5q34 12 60 12q79 0 134.5 -54t55.5 -132v-305q0 -8 -6 -14t-14 -6h-90q-8 0 -14 6t-6 14v305q0 26 -20 43t-55 17t-55 -17t-20 -43v-305q0 -8 -6 -14t-14 -6zM260 810
l-35 -44q-11 -16 -31 -16h-95q-8 0 -11.5 5t-3 11t3.5 9l119 123q12 12 30 12h62q17 0 29 -12l119 -123q6 -5 2.5 -15t-15.5 -10h-94q-20 0 -31 16l-35 44q-7 10 -14 0z" />
    <glyph glyph-name="Hbar" unicode="&#x126;" 
d="M189 680v-60q0 -10 10 -10h152q10 0 10 10v60q0 8 6 14t14 6h100q8 0 14 -6t6 -14v-660q0 -8 -6 -14t-14 -6h-100q-8 0 -14 6t-6 14v250q0 10 -10 10h-152q-10 0 -10 -10v-250q0 -8 -8 -14t-17 -6h-95q-8 0 -14 6t-6 14v660q0 8 6 14t14 6h100q8 0 14 -6t6 -14zM189 490
v-70q0 -10 10 -10h152q10 0 10 10v70q0 10 -10 10h-152q-10 0 -10 -10z" />
    <glyph glyph-name="hbar" unicode="&#x127;" 
d="M206 547v-27q0 -13 8 -19.5t22 -1.5q34 12 60 12q79 0 134.5 -54t55.5 -132v-305q0 -8 -6 -14t-14 -6h-90q-8 0 -14 6t-6 14v305q0 26 -20 43t-55 17t-55 -17t-20 -43v-305q0 -8 -6 -14t-14 -6h-90q-8 0 -14 6t-6 14v527q0 10 -10 10h-25q-8 0 -14 6t-6 14v50q0 8 6 14
t14 6h25q10 0 10 10v33q0 8 6 14t14 6h90q8 0 14 -6t6 -14v-33q0 -10 10 -10h60q8 0 14 -6t6 -14v-50q0 -8 -6 -14t-14 -6h-60q-10 0 -10 -10z" />
    <glyph glyph-name="Itilde" unicode="&#x128;" 
d="M205 145v410q0 10 -10 10h-100q-8 0 -14 6t-6 14v95q0 8 6 14t14 6h360q8 0 14 -6t6 -14v-95q0 -8 -6 -14t-14 -6h-100q-10 0 -10 -10v-410q0 -10 10 -10h110q8 0 14 -6t6 -14v-95q0 -8 -6 -14t-14 -6h-380q-8 0 -14 6t-6 14v95q0 8 6 14t14 6h110q10 0 10 10zM367 864
q29 0 46 21q6 8 15.5 4t9.5 -18v-60q0 -20 -21 -35.5t-50 -15.5q-31 0 -88 12.5t-92 12.5q-28 0 -46 -21q-6 -8 -15.5 -3.5t-9.5 17.5v60q0 20 21 35.5t50 15.5q31 0 88 -12.5t92 -12.5z" />
    <glyph glyph-name="itilde" unicode="&#x129;" 
d="M365 684q29 0 46 21q6 8 15.5 4t9.5 -18v-60q0 -20 -21 -35.5t-50 -15.5q-31 0 -88 12.5t-92 12.5q-28 0 -46 -21q-6 -8 -15.5 -3.5t-9.5 17.5v60q0 20 21 35.5t50 15.5q31 0 88.5 -12.5t91.5 -12.5zM220 373h-100q-8 0 -14 6t-6 14v87q0 8 6 14t14 6h224q7 0 11.5 -5
t4.5 -11v-344q0 -10 10 -10h110q8 0 14 -6t6 -14v-90q0 -8 -6 -14t-14 -6h-370q-8 0 -14 6t-6 14v90q0 8 6 14t14 6h110q10 0 10 10v223q0 10 -10 10z" />
    <glyph glyph-name="Imacron" unicode="&#x12a;" 
d="M205 145v410q0 10 -10 10h-100q-8 0 -14 6t-6 14v95q0 8 6 14t14 6h360q8 0 14 -6t6 -14v-95q0 -8 -6 -14t-14 -6h-100q-10 0 -10 -10v-410q0 -10 10 -10h110q8 0 14 -6t6 -14v-95q0 -8 -6 -14t-14 -6h-380q-8 0 -14 6t-6 14v95q0 8 6 14t14 6h110q10 0 10 10zM406 760
h-262q-8 0 -14 6t-6 14v58q0 8 6 14t14 6h262q8 0 14 -6t6 -14v-58q0 -8 -6 -14t-14 -6z" />
    <glyph glyph-name="imacron" unicode="&#x12b;" 
d="M406 596h-262q-8 0 -14 6t-6 14v58q0 8 6 14t14 6h262q8 0 14 -6t6 -14v-58q0 -8 -6 -14t-14 -6zM220 373h-100q-8 0 -14 6t-6 14v87q0 8 6 14t14 6h224q7 0 11.5 -5t4.5 -11v-344q0 -10 10 -10h110q8 0 14 -6t6 -14v-90q0 -8 -6 -14t-14 -6h-370q-8 0 -14 6t-6 14v90
q0 8 6 14t14 6h110q10 0 10 10v223q0 10 -10 10z" />
    <glyph glyph-name="Ibreve" unicode="&#x12c;" 
d="M205 145v410q0 10 -10 10h-100q-8 0 -14 6t-6 14v95q0 8 6 14t14 6h360q8 0 14 -6t6 -14v-95q0 -8 -6 -14t-14 -6h-100q-10 0 -10 -10v-410q0 -10 10 -10h110q8 0 14 -6t6 -14v-95q0 -8 -6 -14t-14 -6h-380q-8 0 -14 6t-6 14v95q0 8 6 14t14 6h110q10 0 10 10zM335 886
q0 7 5 12t12 5h63q7 0 12 -5t5 -12q0 -60 -44 -103t-113 -43q-70 0 -114 43t-44 103q0 7 5 12t12 5h63q7 0 12 -5t5 -12q0 -23 18.5 -39.5t42.5 -16.5t42 16.5t18 39.5z" />
    <glyph glyph-name="ibreve" unicode="&#x12d;" 
d="M335 713q0 7 5 12t12 5h63q7 0 12 -5t5 -12q0 -60 -44 -103t-113 -43q-70 0 -114 43t-44 103q0 7 5 12t12 5h63q7 0 12 -5t5 -12q0 -23 18.5 -39.5t42.5 -16.5t42 16.5t18 39.5zM220 373h-100q-8 0 -14 6t-6 14v87q0 8 6 14t14 6h224q7 0 11.5 -5t4.5 -11v-344
q0 -10 10 -10h110q8 0 14 -6t6 -14v-90q0 -8 -6 -14t-14 -6h-370q-8 0 -14 6t-6 14v90q0 8 6 14t14 6h110q10 0 10 10v223q0 10 -10 10z" />
    <glyph glyph-name="Iogonek" unicode="&#x12e;" 
d="M333 -220h-94q-79 0 -126.5 40.5t-47.5 119.5v175q0 8 6 14t14 6h110q10 0 10 10v410q0 10 -10 10h-100q-8 0 -14 6t-6 14v95q0 8 6 14t14 6h360q8 0 14 -6t6 -14v-95q0 -8 -6 -14t-14 -6h-100q-10 0 -10 -10v-410q0 -10 10 -10h110q8 0 14 -6t6 -14v-95q0 -8 -6 -14
t-14 -6h-286v-60q0 -25 17.5 -42.5t42.5 -17.5h94q8 0 14 -6t6 -14v-60q0 -8 -6 -14t-14 -6z" />
    <glyph glyph-name="iogonek" unicode="&#x12f;" 
d="M366 694v-108q0 -16 -16 -16h-108q-16 0 -16 16v108q0 6 4.5 11t11.5 5h108q7 0 11.5 -5t4.5 -11zM204 0v-60q0 -25 17.5 -42.5t42.5 -17.5h94q8 0 14 -6t6 -14v-60q0 -8 -6 -14t-14 -6h-94q-79 0 -126.5 40.5t-47.5 119.5v170q0 8 6 14t14 6h110q10 0 10 10v223
q0 10 -10 10h-100q-8 0 -14 6t-6 14v87q0 8 6 14t14 6h224q7 0 11.5 -5t4.5 -11v-344q0 -10 10 -10h110q8 0 14 -6t6 -14v-90q0 -8 -6 -14t-14 -6h-276z" />
    <glyph glyph-name="Idotaccent" unicode="&#x130;" 
d="M205 145v410q0 10 -10 10h-100q-8 0 -14 6t-6 14v95q0 8 6 14t14 6h360q8 0 14 -6t6 -14v-95q0 -8 -6 -14t-14 -6h-100q-10 0 -10 -10v-410q0 -10 10 -10h110q8 0 14 -6t6 -14v-95q0 -8 -6 -14t-14 -6h-380q-8 0 -14 6t-6 14v95q0 8 6 14t14 6h110q10 0 10 10zM346 874
v-108q0 -16 -16 -16h-108q-16 0 -16 16v108q0 6 4.5 11t11.5 5h108q7 0 11.5 -5t4.5 -11z" />
    <glyph glyph-name="dotlessi" unicode="&#x131;" 
d="M220 373h-100q-8 0 -14 6t-6 14v87q0 8 6 14t14 6h224q7 0 11.5 -5t4.5 -11v-344q0 -10 10 -10h110q8 0 14 -6t6 -14v-90q0 -8 -6 -14t-14 -6h-370q-8 0 -14 6t-6 14v90q0 8 6 14t14 6h110q10 0 10 10v223q0 10 -10 10z" />
    <glyph glyph-name="Jcircumflex" unicode="&#x134;" 
d="M164 239v-28q0 -34 25.5 -57.5t65.5 -23.5q41 0 65.5 24.5t24.5 66.5v459q0 8 6 14t14 6h101q8 0 14 -6t6 -14v-469q0 -94 -64 -158t-167 -64q-98 0 -165 65t-67 157v28q0 8 6 14t14 6h101q8 0 14 -6t6 -14zM290 810l-35 -44q-11 -16 -31 -16h-95q-8 0 -11.5 5t-3 11
t3.5 9l119 123q12 12 30 12h62q17 0 29 -12l119 -123q6 -5 2.5 -15t-15.5 -10h-94q-20 0 -31 16l-35 44q-7 10 -14 0z" />
    <glyph glyph-name="jcircumflex" unicode="&#x135;" 
d="M432 484v-516q0 -77 -55.5 -128t-134.5 -51t-134.5 52t-55.5 129q0 8 6 14t14 6h90q8 0 14 -6t6 -14q0 -24 17 -37.5t43 -13.5t43 13.5t17 37.5v391q0 10 -10 10h-120q-8 0 -14 6t-6 14v89q0 8 6 14t14 6h244q7 0 11.5 -5t4.5 -11zM287 630l-35 -44q-11 -16 -31 -16h-95
q-8 0 -11.5 5t-3 11t3.5 9l119 123q12 12 30 12h62q17 0 29 -12l119 -123q6 -5 2.5 -15t-15.5 -10h-94q-20 0 -31 16l-35 44q-7 10 -14 0z" />
    <glyph glyph-name="Kcommaaccent" unicode="&#x136;" 
d="M206 447l165 243q7 10 22 10h101q14 0 19.5 -12.5t-2.5 -23.5l-187 -276q-11 -16 0 -33l205 -317q8 -10 1.5 -24t-22.5 -14h-108q-16 0 -23 12l-171 273q-1 2 -3.5 2.5t-4.5 -1t-2 -4.5v-262q0 -8 -6 -14t-14 -6h-99q-8 0 -14 6t-6 14v660q0 8 6 14t14 6h99q8 0 14 -6
t6 -14v-230q0 -3 2 -4.5t4.5 -1t3.5 2.5zM249 -185h-24q-8 0 -14 6t-6 14v100q0 8 6 14t14 6h100q8 0 14 -6t6 -14v-97q0 -36 -22 -69l-34 -54q-13 -20 -34 -20h-10q-15 0 -21.5 12.5t0.5 25.5l34 69q3 5 -0.5 9t-8.5 4z" />
    <glyph glyph-name="kcommaaccent" unicode="&#x137;" 
d="M382 15l-155 173q-1 2 -3.5 2.5t-4.5 -1t-2 -4.5v-165q0 -8 -6 -14t-14 -6h-90q-8 0 -14 6t-6 14v670q0 8 6 14t14 6h90q8 0 14 -6t6 -14v-349q0 -3 2 -4.5t4.5 -1t3.5 2.5l146 149q13 13 25 13h99q15 0 19.5 -13t-3.5 -20l-179 -185q-14 -14 1 -30l193 -219
q9 -10 3.5 -21.5t-19.5 -11.5h-104q-11 0 -26 15zM249 -185h-24q-8 0 -14 6t-6 14v100q0 8 6 14t14 6h100q8 0 14 -6t6 -14v-97q0 -36 -22 -69l-34 -54q-13 -20 -34 -20h-10q-15 0 -21.5 12.5t0.5 25.5l34 69q3 5 -0.5 9t-8.5 4z" />
    <glyph glyph-name="kgreenlandic" unicode="&#x138;" 
d="M382 15l-155 173q-1 2 -3.5 2.5t-4.5 -1t-2 -4.5v-165q0 -8 -6 -14t-14 -6h-90q-8 0 -14 6t-6 14v460q0 8 6 14t14 6h90q8 0 14 -6t6 -14v-139q0 -3 2 -4.5t4.5 -1t3.5 2.5l146 149q13 13 25 13h99q15 0 19.5 -13t-3.5 -20l-179 -185q-14 -14 1 -30l193 -219
q9 -10 3.5 -21.5t-19.5 -11.5h-104q-11 0 -26 15z" />
    <glyph glyph-name="Lacute" unicode="&#x139;" 
d="M235 150v530q0 8 -6 14t-14 6h-100q-8 0 -14 -6t-6 -14v-660q0 -8 6 -14t14 -6h380q8 0 14 6t6 14v100q0 8 -6 14t-14 6h-250q-10 0 -10 10zM250 910h107q14 0 17.5 -9t-5.5 -18l-115 -121q-12 -12 -30 -12h-69q-11 0 -16 9t3 21l82 114q11 16 26 16z" />
    <glyph glyph-name="lacute" unicode="&#x13a;" 
d="M210 583h-100q-8 0 -14 6t-6 14v87q0 8 6 14t14 6h224q7 0 11.5 -5t4.5 -11v-554q0 -10 10 -10h120q8 0 14 -6t6 -14v-90q0 -8 -6 -14t-14 -6h-380q-8 0 -14 6t-6 14v90q0 8 6 14t14 6h110q10 0 10 10v433q0 10 -10 10zM320 910h107q14 0 17.5 -9t-5.5 -18l-115 -121
q-12 -12 -30 -12h-69q-11 0 -16 9t3 21l82 114q11 16 26 16z" />
    <glyph glyph-name="Lcommaaccent" unicode="&#x13b;" 
d="M235 680v-530q0 -10 10 -10h250q8 0 14 -6t6 -14v-100q0 -8 -6 -14t-14 -6h-380q-8 0 -14 6t-6 14v660q0 8 6 14t14 6h100q8 0 14 -6t6 -14zM249 -185h-24q-8 0 -14 6t-6 14v100q0 8 6 14t14 6h100q8 0 14 -6t6 -14v-97q0 -36 -22 -69l-34 -54q-13 -20 -34 -20h-10
q-15 0 -21.5 12.5t0.5 25.5l34 69q3 5 -0.5 9t-8.5 4z" />
    <glyph glyph-name="lcommaaccent" unicode="&#x13c;" 
d="M210 583h-100q-8 0 -14 6t-6 14v87q0 8 6 14t14 6h224q7 0 11.5 -5t4.5 -11v-554q0 -10 10 -10h120q8 0 14 -6t6 -14v-90q0 -8 -6 -14t-14 -6h-380q-8 0 -14 6t-6 14v90q0 8 6 14t14 6h110q10 0 10 10v433q0 10 -10 10zM249 -185h-24q-8 0 -14 6t-6 14v100q0 8 6 14t14 6
h100q8 0 14 -6t6 -14v-97q0 -36 -22 -69l-34 -54q-13 -20 -34 -20h-10q-15 0 -21.5 12.5t0.5 25.5l34 69q3 5 -0.5 9t-8.5 4z" />
    <glyph glyph-name="Lcaron" unicode="&#x13d;" 
d="M235 680v-530q0 -10 10 -10h250q8 0 14 -6t6 -14v-100q0 -8 -6 -14t-14 -6h-380q-8 0 -14 6t-6 14v660q0 8 6 14t14 6h100q8 0 14 -6t6 -14zM369 560h-24q-8 0 -14 6t-6 14v100q0 8 6 14t14 6h100q8 0 14 -6t6 -14v-97q0 -36 -22 -69l-34 -54q-13 -20 -34 -20h-10
q-15 0 -21.5 12t0.5 26l34 69q3 5 -0.5 9t-8.5 4z" />
    <glyph glyph-name="lcaron" unicode="&#x13e;" 
d="M210 583h-100q-8 0 -14 6t-6 14v87q0 8 6 14t14 6h224q7 0 11.5 -5t4.5 -11v-554q0 -10 10 -10h120q8 0 14 -6t6 -14v-90q0 -8 -6 -14t-14 -6h-380q-8 0 -14 6t-6 14v90q0 8 6 14t14 6h110q10 0 10 10v433q0 10 -10 10zM453 560h-24q-8 0 -14 6t-6 14v100q0 8 6 14t14 6
h100q8 0 14 -6t6 -14v-97q0 -36 -22 -69l-34 -54q-13 -20 -34 -20h-10q-15 0 -21.5 12t0.5 26l34 69q3 5 -0.5 9t-8.5 4z" />
    <glyph glyph-name="Ldot" unicode="&#x13f;" 
d="M235 680v-530q0 -10 10 -10h250q8 0 14 -6t6 -14v-100q0 -8 -6 -14t-14 -6h-380q-8 0 -14 6t-6 14v660q0 8 6 14t14 6h100q8 0 14 -6t6 -14zM465 364v-108q0 -16 -16 -16h-108q-16 0 -16 16v108q0 6 4.5 11t11.5 5h108q7 0 11.5 -5t4.5 -11z" />
    <glyph glyph-name="ldot" unicode="&#x140;" 
d="M210 583h-100q-8 0 -14 6t-6 14v87q0 8 6 14t14 6h224q7 0 11.5 -5t4.5 -11v-554q0 -10 10 -10h120q8 0 14 -6t6 -14v-90q0 -8 -6 -14t-14 -6h-380q-8 0 -14 6t-6 14v90q0 8 6 14t14 6h110q10 0 10 10v433q0 10 -10 10zM535 364v-108q0 -16 -16 -16h-108q-16 0 -16 16
v108q0 6 4.5 11t11.5 5h108q7 0 11.5 -5t4.5 -11z" />
    <glyph glyph-name="Lslash" unicode="&#x141;" 
d="M235 275v-120q0 -15 15 -15h245q8 0 14 -6t6 -14v-100q0 -8 -6 -14t-14 -6h-380q-8 0 -14 6t-6 14v172q0 9 -7 4l-29 -16q-10 -6 -19 -2.5t-9 17.5v79q0 17 19 28l39 23q6 4 6 10v345q0 8 6 14t14 6h100q8 0 14 -6t6 -14v-261q0 -3 2.5 -4.5t7.5 0.5l97 57q11 7 20.5 3.5
t9.5 -15.5v-79q0 -20 -21 -33l-109 -63q-7 -3 -7 -10z" />
    <glyph glyph-name="lslash" unicode="&#x142;" 
d="M220 355v218q0 10 -10 10h-100q-8 0 -14 6t-6 14v87q0 8 6 14t14 6h224q7 0 11.5 -5t4.5 -11v-255q0 -11 10 -4l51 34q11 7 20.5 1.5t9.5 -18.5v-74q0 -20 -21 -33l-63 -40q-7 -4 -7 -12v-153q0 -10 10 -10h120q8 0 14 -6t6 -14v-90q0 -8 -6 -14t-14 -6h-380q-8 0 -14 6
t-6 14v90q0 8 6 14t14 6h110q10 0 10 10v72q0 9 -7 4l-23 -13q-10 -7 -22 -0.5t-12 20.5v68q0 19 26 35l32 19q6 2 6 10z" />
    <glyph glyph-name="Nacute" unicode="&#x143;" 
d="M500 20v660q0 8 -6 14t-14 6h-100q-8 0 -14 -6t-6 -14v-376q0 -5 -4 -5.5t-5 3.5l-137 380q-6 18 -25 18h-119q-8 0 -14 -6t-6 -14v-660q0 -8 6 -14t14 -6h100q8 0 14 6t6 14v346q0 5 4 5.5t5 -3.5l136 -351q6 -17 27 -17h118q8 0 14 6t6 14zM320 910h107q14 0 17.5 -9
t-5.5 -18l-115 -121q-12 -12 -30 -12h-69q-11 0 -16 9t3 21l82 114q11 16 26 16z" />
    <glyph glyph-name="nacute" unicode="&#x144;" 
d="M185 476q-10 0 -22 12q-10 12 -23 12h-50q-8 0 -14 -6t-6 -14v-460q0 -8 6 -14t14 -6h90q8 0 14 6t6 14v310q0 23 20.5 39t54.5 16q35 0 55 -16.5t20 -42.5v-306q0 -8 6 -14t14 -6h90q8 0 14 6t6 14v305q0 79 -53 132.5t-132 53.5q-34 0 -66.5 -17.5t-43.5 -17.5z
M310 730h107q14 0 17.5 -9t-5.5 -18l-115 -121q-12 -12 -30 -12h-69q-11 0 -16 9t3 21l82 114q11 16 26 16z" />
    <glyph glyph-name="Ncommaaccent" unicode="&#x145;" 
d="M500 680v-660q0 -8 -6 -14t-14 -6h-118q-21 0 -27 17l-136 351q-1 4 -5 3.5t-4 -5.5v-346q0 -8 -6 -14t-14 -6h-100q-8 0 -14 6t-6 14v660q0 8 6 14t14 6h119q19 0 25 -18l137 -380q1 -4 5 -3.5t4 5.5v376q0 8 6 14t14 6h100q8 0 14 -6t6 -14zM249 -185h-24q-8 0 -14 6
t-6 14v100q0 8 6 14t14 6h100q8 0 14 -6t6 -14v-97q0 -36 -22 -69l-34 -54q-13 -20 -34 -20h-10q-15 0 -21.5 12.5t0.5 25.5l34 69q3 5 -0.5 9t-8.5 4z" />
    <glyph glyph-name="ncommaaccent" unicode="&#x146;" 
d="M185 476q11 0 43.5 17.5t66.5 17.5q79 0 132 -53.5t53 -132.5v-305q0 -8 -6 -14t-14 -6h-90q-8 0 -14 6t-6 14v306q0 26 -20 42.5t-55 16.5q-34 0 -54.5 -16t-20.5 -39v-310q0 -8 -6 -14t-14 -6h-90q-8 0 -14 6t-6 14v460q0 8 6 14t14 6h50q13 0 23 -12q12 -12 22 -12z
M249 -185h-24q-8 0 -14 6t-6 14v100q0 8 6 14t14 6h100q8 0 14 -6t6 -14v-97q0 -36 -22 -69l-34 -54q-13 -20 -34 -20h-10q-15 0 -21.5 12.5t0.5 25.5l34 69q3 5 -0.5 9t-8.5 4z" />
    <glyph glyph-name="Ncaron" unicode="&#x147;" 
d="M500 20v660q0 8 -6 14t-14 6h-100q-8 0 -14 -6t-6 -14v-376q0 -5 -4 -5.5t-5 3.5l-137 380q-6 18 -25 18h-119q-8 0 -14 -6t-6 -14v-660q0 -8 6 -14t14 -6h100q8 0 14 6t6 14v346q0 5 4 5.5t5 -3.5l136 -351q6 -17 27 -17h118q8 0 14 6t6 14zM232 894l35 -44q7 -10 14 0
l35 44q11 16 31 16h94q12 0 15.5 -10t-2.5 -15l-119 -123q-12 -12 -29 -12h-62q-18 0 -30 12l-119 123q-3 3 -3.5 9t3 11t11.5 5h95q20 0 31 -16z" />
    <glyph glyph-name="ncaron" unicode="&#x148;" 
d="M185 476q-10 0 -22 12q-10 12 -23 12h-50q-8 0 -14 -6t-6 -14v-460q0 -8 6 -14t14 -6h90q8 0 14 6t6 14v310q0 23 20.5 39t54.5 16q35 0 55 -16.5t20 -42.5v-306q0 -8 6 -14t14 -6h90q8 0 14 6t6 14v305q0 79 -53 132.5t-132 53.5q-34 0 -66.5 -17.5t-43.5 -17.5z
M232 714l35 -44q7 -10 14 0l35 44q11 16 31 16h94q12 0 15.5 -10t-2.5 -15l-119 -123q-12 -12 -29 -12h-62q-18 0 -30 12l-119 123q-3 3 -3.5 9t3 11t11.5 5h95q20 0 31 -16z" />
    <glyph glyph-name="Eng" unicode="&#x14a;" 
d="M357 30l-158 348q-2 4 -5.5 3.5t-3.5 -5.5v-356q0 -8 -6 -14t-14 -6h-100q-8 0 -14 6t-6 14v660q0 8 6 14t14 6h119q19 0 25 -18l137 -340q1 -4 5 -3.5t4 5.5v336q0 8 6 14t14 6h100q8 0 14 -6t6 -14v-669q0 -94 -64 -157.5t-167 -63.5q-8 0 -14 6t-6 14v100q0 8 6 14
t14 6q37 0 62.5 19t25.5 51v30z" />
    <glyph glyph-name="eng" unicode="&#x14b;" 
d="M283 -96q29 0 48 17t19 49v356q0 26 -20 42.5t-55 16.5q-34 0 -54.5 -16t-20.5 -39v-310q0 -8 -6 -14t-14 -6h-90q-8 0 -14 6t-6 14v460q0 8 6 14t14 6h50q12 0 23 -12t22 -12t43.5 17.5t66.5 17.5q79 0 132 -53.5t53 -132.5v-355q0 -77 -56.5 -131t-140.5 -54
q-8 0 -14 6t-6 14v79q0 8 6 14t14 6z" />
    <glyph glyph-name="Omacron" unicode="&#x14c;" 
d="M275 570q44 0 68.5 -22.5t28.5 -57.5q17 -140 0 -280q-4 -35 -28.5 -57.5t-68.5 -22.5t-68.5 22.5t-28.5 57.5q-17 140 0 280q4 35 28.5 57.5t68.5 22.5zM275 711q-100 0 -163.5 -63.5t-74.5 -157.5q-17 -140 0 -280q11 -94 74.5 -157.5t163.5 -63.5t163.5 63.5
t74.5 157.5q17 140 0 280q-11 94 -74.5 157.5t-163.5 63.5zM406 760h-262q-8 0 -14 6t-6 14v58q0 8 6 14t14 6h262q8 0 14 -6t6 -14v-58q0 -8 -6 -14t-14 -6z" />
    <glyph glyph-name="omacron" unicode="&#x14d;" 
d="M274 511q-88 0 -142.5 -52t-64.5 -134q-9 -75 0 -150q10 -82 64.5 -134t143.5 -52q88 0 142.5 52t64.5 134q9 75 0 150q-10 82 -64.5 134t-143.5 52zM274 119q-69 0 -77 56q-11 75 0 150q5 29 22.5 42.5t54.5 13.5q70 0 78 -56q11 -75 0 -150q-8 -56 -78 -56zM406 596
h-262q-8 0 -14 6t-6 14v58q0 8 6 14t14 6h262q8 0 14 -6t6 -14v-58q0 -8 -6 -14t-14 -6z" />
    <glyph glyph-name="Obreve" unicode="&#x14e;" 
d="M275 570q44 0 68.5 -22.5t28.5 -57.5q17 -140 0 -280q-4 -35 -28.5 -57.5t-68.5 -22.5t-68.5 22.5t-28.5 57.5q-17 140 0 280q4 35 28.5 57.5t68.5 22.5zM275 711q-100 0 -163.5 -63.5t-74.5 -157.5q-17 -140 0 -280q11 -94 74.5 -157.5t163.5 -63.5t163.5 63.5
t74.5 157.5q17 140 0 280q-11 94 -74.5 157.5t-163.5 63.5zM335 886q0 7 5 12t12 5h63q7 0 12 -5t5 -12q0 -60 -44 -103t-113 -43q-70 0 -114 43t-44 103q0 7 5 12t12 5h63q7 0 12 -5t5 -12q0 -23 18.5 -39.5t42.5 -16.5t42 16.5t18 39.5z" />
    <glyph glyph-name="obreve" unicode="&#x14f;" 
d="M274 511q-88 0 -142.5 -52t-64.5 -134q-9 -75 0 -150q10 -82 64.5 -134t143.5 -52q88 0 142.5 52t64.5 134q9 75 0 150q-10 82 -64.5 134t-143.5 52zM274 119q-69 0 -77 56q-11 75 0 150q5 29 22.5 42.5t54.5 13.5q70 0 78 -56q11 -75 0 -150q-8 -56 -78 -56zM335 713
q0 7 5 12t12 5h63q7 0 12 -5t5 -12q0 -60 -44 -103t-113 -43q-70 0 -114 43t-44 103q0 7 5 12t12 5h63q7 0 12 -5t5 -12q0 -23 18.5 -39.5t42.5 -16.5t42 16.5t18 39.5z" />
    <glyph glyph-name="Ohungarumlaut" unicode="&#x150;" 
d="M275 570q44 0 68.5 -22.5t28.5 -57.5q17 -140 0 -280q-4 -35 -28.5 -57.5t-68.5 -22.5t-68.5 22.5t-28.5 57.5q-17 140 0 280q4 35 28.5 57.5t68.5 22.5zM275 711q-100 0 -163.5 -63.5t-74.5 -157.5q-17 -140 0 -280q11 -94 74.5 -157.5t163.5 -63.5t163.5 63.5
t74.5 157.5q17 140 0 280q-11 94 -74.5 157.5t-163.5 63.5zM227 910h107q14 0 17.5 -9t-5.5 -18l-115 -121q-12 -12 -30 -12h-69q-11 0 -16 9t3 21l82 114q11 16 26 16zM434 910h107q14 0 17.5 -9t-5.5 -18l-115 -121q-12 -12 -30 -12h-69q-11 0 -16 9t3 21l82 114
q11 16 26 16z" />
    <glyph glyph-name="ohungarumlaut" unicode="&#x151;" 
d="M274 511q-88 0 -142.5 -52t-64.5 -134q-9 -75 0 -150q10 -82 64.5 -134t143.5 -52q88 0 142.5 52t64.5 134q9 75 0 150q-10 82 -64.5 134t-143.5 52zM274 119q-69 0 -77 56q-11 75 0 150q5 29 22.5 42.5t54.5 13.5q70 0 78 -56q11 -75 0 -150q-8 -56 -78 -56zM227 730
h107q14 0 17.5 -9t-5.5 -18l-115 -121q-12 -12 -30 -12h-69q-11 0 -16 9t3 21l82 114q11 16 26 16zM434 730h107q14 0 17.5 -9t-5.5 -18l-115 -121q-12 -12 -30 -12h-69q-11 0 -16 9t3 21l82 114q11 16 26 16z" />
    <glyph glyph-name="OE" unicode="&#x152;" 
d="M246 700h270q8 0 14 -6t6 -14v-100q0 -8 -6 -14t-14 -6h-111q-10 0 -10 -10v-120q0 -10 10 -10h103q8 0 14 -6t6 -14v-100q0 -8 -6 -14t-14 -6h-103q-10 0 -10 -10v-120q0 -10 10 -10h115q8 0 14 -6t6 -14v-100q0 -8 -6 -14t-14 -6h-274q-90 0 -151 64t-72 157
q-15 129 0 258q11 93 72 157t151 64zM246 140q10 0 10 10v400q0 10 -10 10q-33 0 -55.5 -23.5t-26.5 -57.5q-15 -129 0 -258q4 -34 26.5 -57.5t55.5 -23.5z" />
    <glyph glyph-name="oe" unicode="&#x153;" 
d="M303 28q-7 8 -17 7.5t-16 -8.5q-31 -38 -96 -38q-84 0 -128 78t-44 188q0 105 46 180.5t125 75.5q58 0 97 -39q6 -6 15.5 -6.5t17.5 5.5q44 40 91 40q76 0 115 -66t39 -185v-30q-2 -20 -20 -20h-183q-15 0 -15 -15q0 -42 16 -65.5t45 -23.5q42 0 52 46q4 17 23 17h63
q17 0 17 -20q0 -57 -41.5 -108.5t-106.5 -51.5q-61 0 -95 39zM325 319q0 -9 10 -9h101q10 0 10 9q0 35 -16 54t-42 20q-30 0 -46.5 -21.5t-16.5 -52.5zM112 256q0 -69 13 -105t48 -36t48 36t13 105q0 125 -61 125q-28 0 -44.5 -33t-16.5 -92z" />
    <glyph glyph-name="Racute" unicode="&#x154;" 
d="M298 560h-90q-10 0 -10 -10v-120q0 -10 10 -10h90q29 0 49.5 20.5t20.5 49.5q0 28 -21 49t-49 21zM234 280h-26q-10 0 -10 -10v-250q0 -8 -6 -14t-14 -6h-100q-8 0 -14 6t-6 14v660q0 8 6 14t14 6h220q86 0 148 -62t62 -148q0 -57 -25 -98.5t-79 -78.5q-16 -11 -6 -33
l107 -250q6 -11 0.5 -20.5t-19.5 -9.5h-103q-21 0 -29 20l-102 247q-5 13 -18 13zM290 910h107q14 0 17.5 -9t-5.5 -18l-115 -121q-12 -12 -30 -12h-69q-11 0 -16 9t3 21l82 114q11 16 26 16z" />
    <glyph glyph-name="racute" unicode="&#x155;" 
d="M372 336q0 24 -21 37.5t-54 13.5q-34 0 -57 -15t-23 -45v-307q0 -8 -6 -14t-14 -6h-90q-8 0 -14 6t-6 14v460q0 8 6 14t14 6h50q12 0 25 -11q12 -12 23 -12q10 0 42.5 17t74.5 17q79 0 129.5 -48.5t50.5 -126.5q0 -8 -6 -14t-14 -6h-90q-8 0 -14 6t-6 14zM300 730h107
q14 0 17.5 -9t-5.5 -18l-115 -121q-12 -12 -30 -12h-69q-11 0 -16 9t3 21l82 114q11 16 26 16z" />
    <glyph glyph-name="Rcommaaccent" unicode="&#x156;" 
d="M298 560h-90q-10 0 -10 -10v-120q0 -10 10 -10h90q29 0 49.5 20.5t20.5 49.5q0 28 -21 49t-49 21zM234 280h-26q-10 0 -10 -10v-250q0 -8 -6 -14t-14 -6h-100q-8 0 -14 6t-6 14v660q0 8 6 14t14 6h220q86 0 148 -62t62 -148q0 -57 -25 -98.5t-79 -78.5q-16 -11 -6 -33
l107 -250q6 -11 0.5 -20.5t-19.5 -9.5h-103q-21 0 -29 20l-102 247q-5 13 -18 13zM249 -185h-24q-8 0 -14 6t-6 14v100q0 8 6 14t14 6h100q8 0 14 -6t6 -14v-97q0 -36 -22 -69l-34 -54q-13 -20 -34 -20h-10q-15 0 -21.5 12.5t0.5 25.5l34 69q3 5 -0.5 9t-8.5 4z" />
    <glyph glyph-name="rcommaaccent" unicode="&#x157;" 
d="M372 336q0 24 -21 37.5t-54 13.5q-34 0 -57 -15t-23 -45v-307q0 -8 -6 -14t-14 -6h-90q-8 0 -14 6t-6 14v460q0 8 6 14t14 6h50q12 0 25 -11q12 -12 23 -12q10 0 42.5 17t74.5 17q79 0 129.5 -48.5t50.5 -126.5q0 -8 -6 -14t-14 -6h-90q-8 0 -14 6t-6 14zM123 -185h-24
q-8 0 -14 6t-6 14v100q0 8 6 14t14 6h100q8 0 14 -6t6 -14v-97q0 -36 -22 -69l-34 -54q-13 -20 -34 -20h-10q-15 0 -21.5 12.5t0.5 25.5l34 69q3 5 -0.5 9t-8.5 4z" />
    <glyph glyph-name="Rcaron" unicode="&#x158;" 
d="M298 560h-90q-10 0 -10 -10v-120q0 -10 10 -10h90q29 0 49.5 20.5t20.5 49.5q0 28 -21 49t-49 21zM234 280h-26q-10 0 -10 -10v-250q0 -8 -6 -14t-14 -6h-100q-8 0 -14 6t-6 14v660q0 8 6 14t14 6h220q86 0 148 -62t62 -148q0 -57 -25 -98.5t-79 -78.5q-16 -11 -6 -33
l107 -250q6 -11 0.5 -20.5t-19.5 -9.5h-103q-21 0 -29 20l-102 247q-5 13 -18 13zM212 894l35 -44q7 -10 14 0l35 44q11 16 31 16h94q12 0 15.5 -10t-2.5 -15l-119 -123q-12 -12 -29 -12h-62q-18 0 -30 12l-119 123q-3 3 -3.5 9t3 11t11.5 5h95q20 0 31 -16z" />
    <glyph glyph-name="rcaron" unicode="&#x159;" 
d="M372 336q0 24 -21 37.5t-54 13.5q-34 0 -57 -15t-23 -45v-307q0 -8 -6 -14t-14 -6h-90q-8 0 -14 6t-6 14v460q0 8 6 14t14 6h50q12 0 25 -11q12 -12 23 -12q10 0 42.5 17t74.5 17q79 0 129.5 -48.5t50.5 -126.5q0 -8 -6 -14t-14 -6h-90q-8 0 -14 6t-6 14zM232 714l35 -44
q7 -10 14 0l35 44q11 16 31 16h94q12 0 15.5 -10t-2.5 -15l-119 -123q-12 -12 -29 -12h-62q-18 0 -30 12l-119 123q-3 3 -3.5 9t3 11t11.5 5h95q20 0 31 -16z" />
    <glyph glyph-name="Sacute" unicode="&#x15a;" 
d="M371 208q0 -36 -27.5 -59t-71.5 -23q-45 0 -71 23t-26 59v30q0 8 -6 14t-14 6h-101q-8 0 -14 -6t-6 -14v-30q0 -92 67.5 -155.5t170.5 -63.5q107 0 175.5 61t68.5 158q0 98 -63.5 150t-178.5 75q-89 17 -89 72q0 31 23 50.5t64 19.5t65 -22t24 -53v-15q0 -8 6 -14t14 -6
h101q8 0 14 6t6 14v15q0 89 -65 150t-165 61q-98 0 -163.5 -61t-65.5 -150q0 -90 59.5 -139.5t164.5 -72.5q57 -13 80.5 -30.5t23.5 -49.5zM320 910h107q14 0 17.5 -9t-5.5 -18l-115 -121q-12 -12 -30 -12h-69q-11 0 -16 9t3 21l82 114q11 16 26 16z" />
    <glyph glyph-name="sacute" unicode="&#x15b;" 
d="M62 164q0 8 6 14t14 6h76q17 0 22.5 -5.5t7.5 -19.5q5 -52 88 -52q42 0 67 12t25 35t-24 32t-68 14q-35 4 -66.5 13t-64 26t-51.5 48.5t-19 72.5q0 64 62 107.5t139 43.5q81 0 139.5 -41.5t58.5 -114.5q0 -25 -20 -25h-75q-19 0 -23 25q-4 23 -26.5 34.5t-53.5 11.5
q-80 0 -80 -41q0 -7 2.5 -13t9.5 -10t12 -7t17 -5.5t18 -3.5t21 -4q94 -17 124 -30q88 -38 88 -135q0 -72 -62 -117.5t-150 -45.5q-91 0 -152.5 43.5t-61.5 131.5zM310 730h107q14 0 17.5 -9t-5.5 -18l-115 -121q-12 -12 -30 -12h-69q-11 0 -16 9t3 21l82 114q11 16 26 16z
" />
    <glyph glyph-name="Scircumflex" unicode="&#x15c;" 
d="M371 208q0 32 -23.5 49.5t-80.5 30.5q-105 23 -164.5 72.5t-59.5 139.5q0 89 65.5 150t163.5 61q100 0 165 -61t65 -150v-15q0 -8 -6 -14t-14 -6h-101q-8 0 -14 6t-6 14v15q0 31 -24 53t-65 22t-64 -19.5t-23 -50.5q0 -55 89 -72q115 -23 178.5 -75t63.5 -150
q0 -97 -68.5 -158t-175.5 -61q-103 0 -170.5 63.5t-67.5 155.5v30q0 8 6 14t14 6h101q8 0 14 -6t6 -14v-30q0 -36 26 -59t71 -23q44 0 71.5 23t27.5 59zM270 810l-35 -44q-11 -16 -31 -16h-95q-8 0 -11.5 5t-3 11t3.5 9l119 123q12 12 30 12h62q17 0 29 -12l119 -123
q6 -5 2.5 -15t-15.5 -10h-94q-20 0 -31 16l-35 44q-7 10 -14 0z" />
    <glyph glyph-name="scircumflex" unicode="&#x15d;" 
d="M62 164q0 8 6 14t14 6h76q17 0 22.5 -5.5t7.5 -19.5q5 -52 88 -52q42 0 67 12t25 35t-24 32t-68 14q-35 4 -66.5 13t-64 26t-51.5 48.5t-19 72.5q0 64 62 107.5t139 43.5q81 0 139.5 -41.5t58.5 -114.5q0 -25 -20 -25h-75q-19 0 -23 25q-4 23 -26.5 34.5t-53.5 11.5
q-80 0 -80 -41q0 -7 2.5 -13t9.5 -10t12 -7t17 -5.5t18 -3.5t21 -4q94 -17 124 -30q88 -38 88 -135q0 -72 -62 -117.5t-150 -45.5q-91 0 -152.5 43.5t-61.5 131.5zM277 630l-35 -44q-11 -16 -31 -16h-95q-8 0 -11.5 5t-3 11t3.5 9l119 123q12 12 30 12h62q17 0 29 -12
l119 -123q6 -5 2.5 -15t-15.5 -10h-94q-20 0 -31 16l-35 44q-7 10 -14 0z" />
    <glyph glyph-name="Scedilla" unicode="&#x15e;" 
d="M371 208q0 32 -23.5 49.5t-80.5 30.5q-105 23 -164.5 72.5t-59.5 139.5q0 89 65.5 150t163.5 61q100 0 165 -61t65 -150v-15q0 -8 -6 -14t-14 -6h-101q-8 0 -14 6t-6 14v15q0 31 -24 53t-65 22t-64 -19.5t-23 -50.5q0 -55 89 -72q115 -23 178.5 -75t63.5 -150
q0 -97 -68.5 -158t-175.5 -61q-103 0 -170.5 63.5t-67.5 155.5v30q0 8 6 14t14 6h101q8 0 14 -6t6 -14v-30q0 -36 26 -59t71 -23q44 0 71.5 23t27.5 59zM338 -84l-21 -92q-6 -24 -32 -24h-62q-22 0 -28.5 12.5t-1.5 26.5l29 92q7 24 32 24h54q22 0 28 -12t2 -27z" />
    <glyph glyph-name="scedilla" unicode="&#x15f;" 
d="M62 164q0 8 6 14t14 6h76q17 0 22.5 -5.5t7.5 -19.5q5 -52 88 -52q42 0 67 12t25 35t-24 32t-68 14q-35 4 -66.5 13t-64 26t-51.5 48.5t-19 72.5q0 64 62 107.5t139 43.5q81 0 139.5 -41.5t58.5 -114.5q0 -25 -20 -25h-75q-19 0 -23 25q-4 23 -26.5 34.5t-53.5 11.5
q-80 0 -80 -41q0 -7 2.5 -13t9.5 -10t12 -7t17 -5.5t18 -3.5t21 -4q94 -17 124 -30q88 -38 88 -135q0 -72 -62 -117.5t-150 -45.5q-91 0 -152.5 43.5t-61.5 131.5zM338 -84l-21 -92q-6 -24 -32 -24h-62q-22 0 -28.5 12.5t-1.5 26.5l29 92q7 24 32 24h54q22 0 28 -12t2 -27z
" />
    <glyph glyph-name="Scaron" unicode="&#x160;" 
d="M371 208q0 -36 -27.5 -59t-71.5 -23q-45 0 -71 23t-26 59v30q0 8 -6 14t-14 6h-101q-8 0 -14 -6t-6 -14v-30q0 -92 67.5 -155.5t170.5 -63.5q107 0 175.5 61t68.5 158q0 98 -63.5 150t-178.5 75q-89 17 -89 72q0 31 23 50.5t64 19.5t65 -22t24 -53v-15q0 -8 6 -14t14 -6
h101q8 0 14 6t6 14v15q0 89 -65 150t-165 61q-98 0 -163.5 -61t-65.5 -150q0 -90 59.5 -139.5t164.5 -72.5q57 -13 80.5 -30.5t23.5 -49.5zM232 894l35 -44q7 -10 14 0l35 44q11 16 31 16h94q12 0 15.5 -10t-2.5 -15l-119 -123q-12 -12 -29 -12h-62q-18 0 -30 12l-119 123
q-3 3 -3.5 9t3 11t11.5 5h95q20 0 31 -16z" />
    <glyph glyph-name="scaron" unicode="&#x161;" 
d="M62 164q0 8 6 14t14 6h76q17 0 22.5 -5.5t7.5 -19.5q5 -52 88 -52q42 0 67 12t25 35t-24 32t-68 14q-35 4 -66.5 13t-64 26t-51.5 48.5t-19 72.5q0 64 62 107.5t139 43.5q81 0 139.5 -41.5t58.5 -114.5q0 -25 -20 -25h-75q-19 0 -23 25q-4 23 -26.5 34.5t-53.5 11.5
q-80 0 -80 -41q0 -7 2.5 -13t9.5 -10t12 -7t17 -5.5t18 -3.5t21 -4q94 -17 124 -30q88 -38 88 -135q0 -72 -62 -117.5t-150 -45.5q-91 0 -152.5 43.5t-61.5 131.5zM232 714l35 -44q7 -10 14 0l35 44q11 16 31 16h94q12 0 15.5 -10t-2.5 -15l-119 -123q-12 -12 -29 -12h-62
q-18 0 -30 12l-119 123q-3 3 -3.5 9t3 11t11.5 5h95q20 0 31 -16z" />
    <glyph glyph-name="Tcommaaccent" unicode="&#x162;" 
d="M194 560h-135q-8 0 -14 6t-6 14v100q0 8 6 14t14 6h430q8 0 14 -6t6 -14v-100q0 -8 -6 -14t-14 -6h-135q-10 0 -10 -10v-530q0 -8 -6 -14t-14 -6h-100q-8 0 -14 6t-6 14v530q0 10 -10 10zM249 -185h-24q-8 0 -14 6t-6 14v100q0 8 6 14t14 6h100q8 0 14 -6t6 -14v-97
q0 -36 -22 -69l-34 -54q-13 -20 -34 -20h-10q-15 0 -21.5 12.5t0.5 25.5l34 69q3 5 -0.5 9t-8.5 4z" />
    <glyph glyph-name="tcommaaccent" unicode="&#x163;" 
d="M279 367v-197q0 -24 17 -37.5t43 -13.5t43 13.5t17 37.5q0 8 6 14t14 6h90q8 0 14 -6t6 -14q0 -77 -55.5 -129t-134.5 -52t-134.5 51t-55.5 128v199q0 10 -10 10h-98q-8 0 -14 6t-6 14v80q0 8 6 14t14 6h98q10 0 10 10v153q0 8 6 14t14 6h90q8 0 14 -6t6 -14v-153
q0 -10 10 -10h170q8 0 14 -6t6 -14v-80q0 -8 -6 -14t-14 -6h-170q-10 0 -10 -10zM249 -185h-24q-8 0 -14 6t-6 14v100q0 8 6 14t14 6h100q8 0 14 -6t6 -14v-97q0 -36 -22 -69l-34 -54q-13 -20 -34 -20h-10q-15 0 -21.5 12.5t0.5 25.5l34 69q3 5 -0.5 9t-8.5 4z" />
    <glyph glyph-name="Tcaron" unicode="&#x164;" 
d="M194 560h-135q-8 0 -14 6t-6 14v100q0 8 6 14t14 6h430q8 0 14 -6t6 -14v-100q0 -8 -6 -14t-14 -6h-135q-10 0 -10 -10v-530q0 -8 -6 -14t-14 -6h-100q-8 0 -14 6t-6 14v530q0 10 -10 10zM232 894l35 -44q7 -10 14 0l35 44q11 16 31 16h94q12 0 15.5 -10t-2.5 -15
l-119 -123q-12 -12 -29 -12h-62q-18 0 -30 12l-119 123q-3 3 -3.5 9t3 11t11.5 5h95q20 0 31 -16z" />
    <glyph glyph-name="tcaron" unicode="&#x165;" 
d="M279 170v197q0 10 10 10h80q8 0 14 6t6 14v80q0 8 -6 14t-14 6h-80q-10 0 -10 10v153q0 8 -6 14t-14 6h-90q-8 0 -14 -6t-6 -14v-153q0 -10 -10 -10h-98q-8 0 -14 -6t-6 -14v-80q0 -8 6 -14t14 -6h98q10 0 10 -10v-199q0 -77 55.5 -128t134.5 -51t134.5 52t55.5 129
q0 8 -6 14t-14 6h-90q-8 0 -14 -6t-6 -14q0 -24 -17 -37.5t-43 -13.5t-43 13.5t-17 37.5zM443 560h-24q-8 0 -14 6t-6 14v100q0 8 6 14t14 6h100q8 0 14 -6t6 -14v-97q0 -36 -22 -69l-34 -54q-13 -20 -34 -20h-10q-15 0 -21.5 12t0.5 26l34 69q3 5 -0.5 9t-8.5 4z" />
    <glyph glyph-name="Tbar" unicode="&#x166;" 
d="M204 20v350q0 10 -10 10h-123q-8 0 -14 6t-6 14v80q0 8 6 14t14 6h123q10 0 10 10v50q0 10 -10 10h-135q-8 0 -14 6t-6 14v90q0 8 6 14t14 6h430q8 0 14 -6t6 -14v-90q0 -8 -6 -14t-14 -6h-135q-10 0 -10 -10v-50q0 -10 10 -10h122q8 0 14 -6t6 -14v-80q0 -8 -6 -14
t-14 -6h-122q-10 0 -10 -10v-350q0 -8 -6 -14t-14 -6h-100q-8 0 -14 6t-6 14z" />
    <glyph glyph-name="tbar" unicode="&#x167;" 
d="M279 225v-55q0 -24 17 -37.5t43 -13.5t43 13.5t17 37.5q0 8 6 14t14 6h90q8 0 14 -6t6 -14q0 -77 -55.5 -129t-134.5 -52t-134.5 51t-55.5 128v57q0 10 -10 10h-88q-8 0 -14 6t-6 14v70q0 8 6 14t14 6h88q10 0 10 10v22q0 10 -10 10h-98q-8 0 -14 6t-6 14v70q0 8 6 14
t14 6h98q10 0 10 10v153q0 8 6 14t14 6h90q8 0 14 -6t6 -14v-153q0 -10 10 -10h170q8 0 14 -6t6 -14v-70q0 -8 -6 -14t-14 -6h-170q-10 0 -10 -10v-22q0 -10 10 -10h130q8 0 14 -6t6 -14v-70q0 -8 -6 -14t-14 -6h-130q-10 0 -10 -10z" />
    <glyph glyph-name="Utilde" unicode="&#x168;" 
d="M178 680v-470q0 -34 26 -57t69 -23q44 0 70.5 23t26.5 57v470q0 8 6 14t14 6h101q8 0 14 -6t6 -14v-470q0 -92 -68 -156.5t-170 -64.5q-101 0 -168.5 64.5t-67.5 156.5v470q0 8 6 14t14 6h101q8 0 14 -6t6 -14zM367 864q29 0 46 21q6 8 15.5 4t9.5 -18v-60
q0 -20 -21 -35.5t-50 -15.5q-31 0 -88 12.5t-92 12.5q-28 0 -46 -21q-6 -8 -15.5 -3.5t-9.5 17.5v60q0 20 21 35.5t50 15.5q31 0 88 -12.5t92 -12.5z" />
    <glyph glyph-name="utilde" unicode="&#x169;" 
d="M365 20q-11 0 -41 -15.5t-64 -15.5q-79 0 -134.5 54t-55.5 132v305q0 8 6 14t14 6h90q8 0 14 -6t6 -14v-306q0 -26 20 -42.5t55 -16.5q34 0 54.5 16t20.5 39v310q0 8 6 14t14 6h90q8 0 14 -6t6 -14v-460q0 -8 -6 -14t-14 -6h-50q-13 0 -23 10q-12 10 -22 10zM365 684
q29 0 46 21q6 8 15.5 4t9.5 -18v-60q0 -20 -21 -35.5t-50 -15.5q-31 0 -88 12.5t-92 12.5q-28 0 -46 -21q-6 -8 -15.5 -3.5t-9.5 17.5v60q0 20 21 35.5t50 15.5q31 0 88.5 -12.5t91.5 -12.5z" />
    <glyph glyph-name="Umacron" unicode="&#x16a;" 
d="M178 210v470q0 8 -6 14t-14 6h-101q-8 0 -14 -6t-6 -14v-470q0 -92 67.5 -156.5t168.5 -64.5q102 0 170 64.5t68 156.5v470q0 8 -6 14t-14 6h-101q-8 0 -14 -6t-6 -14v-470q0 -34 -26.5 -57t-70.5 -23q-43 0 -69 23t-26 57zM406 760h-262q-8 0 -14 6t-6 14v58q0 8 6 14
t14 6h262q8 0 14 -6t6 -14v-58q0 -8 -6 -14t-14 -6z" />
    <glyph glyph-name="umacron" unicode="&#x16b;" 
d="M365 20q10 0 22 -10q10 -10 23 -10h50q8 0 14 6t6 14v460q0 8 -6 14t-14 6h-90q-8 0 -14 -6t-6 -14v-310q0 -23 -20.5 -39t-54.5 -16q-35 0 -55 16.5t-20 42.5v306q0 8 -6 14t-14 6h-90q-8 0 -14 -6t-6 -14v-305q0 -78 55.5 -132t134.5 -54q34 0 64 15.5t41 15.5z
M406 596h-262q-8 0 -14 6t-6 14v58q0 8 6 14t14 6h262q8 0 14 -6t6 -14v-58q0 -8 -6 -14t-14 -6z" />
    <glyph glyph-name="Ubreve" unicode="&#x16c;" 
d="M178 210v470q0 8 -6 14t-14 6h-101q-8 0 -14 -6t-6 -14v-470q0 -92 67.5 -156.5t168.5 -64.5q102 0 170 64.5t68 156.5v470q0 8 -6 14t-14 6h-101q-8 0 -14 -6t-6 -14v-470q0 -34 -26.5 -57t-70.5 -23q-43 0 -69 23t-26 57zM335 886q0 7 5 12t12 5h63q7 0 12 -5t5 -12
q0 -60 -44 -103t-113 -43q-70 0 -114 43t-44 103q0 7 5 12t12 5h63q7 0 12 -5t5 -12q0 -23 18.5 -39.5t42.5 -16.5t42 16.5t18 39.5z" />
    <glyph glyph-name="ubreve" unicode="&#x16d;" 
d="M365 20q10 0 22 -10q10 -10 23 -10h50q8 0 14 6t6 14v460q0 8 -6 14t-14 6h-90q-8 0 -14 -6t-6 -14v-310q0 -23 -20.5 -39t-54.5 -16q-35 0 -55 16.5t-20 42.5v306q0 8 -6 14t-14 6h-90q-8 0 -14 -6t-6 -14v-305q0 -78 55.5 -132t134.5 -54q34 0 64 15.5t41 15.5z
M335 713q0 7 5 12t12 5h63q7 0 12 -5t5 -12q0 -60 -44 -103t-113 -43q-70 0 -114 43t-44 103q0 7 5 12t12 5h63q7 0 12 -5t5 -12q0 -23 18.5 -39.5t42.5 -16.5t42 16.5t18 39.5z" />
    <glyph glyph-name="Uring" unicode="&#x16e;" 
d="M178 210v470q0 8 -6 14t-14 6h-101q-8 0 -14 -6t-6 -14v-470q0 -92 67.5 -156.5t168.5 -64.5q102 0 170 64.5t68 156.5v470q0 8 -6 14t-14 6h-101q-8 0 -14 -6t-6 -14v-470q0 -34 -26.5 -57t-70.5 -23q-43 0 -69 23t-26 57zM159 850q0 48 34 81.5t82 33.5t81.5 -33.5
t33.5 -81.5t-33.5 -82t-81.5 -34t-82 34t-34 82zM243 850q0 -14 9 -23t23 -9t23 9t9 23t-9 23t-23 9t-23 -9t-9 -23z" />
    <glyph glyph-name="uring" unicode="&#x16f;" 
d="M365 20q10 0 22 -10q10 -10 23 -10h50q8 0 14 6t6 14v460q0 8 -6 14t-14 6h-90q-8 0 -14 -6t-6 -14v-310q0 -23 -20.5 -39t-54.5 -16q-35 0 -55 16.5t-20 42.5v306q0 8 -6 14t-14 6h-90q-8 0 -14 -6t-6 -14v-305q0 -78 55.5 -132t134.5 -54q34 0 64 15.5t41 15.5z
M159 670q0 48 34 81.5t82 33.5t81.5 -33.5t33.5 -81.5t-33.5 -82t-81.5 -34t-82 34t-34 82zM243 670q0 -14 9 -23t23 -9t23 9t9 23t-9 23t-23 9t-23 -9t-9 -23z" />
    <glyph glyph-name="Uhungarumlaut" unicode="&#x170;" 
d="M178 210v470q0 8 -6 14t-14 6h-101q-8 0 -14 -6t-6 -14v-470q0 -92 67.5 -156.5t168.5 -64.5q102 0 170 64.5t68 156.5v470q0 8 -6 14t-14 6h-101q-8 0 -14 -6t-6 -14v-470q0 -34 -26.5 -57t-70.5 -23q-43 0 -69 23t-26 57zM207 910h107q14 0 17.5 -9t-5.5 -18l-115 -121
q-12 -12 -30 -12h-69q-11 0 -16 9t3 21l82 114q11 16 26 16zM414 910h107q14 0 17.5 -9t-5.5 -18l-115 -121q-12 -12 -30 -12h-69q-11 0 -16 9t3 21l82 114q11 16 26 16z" />
    <glyph glyph-name="uhungarumlaut" unicode="&#x171;" 
d="M365 20q10 0 22 -10q10 -10 23 -10h50q8 0 14 6t6 14v460q0 8 -6 14t-14 6h-90q-8 0 -14 -6t-6 -14v-310q0 -23 -20.5 -39t-54.5 -16q-35 0 -55 16.5t-20 42.5v306q0 8 -6 14t-14 6h-90q-8 0 -14 -6t-6 -14v-305q0 -78 55.5 -132t134.5 -54q34 0 64 15.5t41 15.5z
M217 730h107q14 0 17.5 -9t-5.5 -18l-115 -121q-12 -12 -30 -12h-69q-11 0 -16 9t3 21l82 114q11 16 26 16zM424 730h107q14 0 17.5 -9t-5.5 -18l-115 -121q-12 -12 -30 -12h-69q-11 0 -16 9t3 21l82 114q11 16 26 16z" />
    <glyph glyph-name="Uogonek" unicode="&#x172;" 
d="M179 680v-470q0 -34 26 -57t69 -23q44 0 70.5 23t26.5 57v470q0 8 6 14t14 6h101q8 0 14 -6t6 -14v-470q0 -81 -48 -135q-56 -63 -66 -85q-12 -23 -12 -50q0 -25 17.5 -42.5t42.5 -17.5q8 0 14 -6t6 -14v-60q0 -8 -6 -14t-14 -6q-79 0 -126.5 40.5t-47.5 119.5
q0 27 13 49h-11q-101 0 -168.5 64.5t-67.5 156.5v470q0 8 6 14t14 6h101q8 0 14 -6t6 -14z" />
    <glyph glyph-name="uogonek" unicode="&#x173;" 
d="M200 480v-306q0 -26 20 -42.5t55 -16.5q34 0 54.5 16t20.5 39v310q0 8 6 14t14 6h90q8 0 14 -6t6 -14v-460q0 -8 -5.5 -14t-12.5 -6h-7q-23 0 -39 -18t-16 -42q0 -25 17.5 -42.5t42.5 -17.5q8 0 14 -6t6 -14v-60q0 -8 -6 -14t-14 -6q-79 0 -126.5 38.5t-47.5 113.5
q0 41 17 64q-21 -7 -43 -7q-79 0 -134.5 54t-55.5 132v305q0 8 6 14t14 6h90q8 0 14 -6t6 -14z" />
    <glyph glyph-name="Wcircumflex" unicode="&#x174;" 
d="M324 485l37 -200q1 -4 4 -6t6.5 0t3.5 6l38 400q1 15 19 15h93q22 0 20 -20l-71 -665q-2 -15 -19 -15h-120q-16 0 -19 15l-35 181q-1 4 -6 4t-6 -4l-35 -181q-3 -15 -19 -15h-120q-17 0 -19 15l-71 665q-2 20 20 20h93q18 0 19 -15l39 -400q0 -4 3.5 -6t6.5 0t4 6l36 200
q3 15 19 15h60q16 0 19 -15zM270 810l-35 -44q-11 -16 -31 -16h-95q-8 0 -11.5 5t-3 11t3.5 9l119 123q12 12 30 12h62q17 0 29 -12l119 -123q6 -5 2.5 -15t-15.5 -10h-94q-20 0 -31 16l-35 44q-7 10 -14 0z" />
    <glyph glyph-name="wcircumflex" unicode="&#x175;" 
d="M238 390h68q15 0 19 -15l37 -150q2 -4 6.5 -4t5.5 4l33 260q1 15 19 15h94q11 0 16 -7t3 -16l-79 -462q-3 -15 -19 -15h-109q-16 0 -19 15l-33 153q-2 5 -7.5 5t-6.5 -5l-28 -153q-3 -15 -19 -15h-109q-16 0 -19 15l-81 462q-2 9 3 16t16 7h94q18 0 19 -15l33 -260
q1 -4 6 -4t6 4l32 150q3 15 19 15zM267 630l-35 -44q-11 -16 -31 -16h-95q-8 0 -11.5 5t-3 11t3.5 9l119 123q12 12 30 12h62q17 0 29 -12l119 -123q6 -5 2.5 -15t-15.5 -10h-94q-20 0 -31 16l-35 44q-7 10 -14 0z" />
    <glyph glyph-name="Ycircumflex" unicode="&#x176;" 
d="M281 408l96 277q5 15 19 15h110q10 0 15 -8.5t1 -19.5l-177 -446v-206q0 -8 -6 -14t-14 -6h-100q-8 0 -14 6t-6 14v206l-177 446q-4 11 1 19.5t15 8.5h110q14 0 19 -15l96 -277q1 -4 5 -4h2q4 0 5 4zM270 810l-35 -44q-11 -16 -31 -16h-95q-8 0 -11.5 5t-3 11t3.5 9
l119 123q12 12 30 12h62q17 0 29 -12l119 -123q6 -5 2.5 -15t-15.5 -10h-94q-20 0 -31 16l-35 44q-7 10 -14 0z" />
    <glyph glyph-name="ycircumflex" unicode="&#x177;" 
d="M185 485l88 -284q2 -6 6.5 -6t5.5 6l81 284q4 15 19 15h101q11 0 16.5 -7.5t2.5 -15.5l-235 -662q-5 -15 -19 -15h-92q-11 0 -16.5 7.5t-2.5 15.5l70 187q4 12 0 22l-166 445q-3 8 2.5 15.5t16.5 7.5h103q14 0 19 -15zM267 630l-35 -44q-11 -16 -31 -16h-95q-8 0 -11.5 5
t-3 11t3.5 9l119 123q12 12 30 12h62q17 0 29 -12l119 -123q6 -5 2.5 -15t-15.5 -10h-94q-20 0 -31 16l-35 44q-7 10 -14 0z" />
    <glyph glyph-name="Ydieresis" unicode="&#x178;" 
d="M377 685l-96 -277q-1 -4 -5 -4h-2q-4 0 -5 4l-96 277q-5 15 -19 15h-110q-10 0 -15 -8.5t-1 -19.5l177 -446v-206q0 -8 6 -14t14 -6h100q8 0 14 6t6 14v206l177 446q4 11 -1 19.5t-15 8.5h-110q-14 0 -19 -15zM240 870v-90q0 -8 -6 -14t-14 -6h-90q-8 0 -14 6t-6 14v90
q0 8 6 14t14 6h90q8 0 14 -6t6 -14zM440 870v-90q0 -8 -6 -14t-14 -6h-90q-8 0 -14 6t-6 14v90q0 8 6 14t14 6h90q8 0 14 -6t6 -14z" />
    <glyph glyph-name="Zacute" unicode="&#x179;" 
d="M487 548l-275 -401q-6 -10 6 -10h264q8 0 14 -6t6 -14v-97q0 -8 -6 -14t-14 -6h-414q-8 0 -14 6t-6 14v119q0 8 5 16l276 398q6 10 -6 10h-240q-8 0 -14 6t-6 14v97q0 8 6 14t14 6h389q8 0 14 -6t6 -14v-116q0 -8 -5 -16zM320 910h107q14 0 17.5 -9t-5.5 -18l-115 -121
q-12 -12 -30 -12h-69q-11 0 -16 9t3 21l82 114q11 16 26 16z" />
    <glyph glyph-name="zacute" unicode="&#x17a;" 
d="M83 141l227 229q3 4 1.5 7t-6.5 3h-205q-8 0 -14 6t-6 14v80q0 8 6 14t14 6h348q8 0 14 -6t6 -14v-87q0 -21 -20 -41l-214 -222q-3 -4 -1.5 -7t6.5 -3h219q8 0 14 -6t6 -14v-80q0 -8 -6 -14t-14 -6h-368q-8 0 -14 6t-6 14v90q0 18 13 31zM310 730h107q14 0 17.5 -9
t-5.5 -18l-115 -121q-12 -12 -30 -12h-69q-11 0 -16 9t3 21l82 114q11 16 26 16z" />
    <glyph glyph-name="Zdotaccent" unicode="&#x17b;" 
d="M487 548l-275 -401q-6 -10 6 -10h264q8 0 14 -6t6 -14v-97q0 -8 -6 -14t-14 -6h-414q-8 0 -14 6t-6 14v119q0 8 5 16l276 398q6 10 -6 10h-240q-8 0 -14 6t-6 14v97q0 8 6 14t14 6h389q8 0 14 -6t6 -14v-116q0 -8 -5 -16zM355 874v-108q0 -16 -16 -16h-108q-16 0 -16 16
v108q0 6 4.5 11t11.5 5h108q7 0 11.5 -5t4.5 -11z" />
    <glyph glyph-name="zdotaccent" unicode="&#x17c;" 
d="M83 141l227 229q3 4 1.5 7t-6.5 3h-205q-8 0 -14 6t-6 14v80q0 8 6 14t14 6h348q8 0 14 -6t6 -14v-87q0 -21 -20 -41l-214 -222q-3 -4 -1.5 -7t6.5 -3h219q8 0 14 -6t6 -14v-80q0 -8 -6 -14t-14 -6h-368q-8 0 -14 6t-6 14v90q0 18 13 31zM345 694v-108q0 -16 -16 -16
h-108q-16 0 -16 16v108q0 6 4.5 11t11.5 5h108q7 0 11.5 -5t4.5 -11z" />
    <glyph glyph-name="Zcaron" unicode="&#x17d;" 
d="M487 548l-275 -401q-6 -10 6 -10h264q8 0 14 -6t6 -14v-97q0 -8 -6 -14t-14 -6h-414q-8 0 -14 6t-6 14v119q0 8 5 16l276 398q6 10 -6 10h-240q-8 0 -14 6t-6 14v97q0 8 6 14t14 6h389q8 0 14 -6t6 -14v-116q0 -8 -5 -16zM232 894l35 -44q7 -10 14 0l35 44q11 16 31 16
h94q12 0 15.5 -10t-2.5 -15l-119 -123q-12 -12 -29 -12h-62q-18 0 -30 12l-119 123q-3 3 -3.5 9t3 11t11.5 5h95q20 0 31 -16z" />
    <glyph glyph-name="zcaron" unicode="&#x17e;" 
d="M83 141l227 229q3 4 1.5 7t-6.5 3h-205q-8 0 -14 6t-6 14v80q0 8 6 14t14 6h348q8 0 14 -6t6 -14v-87q0 -21 -20 -41l-214 -222q-3 -4 -1.5 -7t6.5 -3h219q8 0 14 -6t6 -14v-80q0 -8 -6 -14t-14 -6h-368q-8 0 -14 6t-6 14v90q0 18 13 31zM232 714l35 -44q7 -10 14 0
l35 44q11 16 31 16h94q12 0 15.5 -10t-2.5 -15l-119 -123q-12 -12 -29 -12h-62q-18 0 -30 12l-119 123q-3 3 -3.5 9t3 11t11.5 5h95q20 0 31 -16z" />
    <glyph glyph-name="longs" unicode="&#x17f;" 
d="M320 525v-505q0 -8 -6 -14t-14 -6h-90q-8 0 -14 6t-6 14v347q0 10 -10 10h-110q-8 0 -14 6t-6 14v80q0 8 6 14t14 6h110q10 0 10 10v20q0 77 55.5 130t134.5 53h90q8 0 14 -6t6 -14v-90q0 -8 -6 -14t-14 -6h-90q-25 0 -42.5 -15.5t-17.5 -39.5z" />
    <glyph glyph-name="florin" unicode="&#x192;" 
d="M191 -10v377q0 10 -10 10h-110q-8 0 -14 6t-6 14v80q0 8 6 14t14 6h110q10 0 10 10v20q0 77 55.5 130t134.5 53h90q8 0 14 -6t6 -14v-90q0 -8 -6 -14t-14 -6h-90q-25 0 -42.5 -15.5t-17.5 -39.5v-18q0 -10 10 -10h140q8 0 14 -6t6 -14v-80q0 -8 -6 -14t-14 -6h-140
q-10 0 -10 -10v-377q0 -97 -35 -143.5t-119 -46.5h-71q-8 0 -14 6t-6 14v90q0 8 5.5 14t13.5 6h53q43 0 43 60z" />
    <glyph glyph-name="Aringacute" unicode="&#x1fa;" 
d="M332 1080h107q14 0 17.5 -9t-5.5 -18l-105 -110q47 -34 47 -93q0 -48 -33.5 -82t-81.5 -34t-82 34t-34 82q0 41 25.5 72t64.5 40l54 102q8 16 26 16zM246 850q0 -14 9 -23t23 -9t23 9t9 23t-9 23t-23 9t-23 -9t-9 -23zM182 118l-28 -103q-3 -15 -19 -15h-105
q-11 0 -16.5 6t-3.5 14l179 665q3 15 19 15h134q16 0 19 -15l178 -665q2 -8 -3.5 -14t-16.5 -6h-105q-14 0 -19 15l-31 103q-4 15 -15 15h-152q-12 0 -15 -15zM268 524l-48 -240q-3 -11 8 -11h92q11 0 8 11l-48 240q-1 4 -5 4h-2q-4 0 -5 -4z" />
    <glyph glyph-name="aringacute" unicode="&#x1fb;" 
d="M339 900h107q14 0 17.5 -9t-5.5 -18l-105 -110q47 -34 47 -93q0 -48 -33.5 -82t-81.5 -34t-82 34t-34 82q0 41 25.5 72t64.5 40l54 102q8 16 26 16zM253 670q0 -14 9 -23t23 -9t23 9t9 23t-9 23t-23 9t-23 -9t-9 -23zM348 204h-106q-28 0 -39.5 -16.5t-11.5 -33.5
q0 -26 18.5 -39.5t47.5 -13.5q101 0 101 69v24q0 10 -10 10zM276 397q-69 0 -69 -38q0 -12 -6 -15.5t-21 -3.5h-72q-8 0 -14 6t-6 14q0 62 53 106.5t140 44.5q92 0 146 -47.5t54 -133.5v-310q0 -8 -6 -14t-14 -6h-50q-8 0 -14 7q-2 2 -4.5 8t-6 9t-9.5 3t-21 -9.5t-41 -19
t-58 -9.5q-88 0 -138 43.5t-50 121.5q0 58 46 107t126 49h102q10 0 10 10v16q0 30 -21.5 45.5t-55.5 15.5z" />
    <glyph glyph-name="AEacute" unicode="&#x1fc;" 
d="M284 118v-98q0 -8 6 -14t14 -6h223q8 0 14 6t6 14v100q0 8 -6 14t-14 6h-103q-10 0 -10 10v120q0 10 10 10h94q8 0 14 6t6 14v100q0 8 -6 14t-14 6h-94q-10 0 -10 10v120q0 10 10 10h102q8 0 14 6t6 14v100q0 8 -6 14t-14 6h-311q-14 0 -23 -8.5t-11 -17.5l-176 -654
q-2 -8 3.5 -14t16.5 -6h95q16 0 19 15l28 103q3 15 15 15h87q15 0 15 -15zM274 273h-61q-11 0 -8 11l54 266q3 10 13 10h2q10 0 10 -10v-266q0 -11 -10 -11zM390 910h107q14 0 17.5 -9t-5.5 -18l-115 -121q-12 -12 -30 -12h-69q-11 0 -16 9t3 21l82 114q11 16 26 16z" />
    <glyph glyph-name="aeacute" unicode="&#x1fd;" 
d="M294 24q-20 17 -38 0q-40 -35 -102 -35q-65 0 -108 46t-43 119q0 58 43.5 107t115.5 49h36q10 0 10 10v16q-1 30 -14 45.5t-34 15.5q-31 0 -38 -38q-3 -12 -8 -15.5t-19 -3.5h-62q-8 0 -14 6t-6 14q0 60 39.5 105.5t109.5 45.5q52 0 99 -38q15 -13 30 0q45 38 96 38
q79 0 119.5 -66t40.5 -185v-30q-2 -20 -20 -20h-183q-15 0 -15 -15q0 -42 16 -65.5t45 -23.5q42 0 52 46q4 17 23 17h63q17 0 17 -20q0 -57 -41.5 -108.5t-106.5 -51.5q-63 0 -103 35zM203 204h-46q-20 0 -31 -16.5t-11 -33.5q0 -52 47 -52q51 0 51 78v14q0 10 -10 10z
M324 319q0 -9 10 -9h101q10 0 10 9q0 35 -16 54.5t-42 19.5q-30 0 -46.5 -21.5t-16.5 -52.5zM310 730h107q14 0 17.5 -9t-5.5 -18l-115 -121q-12 -12 -30 -12h-69q-11 0 -16 9t3 21l82 114q11 16 26 16z" />
    <glyph glyph-name="Oslashacute" unicode="&#x1fe;" 
d="M320 910h107q14 0 17.5 -9t-5.5 -18l-115 -121q-12 -12 -30 -12h-69q-11 0 -16 9t3 21l82 114q11 16 26 16zM129 15l5 9q3 5 10 2q56 -37 133 -37q100 0 163.5 63.5t74.5 157.5q17 140 0 280q-8 58 -32 100q-3 10 0 16l40 66q6 9 0 18.5t-16 9.5h-64q-10 0 -19 -15l-5 -7
q-5 -7 -15 -2q-56 35 -127 35q-100 0 -163.5 -63.5t-74.5 -157.5q-17 -140 0 -280q6 -55 31 -99q4 -8 -1 -15l-41 -68q-6 -10 0 -19t16 -9h64q12 0 21 15zM277 130q-37 0 -62 17q-6 3 -2 9l160 265q3 5 5 3t2 -6q5 -112 -6 -208q-4 -35 -28.5 -57.5t-68.5 -22.5zM277 570
q35 0 59 -16q6 -3 1 -13l-157 -260q-3 -5 -5 -4t-2 5q-5 115 7 208q4 35 28.5 57.5t68.5 22.5z" />
    <glyph glyph-name="oslashacute" unicode="&#x1ff;" 
d="M310 730h107q14 0 17.5 -9t-5.5 -18l-115 -121q-12 -12 -30 -12h-69q-11 0 -16 9t3 21l82 114q11 16 26 16zM505 472l-46 -59q-3 -4 -1 -9q18 -36 24 -79q9 -75 0 -150q-10 -82 -64.5 -134t-142.5 -52q-69 0 -118 32q-6 6 -12 -1l-6 -7q-10 -13 -24 -13h-66
q-10 0 -14 9.5t3 18.5l48 59q5 7 2 14q-17 37 -21 74q-9 75 0 150q10 82 64.5 134t142.5 52q65 0 116 -31q6 -3 10 1l4 4q13 15 24 15h64q10 0 15 -9.5t-2 -18.5zM352 175q6 36 4 98q0 4 -1.5 5t-5.5 -3l-113 -140q-7 -8 2 -11q17 -5 36 -5q70 0 78 56zM197 325
q-7 -40 -5 -92q0 -4 2 -5.5t7 3.5l109 137q5 6 -3 9q-12 4 -33 4q-37 0 -54.5 -13.5t-22.5 -42.5z" />
    <glyph glyph-name="Scommaaccent" unicode="&#x218;" 
d="M371 208q0 32 -23.5 49.5t-80.5 30.5q-105 23 -164.5 72.5t-59.5 139.5q0 89 65.5 150t163.5 61q100 0 165 -61t65 -150v-15q0 -8 -6 -14t-14 -6h-101q-8 0 -14 6t-6 14v15q0 31 -24 53t-65 22t-64 -19.5t-23 -50.5q0 -55 89 -72q115 -23 178.5 -75t63.5 -150
q0 -97 -68.5 -158t-175.5 -61q-103 0 -170.5 63.5t-67.5 155.5v30q0 8 6 14t14 6h101q8 0 14 -6t6 -14v-30q0 -36 26 -59t71 -23q44 0 71.5 23t27.5 59zM249 -185h-24q-8 0 -14 6t-6 14v100q0 8 6 14t14 6h100q8 0 14 -6t6 -14v-97q0 -36 -22 -69l-34 -54q-13 -20 -34 -20
h-10q-15 0 -21.5 12.5t0.5 25.5l34 69q3 5 -0.5 9t-8.5 4z" />
    <glyph glyph-name="scommaaccent" unicode="&#x219;" 
d="M62 164q0 8 6 14t14 6h76q17 0 22.5 -5.5t7.5 -19.5q5 -52 88 -52q42 0 67 12t25 35t-24 32t-68 14q-35 4 -66.5 13t-64 26t-51.5 48.5t-19 72.5q0 64 62 107.5t139 43.5q81 0 139.5 -41.5t58.5 -114.5q0 -25 -20 -25h-75q-19 0 -23 25q-4 23 -26.5 34.5t-53.5 11.5
q-80 0 -80 -41q0 -7 2.5 -13t9.5 -10t12 -7t17 -5.5t18 -3.5t21 -4q94 -17 124 -30q88 -38 88 -135q0 -72 -62 -117.5t-150 -45.5q-91 0 -152.5 43.5t-61.5 131.5zM249 -185h-24q-8 0 -14 6t-6 14v100q0 8 6 14t14 6h100q8 0 14 -6t6 -14v-97q0 -36 -22 -69l-34 -54
q-13 -20 -34 -20h-10q-15 0 -21.5 12.5t0.5 25.5l34 69q3 5 -0.5 9t-8.5 4z" />
    <glyph glyph-name="uni021A" unicode="&#x21a;" 
d="M194 560h-135q-8 0 -14 6t-6 14v100q0 8 6 14t14 6h430q8 0 14 -6t6 -14v-100q0 -8 -6 -14t-14 -6h-135q-10 0 -10 -10v-530q0 -8 -6 -14t-14 -6h-100q-8 0 -14 6t-6 14v530q0 10 -10 10zM249 -185h-24q-8 0 -14 6t-6 14v100q0 8 6 14t14 6h100q8 0 14 -6t6 -14v-97
q0 -36 -22 -69l-34 -54q-13 -20 -34 -20h-10q-15 0 -21.5 12.5t0.5 25.5l34 69q3 5 -0.5 9t-8.5 4z" />
    <glyph glyph-name="uni021B" unicode="&#x21b;" 
d="M279 367v-197q0 -24 17 -37.5t43 -13.5t43 13.5t17 37.5q0 8 6 14t14 6h90q8 0 14 -6t6 -14q0 -77 -55.5 -129t-134.5 -52t-134.5 51t-55.5 128v199q0 10 -10 10h-98q-8 0 -14 6t-6 14v80q0 8 6 14t14 6h98q10 0 10 10v153q0 8 6 14t14 6h90q8 0 14 -6t6 -14v-153
q0 -10 10 -10h170q8 0 14 -6t6 -14v-80q0 -8 -6 -14t-14 -6h-170q-10 0 -10 -10zM249 -185h-24q-8 0 -14 6t-6 14v100q0 8 6 14t14 6h100q8 0 14 -6t6 -14v-97q0 -36 -22 -69l-34 -54q-13 -20 -34 -20h-10q-15 0 -21.5 12.5t0.5 25.5l34 69q3 5 -0.5 9t-8.5 4z" />
    <glyph glyph-name="hsuperior" unicode="&#x2b0;" 
d="M239 350h-60q-10 0 -10 10v336q0 10 10 10h60q10 0 10 -10v-91q0 -19 15 -12q26 13 40 13q35 0 55.5 -26t20.5 -66v-154q0 -10 -10 -10h-60q-10 0 -10 10v154q0 15 -25 15q-26 0 -26 -16v-153q0 -10 -10 -10z" />
    <glyph glyph-name="jsuperior" unicode="&#x2b2;" 
d="M383 698v-68q0 -8 -8 -8h-69q-8 0 -8 8v68q0 8 8 8h69q8 0 8 -8zM380 340v254q0 6 -7 6h-128q-10 0 -10 -10v-61q0 -10 10 -10h51q5 0 5 -5v-173q0 -25 -28 -25q-26 0 -26 27q0 10 -10 10h-60q-10 0 -10 -10q0 -43 31 -71t75 -28q45 0 76 27t31 69z" />
    <glyph glyph-name="wsuperior" unicode="&#x2b7;" 
d="M260 545h26q8 0 9 -8l24 -80q2 -3 5 0l12 136q0 7 10 7h64q11 0 9 -12l-37 -231q-1 -7 -10 -7h-64q-9 0 -10 7l-20 71q-2 4 -8 0l-16 -70q-1 -8 -10 -8h-64q-8 0 -10 8l-39 231q-2 11 10 11h63q10 0 10 -7l12 -136q0 -2 2.5 -1.5t2.5 1.5l19 81q1 7 10 7z" />
    <glyph glyph-name="ysuperior" unicode="&#x2b8;" 
d="M242 593l31 -127q3 -7 7 -3q1 1 1 3l27 126q1 8 10 8h66q6 0 8.5 -4t0.5 -8l-110 -331q-3 -7 -10 -7h-60q-6 0 -8.5 4t-0.5 8l33 86q3 9 0 15l-81 226q-2 4 1 7.5t9 3.5h67q8 0 9 -7z" />
    <glyph glyph-name="apostrophemod" unicode="&#x2bc;" 
d="M242 540h-24q-8 0 -14 6t-6 14v120q0 8 6 14t14 6h120q8 0 14 -6t6 -14v-117q0 -40 -22 -69l-64 -84q-13 -20 -34 -20h-20q-15 0 -22 12t1 26l54 99q3 5 -0.5 9t-8.5 4z" />
    <glyph glyph-name="circumflex" unicode="&#x2c6;" 
d="M267 630l-35 -44q-11 -16 -31 -16h-95q-8 0 -11.5 5t-3 11t3.5 9l119 123q12 12 30 12h62q17 0 29 -12l119 -123q6 -5 2.5 -15t-15.5 -10h-94q-20 0 -31 16l-35 44q-7 10 -14 0z" />
    <glyph glyph-name="caron" unicode="&#x2c7;" 
d="M231 714l35 -44q7 -10 14 0l35 44q11 16 31 16h94q12 0 15.5 -10t-2.5 -15l-119 -123q-12 -12 -29 -12h-62q-18 0 -30 12l-119 123q-3 3 -3.5 9t3 11t11.5 5h95q20 0 31 -16z" />
    <glyph glyph-name="breve" unicode="&#x2d8;" 
d="M335 713q0 7 5 12t12 5h63q7 0 12 -5t5 -12q0 -60 -44 -103t-113 -43q-70 0 -114 43t-44 103q0 7 5 12t12 5h63q7 0 12 -5t5 -12q0 -23 18.5 -39.5t42.5 -16.5t42 16.5t18 39.5z" />
    <glyph glyph-name="dotaccent" unicode="&#x2d9;" 
d="M345 694v-108q0 -16 -16 -16h-108q-16 0 -16 16v108q0 6 4.5 11t11.5 5h108q7 0 11.5 -5t4.5 -11z" />
    <glyph glyph-name="ring" unicode="&#x2da;" 
d="M159 670q0 48 34 81.5t82 33.5t81.5 -33.5t33.5 -81.5t-33.5 -82t-81.5 -34t-82 34t-34 82zM243 670q0 -14 9 -23t23 -9t23 9t9 23t-9 23t-23 9t-23 -9t-9 -23z" />
    <glyph glyph-name="ogonek" unicode="&#x2db;" 
d="M354 0q-25 0 -42.5 -17.5t-17.5 -42.5t17.5 -42.5t42.5 -17.5q8 0 14 -6t6 -14v-60q0 -8 -6 -14t-14 -6q-79 0 -126.5 40.5t-47.5 119.5q0 72 51.5 116t122.5 44q8 0 14 -6t6 -14v-60q0 -8 -6 -14t-14 -6z" />
    <glyph glyph-name="tilde" unicode="&#x2dc;" 
d="M365 684q29 0 46 21q6 8 15.5 4t9.5 -18v-60q0 -20 -21 -35.5t-50 -15.5q-31 0 -88 12.5t-92 12.5q-28 0 -46 -21q-6 -8 -15.5 -3.5t-9.5 17.5v60q0 20 21 35.5t50 15.5q31 0 88.5 -12.5t91.5 -12.5z" />
    <glyph glyph-name="hungarumlaut" unicode="&#x2dd;" 
d="M180 730h107q14 0 17.5 -9t-5.5 -18l-115 -121q-12 -12 -30 -12h-69q-11 0 -16 9t3 21l82 114q11 16 26 16zM387 730h107q14 0 17.5 -9t-5.5 -18l-115 -121q-12 -12 -30 -12h-69q-11 0 -16 9t3 21l82 114q11 16 26 16z" />
    <glyph glyph-name="xsuperior" unicode="&#x2e3;" 
d="M272 415l-30 -60q-2 -5 -11 -5h-67q-7 0 -9.5 4.5t1.5 11.5l63 105q5 7 0 15l-54 97q-9 17 8 17h60q9 0 11 -5l28 -55q4 -7 8 0l28 55q2 5 11 5h60q17 0 8 -16l-56 -98q-5 -8 -1 -15l63 -105q4 -6 1.5 -11t-9.5 -5h-67q-9 0 -11 5l-28 61q-3 7 -7 -1z" />
    <glyph glyph-name="Delta" unicode="&#x394;" 
d="M513 0h-476q-8 0 -14 6t-6 14v51q0 11 7 29l200 585q4 15 19 15h64q15 0 19 -15l200 -585q7 -18 7 -29v-51q0 -8 -6 -14t-14 -6zM159 118h232q8 0 4 10l-115 373q-2 4 -4 4h-2q-4 0 -4 -4l-115 -373q-4 -10 4 -10z" />
    <glyph glyph-name="Omega" unicode="&#x3a9;" 
d="M446 142q-9 -5 -6.5 -13.5t13.5 -8.5h57q8 0 14 -6t6 -14v-80q0 -8 -6 -14t-14 -6h-186q-8 0 -14 6t-6 14v109q0 29 25 46q85 62 85 226q0 79 -35.5 127t-103.5 48q-67 0 -102.5 -48t-35.5 -127q0 -164 85 -226q25 -17 25 -46v-109q0 -8 -6 -14t-14 -6h-186q-8 0 -14 6
t-6 14v80q0 8 6 14t14 6h57q11 0 13.5 8t-5.5 13q-48 35 -72 111t-24 150q0 127 70.5 214t194.5 87t195 -87.5t71 -213.5q0 -76 -23.5 -150t-71.5 -110z" />
    <glyph glyph-name="mu" unicode="&#x3bc;" 
d="M70 -180q0 110 0.5 330t0.5 330q0 8 5.5 14t13.5 6h60h10h11.5t10 -1t10 -3t6 -6t2.5 -10v-306q0 -26 20 -42.5t55 -16.5q34 0 54.5 16t20.5 39v310q0 8 6 14t14 6h90q8 0 14 -6t6 -14v-460q0 -8 -6 -14t-14 -6h-50q-12 0 -23 10t-22 10q-9 0 -35 -15t-58 -15
q-18 0 -42 11q-12 5 -21 0t-9 -21v-160q0 -8 -6 -14t-14 -6h-90q-8 0 -14 6t-6 14z" />
    <glyph glyph-name="pi" unicode="&#x3c0;" 
d="M504 370h-61q-10 0 -10 -10v-170q0 -38 17 -54.5t59 -16.5q8 0 14 -6t6 -14v-79q0 -8 -6 -14t-14 -6q-100 0 -150 46t-50 144v170q0 10 -8 10h-67q-10 0 -10 -10v-340q0 -8 -6 -14t-14 -6h-85q-8 0 -14 6t-6 14v340q0 10 -10 10h-45q-8 0 -14 6t-6 14v90q0 8 6 14t14 6
h460q8 0 14 -6t6 -14v-90q0 -8 -6 -14t-14 -6z" />
    <glyph glyph-name="Wgrave" unicode="&#x1e80;" 
d="M324 485l37 -200q1 -4 4 -6t6.5 0t3.5 6l38 400q1 15 19 15h93q22 0 20 -20l-71 -665q-2 -15 -19 -15h-120q-16 0 -19 15l-35 181q-1 4 -6 4t-6 -4l-35 -181q-3 -15 -19 -15h-120q-17 0 -19 15l-71 665q-2 20 20 20h93q18 0 19 -15l39 -400q0 -4 3.5 -6t6.5 0t4 6l36 200
q3 15 19 15h60q16 0 19 -15zM113 910h107q15 0 26 -16l82 -114q8 -12 3 -21t-16 -9h-69q-18 0 -30 12l-115 121q-9 9 -5.5 18t17.5 9z" />
    <glyph glyph-name="wgrave" unicode="&#x1e81;" 
d="M238 390h68q15 0 19 -15l37 -150q2 -4 6.5 -4t5.5 4l33 260q1 15 19 15h94q11 0 16 -7t3 -16l-79 -462q-3 -15 -19 -15h-109q-16 0 -19 15l-33 153q-2 5 -7.5 5t-6.5 -5l-28 -153q-3 -15 -19 -15h-109q-16 0 -19 15l-81 462q-2 9 3 16t16 7h94q18 0 19 -15l33 -260
q1 -4 6 -4t6 4l32 150q3 15 19 15zM133 730h107q15 0 26 -16l82 -114q8 -12 3 -21t-16 -9h-69q-18 0 -30 12l-115 121q-9 9 -5.5 18t17.5 9z" />
    <glyph glyph-name="Wacute" unicode="&#x1e82;" 
d="M361 285l-37 200q-3 15 -19 15h-60q-16 0 -19 -15l-36 -200q-1 -4 -4 -6t-6.5 0t-3.5 6l-39 400q-1 15 -19 15h-93q-22 0 -20 -20l71 -665q2 -15 19 -15h120q16 0 19 15l35 181q1 4 6 4t6 -4l35 -181q3 -15 19 -15h120q17 0 19 15l71 665q2 20 -20 20h-93q-18 0 -19 -15
l-38 -400q0 -4 -3.5 -6t-6.5 0t-4 6zM320 910h107q14 0 17.5 -9t-5.5 -18l-115 -121q-12 -12 -30 -12h-69q-11 0 -16 9t3 21l82 114q11 16 26 16z" />
    <glyph glyph-name="wacute" unicode="&#x1e83;" 
d="M306 390h-68q-16 0 -19 -15l-32 -150q-1 -4 -6 -4t-6 4l-33 260q-1 15 -19 15h-94q-11 0 -16 -7t-3 -16l81 -462q3 -15 19 -15h109q16 0 19 15l28 153q1 5 6.5 5t7.5 -5l33 -153q3 -15 19 -15h109q16 0 19 15l79 462q2 9 -3 16t-16 7h-94q-18 0 -19 -15l-33 -260
q-1 -4 -5.5 -4t-6.5 4l-37 150q-4 15 -19 15zM310 730h107q14 0 17.5 -9t-5.5 -18l-115 -121q-12 -12 -30 -12h-69q-11 0 -16 9t3 21l82 114q11 16 26 16z" />
    <glyph glyph-name="Wdieresis" unicode="&#x1e84;" 
d="M361 285l-37 200q-3 15 -19 15h-60q-16 0 -19 -15l-36 -200q-1 -4 -4 -6t-6.5 0t-3.5 6l-39 400q-1 15 -19 15h-93q-22 0 -20 -20l71 -665q2 -15 19 -15h120q16 0 19 15l35 181q1 4 6 4t6 -4l35 -181q3 -15 19 -15h120q17 0 19 15l71 665q2 20 -20 20h-93q-18 0 -19 -15
l-38 -400q0 -4 -3.5 -6t-6.5 0t-4 6zM240 870v-90q0 -8 -6 -14t-14 -6h-90q-8 0 -14 6t-6 14v90q0 8 6 14t14 6h90q8 0 14 -6t6 -14zM440 870v-90q0 -8 -6 -14t-14 -6h-90q-8 0 -14 6t-6 14v90q0 8 6 14t14 6h90q8 0 14 -6t6 -14z" />
    <glyph glyph-name="wdieresis" unicode="&#x1e85;" 
d="M306 390h-68q-16 0 -19 -15l-32 -150q-1 -4 -6 -4t-6 4l-33 260q-1 15 -19 15h-94q-11 0 -16 -7t-3 -16l81 -462q3 -15 19 -15h109q16 0 19 15l28 153q1 5 6.5 5t7.5 -5l33 -153q3 -15 19 -15h109q16 0 19 15l79 462q2 9 -3 16t-16 7h-94q-18 0 -19 -15l-33 -260
q-1 -4 -5.5 -4t-6.5 4l-37 150q-4 15 -19 15zM240 690v-90q0 -8 -6 -14t-14 -6h-90q-8 0 -14 6t-6 14v90q0 8 6 14t14 6h90q8 0 14 -6t6 -14zM440 690v-90q0 -8 -6 -14t-14 -6h-90q-8 0 -14 6t-6 14v90q0 8 6 14t14 6h90q8 0 14 -6t6 -14z" />
    <glyph glyph-name="Ygrave" unicode="&#x1ef2;" 
d="M281 408l96 277q5 15 19 15h110q10 0 15 -8.5t1 -19.5l-177 -446v-206q0 -8 -6 -14t-14 -6h-100q-8 0 -14 6t-6 14v206l-177 446q-4 11 1 19.5t15 8.5h110q14 0 19 -15l96 -277q1 -4 5 -4h2q4 0 5 4zM113 910h107q15 0 26 -16l82 -114q8 -12 3 -21t-16 -9h-69
q-18 0 -30 12l-115 121q-9 9 -5.5 18t17.5 9z" />
    <glyph glyph-name="ygrave" unicode="&#x1ef3;" 
d="M185 485l88 -284q2 -6 6.5 -6t5.5 6l81 284q4 15 19 15h101q11 0 16.5 -7.5t2.5 -15.5l-235 -662q-5 -15 -19 -15h-92q-11 0 -16.5 7.5t-2.5 15.5l70 187q4 12 0 22l-166 445q-3 8 2.5 15.5t16.5 7.5h103q14 0 19 -15zM133 730h107q15 0 26 -16l82 -114q8 -12 3 -21
t-16 -9h-69q-18 0 -30 12l-115 121q-9 9 -5.5 18t17.5 9z" />
    <glyph glyph-name="endash" unicode="&#x2013;" 
d="M70 325h410q8 0 14 -6t6 -14v-89q0 -8 -6 -14t-14 -6h-410q-8 0 -14 6t-6 14v89q0 8 6 14t14 6z" />
    <glyph glyph-name="emdash" unicode="&#x2014;" 
d="M-3 325h557q8 0 14 -6t6 -14v-89q0 -8 -6 -14t-14 -6h-557q-8 0 -14 6t-6 14v89q0 8 6 14t14 6z" />
    <glyph glyph-name="quoteleft" unicode="&#x2018;" 
d="M308 550h24q8 0 14 -6t6 -14v-120q0 -8 -6 -14t-14 -6h-120q-8 0 -14 6t-6 14v117q0 40 22 69l64 84q13 20 34 20h20q15 0 22 -12t-1 -26l-54 -99q-3 -5 0.5 -9t8.5 -4z" />
    <glyph glyph-name="quoteright" unicode="&#x2019;" 
d="M242 540h-24q-8 0 -14 6t-6 14v120q0 8 6 14t14 6h120q8 0 14 -6t6 -14v-117q0 -40 -22 -69l-64 -84q-13 -20 -34 -20h-20q-15 0 -22 12t1 26l54 99q3 5 -0.5 9t-8.5 4z" />
    <glyph glyph-name="quotesinglbase" unicode="&#x201a;" 
d="M241 0h-24q-8 0 -14 6t-6 14v120q0 8 6 14t14 6h120q8 0 14 -6t6 -14v-117q0 -40 -22 -69l-64 -84q-13 -20 -34 -20h-20q-15 0 -22 12t1 26l54 99q3 5 -0.5 9t-8.5 4z" />
    <glyph glyph-name="quotedblleft" unicode="&#x201c;" 
d="M198 550h24q8 0 14 -6t6 -14v-120q0 -8 -6 -14t-14 -6h-120q-8 0 -14 6t-6 14v117q0 40 22 69l64 84q13 20 34 20h20q15 0 22 -12t-1 -26l-54 -99q-3 -5 0.5 -9t8.5 -4zM418 550h24q8 0 14 -6t6 -14v-120q0 -8 -6 -14t-14 -6h-120q-8 0 -14 6t-6 14v117q0 40 22 69l64 84
q13 20 34 20h20q15 0 22 -12t-1 -26l-54 -99q-3 -5 0.5 -9t8.5 -4z" />
    <glyph glyph-name="quotedblright" unicode="&#x201d;" 
d="M350 540h-24q-8 0 -14 6t-6 14v120q0 8 6 14t14 6h120q8 0 14 -6t6 -14v-117q0 -40 -22 -69l-64 -84q-13 -20 -34 -20h-20q-15 0 -22 12t1 26l54 99q3 5 -0.5 9t-8.5 4zM130 540h-24q-8 0 -14 6t-6 14v120q0 8 6 14t14 6h120q8 0 14 -6t6 -14v-117q0 -40 -22 -69l-64 -84
q-13 -20 -34 -20h-20q-15 0 -22 12t1 26l54 99q3 5 -0.5 9t-8.5 4z" />
    <glyph glyph-name="quotedblbase" unicode="&#x201e;" 
d="M351 0h-24q-8 0 -14 6t-6 14v120q0 8 6 14t14 6h120q8 0 14 -6t6 -14v-117q0 -40 -22 -69l-64 -84q-13 -20 -34 -20h-20q-15 0 -22 12t1 26l54 99q3 5 -0.5 9t-8.5 4zM131 0h-24q-8 0 -14 6t-6 14v120q0 8 6 14t14 6h120q8 0 14 -6t6 -14v-117q0 -40 -22 -69l-64 -84
q-13 -20 -34 -20h-20q-15 0 -22 12t1 26l54 99q3 5 -0.5 9t-8.5 4z" />
    <glyph glyph-name="dagger" unicode="&#x2020;" 
d="M335 360v-460q0 -8 -6 -14t-14 -6h-80q-8 0 -14 6t-6 14v460q0 10 -10 10h-130q-8 0 -14 6t-6 14v80q0 8 6 14t14 6h130q10 0 10 10v180q0 8 6 14t14 6h80q8 0 14 -6t6 -14v-180q0 -10 10 -10h130q8 0 14 -6t6 -14v-80q0 -8 -6 -14t-14 -6h-130q-10 0 -10 -10z" />
    <glyph glyph-name="daggerdbl" unicode="&#x2021;" 
d="M208 158h-128q-8 0 -14 6t-6 14v78q0 8 6 14t14 6h128q10 0 10 10v128q0 10 -10 10h-128q-8 0 -14 6t-6 14v78q0 8 6 14t14 6h128q10 0 10 10v128q0 8 6 14t14 6h74q8 0 14 -6t6 -14v-128q0 -10 10 -10h128q8 0 14 -6t6 -14v-78q0 -8 -6 -14t-14 -6h-128q-10 0 -10 -10
v-128q0 -10 10 -10h128q8 0 14 -6t6 -14v-78q0 -8 -6 -14t-14 -6h-128q-10 0 -10 -10v-128q0 -8 -6 -14t-14 -6h-74q-8 0 -14 6t-6 14v128q0 10 -10 10z" />
    <glyph glyph-name="bullet" unicode="&#x2022;" 
d="M366 337v-143q0 -8 -6 -14t-14 -6h-143q-8 0 -14 6t-6 14v143q0 8 6 14t14 6h143q8 0 14 -6t6 -14z" />
    <glyph glyph-name="ellipsis" unicode="&#x2026;" 
d="M151 140v-120q0 -8 -6 -14t-14 -6h-110q-8 0 -14 6t-6 14v120q0 8 6 14t14 6h110q8 0 14 -6t6 -14zM549 140v-120q0 -8 -6 -14t-14 -6h-110q-8 0 -14 6t-6 14v120q0 8 6 14t14 6h110q8 0 14 -6t6 -14zM351 140v-120q0 -8 -6 -14t-14 -6h-110q-8 0 -14 6t-6 14v120
q0 8 6 14t14 6h110q8 0 14 -6t6 -14z" />
    <glyph glyph-name="perthousand" unicode="&#x2030;" 
d="M392 672l-266 -657q-6 -15 -21 -15h-47q-10 0 -15 8.5t-1 19.5l264 657q6 15 22 15h48q10 0 15 -9t1 -19zM307 150q0 -59 29 -59t29 59t-29 59t-29 -59zM229 150q0 140 107 140t107 -140t-107 -140t-107 140zM71 550q0 -59 29 -59t29 59t-29 59t-29 -59zM-7 550
q0 140 107 140t107 -140t-107 -140t-107 140zM423 440q0 -59 29 -59t29 59t-29 59t-29 -59zM345 440q0 140 107 140t107 -140t-107 -140t-107 140z" />
    <glyph glyph-name="guilsinglleft" unicode="&#x2039;" 
d="M166 274l96 161q9 15 25 15h80q15 0 19.5 -8.5t-3.5 -24.5l-85 -145q-8 -11 0 -24l85 -145q8 -16 3.5 -24.5t-19.5 -8.5h-80q-16 0 -25 15l-96 161q-9 14 0 28z" />
    <glyph glyph-name="guilsinglright" unicode="&#x203a;" 
d="M287 435l96 -161q9 -14 0 -28l-96 -161q-9 -15 -25 -15h-80q-15 0 -19.5 8.5t3.5 24.5l85 145q8 13 0 24l-85 145q-8 16 -3.5 24.5t19.5 8.5h80q16 0 25 -15z" />
    <glyph glyph-name="fraction" unicode="&#x2044;" horiz-adv-x="0" 
d="M265 672l-426 -657q-9 -15 -21 -15h-67q-10 0 -16 9t0 19l427 657q9 15 22 15h65q10 0 16 -9t0 -19z" />
    <glyph glyph-name="zerosuperior" unicode="&#x2070;" 
d="M160 591q5 49 38 82.5t77 33.5q45 0 77 -35.5t37 -80.5q7 -66 0 -132q-6 -49 -38.5 -82.5t-75.5 -33.5q-45 0 -77.5 35.5t-37.5 80.5q-8 66 0 132zM275 622q-11 0 -18.5 -8.5t-8.5 -18.5q-6 -70 0 -140q1 -12 9 -19t18 -7q11 0 18 8t8 18q6 70 0 140q-1 12 -9 19.5
t-17 7.5z" />
    <glyph glyph-name="foursuperior" unicode="&#x2074;" 
d="M367 489h14q10 0 10 -10v-58q0 -10 -10 -10h-14q-5 0 -5 -5v-46q0 -10 -10 -10h-61q-10 0 -10 10v46q0 5 -5 5h-108q-10 0 -10 10v74q0 6 8 20l105 178q3 7 11 7h70q10 0 10 -10v-196q0 -5 5 -5zM274 564l-35 -68q-3 -7 4 -7h33q5 0 5 5v68q0 3 -2.5 3.5t-4.5 -1.5z" />
    <glyph glyph-name="fivesuperior" unicode="&#x2075;" 
d="M366 615h-115q-5 0 -5 -5v-25q0 -8 8 -5q12 6 26 6q51 0 81 -32t31 -87q1 -48 -30.5 -86t-87.5 -38q-52 0 -84.5 25.5t-32.5 80.5q0 10 10 10h63q10 0 10 -10q0 -20 30 -20q37 0 37 38q0 42 -33 42q-14 0 -24 -6q-8 -5 -14 -5h-65q-10 0 -10 10v182q0 10 10 10h195
q10 0 10 -10v-65q0 -10 -10 -10z" />
    <glyph glyph-name="sixsuperior" unicode="&#x2076;" 
d="M293 583q49 0 75 -33t26 -86q0 -52 -33 -86.5t-85 -34.5q-47 0 -79.5 32.5t-37.5 79.5q-8 70 0 140q5 47 38 79.5t77 32.5t81 -29.5t37 -69.5q0 -10 -10 -10h-50q-14 0 -18 9q-14 23 -35 23q-15 0 -27.5 -9t-12.5 -23q0 -21 13 -21q4 0 17 3t24 3zM276 424q36 0 36 44
q0 19 -10 29.5t-26 10.5q-36 0 -36 -40q0 -22 10 -33t26 -11z" />
    <glyph glyph-name="sevensuperior" unicode="&#x2077;" 
d="M184 362l114 249q2 5 -4 5h-120q-10 0 -10 10v64q0 10 10 10h201q10 0 10 -10v-80q0 -2 -3 -10l-108 -243q-4 -7 -10 -7h-71q-6 0 -8.5 4t-0.5 8z" />
    <glyph glyph-name="eightsuperior" unicode="&#x2078;" 
d="M275 420q17 0 27 11t10 27q0 15 -10 25t-27 10t-27 -10t-10 -25q0 -16 10 -27t27 -11zM275 562q13 0 23 10t10 23q0 12 -10 23t-23 11t-23 -11t-10 -23q0 -13 10 -23t23 -10zM274 707q48 0 81.5 -31t33.5 -76q0 -36 -26 -67q-6 -6 0 -10q30 -25 30 -70q0 -46 -34.5 -78
t-83.5 -32t-83.5 32t-34.5 78q0 47 29 70q6 4 -1 10q-26 26 -26 67q0 44 34 75.5t81 31.5z" />
    <glyph glyph-name="ninesuperior" unicode="&#x2079;" 
d="M256 467q-49 0 -75 33t-26 86q0 52 33 86.5t85 34.5q47 0 79.5 -32.5t37.5 -79.5q8 -70 0 -140q-5 -47 -38 -79.5t-77 -32.5t-81 29.5t-37 69.5q0 10 10 10h50q13 0 18 -9q14 -23 35 -23q15 0 27.5 9t12.5 23q0 21 -13 21q-5 0 -18 -3t-23 -3zM273 626q-36 0 -36 -44
q0 -19 10 -29.5t26 -10.5q36 0 36 40q0 22 -10 33t-26 11z" />
    <glyph glyph-name="plussuperior" unicode="&#x207a;" 
d="M175 515h55q5 0 5 5v55q0 10 10 10h59q10 0 10 -10v-55q0 -5 5 -5h56q10 0 10 -10v-59q0 -10 -10 -10h-56q-5 0 -5 -5v-56q0 -10 -10 -10h-59q-10 0 -10 10v56q0 5 -5 5h-55q-10 0 -10 10v59q0 10 10 10z" />
    <glyph glyph-name="minussuperior" unicode="&#x207b;" 
d="M167 519h216q10 0 10 -10v-57q0 -10 -10 -10h-216q-10 0 -10 10v57q0 10 10 10z" />
    <glyph glyph-name="equalsuperior" unicode="&#x207c;" 
d="M375 489h-200q-10 0 -10 10v57q0 10 10 10h200q10 0 10 -10v-57q0 -10 -10 -10zM375 384h-200q-10 0 -10 10v57q0 10 10 10h200q10 0 10 -10v-57q0 -10 -10 -10z" />
    <glyph glyph-name="parenleftsuperior" unicode="&#x207d;" 
d="M309 384h36q10 0 10 -10v-59q0 -10 -10 -10h-36q-45 0 -76 28.5t-37 76.5q-4 30 -4 97.5t4 97.5q6 43 36 74t77 31h38q10 0 10 -10v-59q0 -10 -10 -10h-38q-11 0 -14.5 -0.5t-9.5 -6.5t-9 -19q-7 -31 -7 -97.5t7 -97.5q3 -15 10 -20.5t23 -5.5z" />
    <glyph glyph-name="parenrightsuperior" unicode="&#x207e;" 
d="M204 384h37q16 0 22.5 5.5t9.5 20.5q7 31 7 97.5t-7 97.5q-3 13 -8.5 19t-9 6.5t-14.5 0.5h-39q-10 0 -10 10v59q0 10 10 10h39q47 0 76.5 -30.5t35.5 -74.5q4 -30 4 -97.5t-4 -97.5q-6 -48 -36.5 -76.5t-75.5 -28.5h-37q-10 0 -10 10v59q0 10 10 10z" />
    <glyph glyph-name="nsuperior" unicode="&#x207f;" 
d="M232 588q6 0 24 9t32 9q39 0 65 -26.5t26 -65.5v-154q0 -10 -10 -10h-60q-10 0 -10 10v155q0 7 -6 14t-19 7q-11 0 -17.5 -7t-6.5 -12v-157q0 -10 -10 -10h-60q-10 0 -10 10v230q0 10 10 10h27q7 0 15 -8q4 -4 10 -4z" />
    <glyph glyph-name="zeroinferior" unicode="&#x2080;" 
d="M160 59q5 49 38 82.5t77 33.5q45 0 77 -35.5t37 -80.5q7 -66 0 -132q-6 -49 -38.5 -82.5t-75.5 -33.5q-45 0 -77.5 35.5t-37.5 80.5q-8 66 0 132zM275 90q-11 0 -18.5 -8.5t-8.5 -18.5q-6 -70 0 -140q1 -12 9 -19t18 -7q11 0 18 8t8 18q6 70 0 140q-1 12 -9 19.5t-17 7.5
z" />
    <glyph glyph-name="oneinferior" unicode="&#x2081;" 
d="M243 -92v142q0 6 -5 7.5t-8 -2.5l-53 -40q-7 -5 -14.5 -1t-7.5 13v55q0 16 6 23l48 46q17 17 36 17h74q10 0 10 -10v-250q0 -5 5 -5h52q10 0 10 -10v-65q0 -10 -10 -10h-216q-10 0 -10 10v65q0 10 10 10h68q5 0 5 5z" />
    <glyph glyph-name="twoinferior" unicode="&#x2082;" 
d="M303 70q0 10 -7.5 17t-19.5 7q-30 0 -30 -30v-9q0 -10 -10 -10h-64q-4 0 -7 3.5t-3 6.5v8q0 47 34 79.5t81 32.5q48 0 81 -28.5t33 -74.5q0 -38 -36 -74l-84 -84q-2 -2 -2.5 -4.5t1.5 -4.5t7 -2h109q10 0 10 -10v-65q0 -10 -10 -10h-217q-10 0 -10 10v79q0 8 4 12
l107 106q33 31 33 45z" />
    <glyph glyph-name="threeinferior" unicode="&#x2083;" 
d="M308 -70q0 16 -11 24.5t-23 8.5h-6q-10 0 -10 10v42q0 10 10 10h6q12 0 22 9t10 24t-8.5 24t-22.5 9q-13 0 -21.5 -8.5t-8.5 -19.5v-8q0 -10 -10 -10h-64q-10 0 -10 10v8q0 46 34 79t80 33q47 0 80 -33t33 -79q0 -34 -24 -64q-4 -5 0 -7q27 -21 27 -66q0 -48 -34 -81.5
t-82 -33.5t-82 33.5t-34 81.5v6q0 10 10 10h63q10 0 10 -10v-6q0 -14 9 -22.5t24 -8.5q33 0 33 35z" />
    <glyph glyph-name="fourinferior" unicode="&#x2084;" 
d="M367 -43h14q10 0 10 -10v-58q0 -10 -10 -10h-14q-5 0 -5 -5v-46q0 -10 -10 -10h-61q-10 0 -10 10v46q0 5 -5 5h-108q-10 0 -10 10v74q0 6 8 20l105 178q3 7 11 7h70q10 0 10 -10v-196q0 -5 5 -5zM274 32l-35 -68q-3 -7 4 -7h33q5 0 5 5v68q0 3 -2.5 3.5t-4.5 -1.5z" />
    <glyph glyph-name="fiveinferior" unicode="&#x2085;" 
d="M366 83h-115q-5 0 -5 -5v-25q0 -8 8 -5q12 6 26 6q51 0 81 -32t31 -87q1 -48 -30.5 -86t-87.5 -38q-52 0 -84.5 25.5t-32.5 80.5q0 10 10 10h63q10 0 10 -10q0 -20 30 -20q37 0 37 38q0 42 -33 42q-14 0 -24 -6q-8 -5 -14 -5h-65q-10 0 -10 10v182q0 10 10 10h195
q10 0 10 -10v-65q0 -10 -10 -10z" />
    <glyph glyph-name="sixinferior" unicode="&#x2086;" 
d="M293 51q49 0 75 -33t26 -86q0 -52 -33 -86.5t-85 -34.5q-47 0 -79.5 32.5t-37.5 79.5q-8 70 0 140q5 47 38 79.5t77 32.5t81 -29.5t37 -69.5q0 -10 -10 -10h-50q-14 0 -18 9q-14 23 -35 23q-15 0 -27.5 -9t-12.5 -23q0 -21 13 -21q4 0 17 3t24 3zM276 -108q36 0 36 44
q0 19 -10 29.5t-26 10.5q-36 0 -36 -40q0 -22 10 -33t26 -11z" />
    <glyph glyph-name="seveninferior" unicode="&#x2087;" 
d="M184 -170l114 249q2 5 -4 5h-120q-10 0 -10 10v64q0 10 10 10h201q10 0 10 -10v-80q0 -2 -3 -10l-108 -243q-4 -7 -10 -7h-71q-6 0 -8.5 4t-0.5 8z" />
    <glyph glyph-name="eightinferior" unicode="&#x2088;" 
d="M275 -112q17 0 27 11t10 27q0 15 -10 25t-27 10t-27 -10t-10 -25q0 -16 10 -27t27 -11zM275 30q13 0 23 10t10 23q0 12 -10 23t-23 11t-23 -11t-10 -23q0 -13 10 -23t23 -10zM274 175q48 0 81.5 -31t33.5 -76q0 -36 -26 -67q-6 -6 0 -10q30 -25 30 -70q0 -46 -34.5 -78
t-83.5 -32t-83.5 32t-34.5 78q0 47 29 70q6 4 -1 10q-26 26 -26 67q0 44 34 75.5t81 31.5z" />
    <glyph glyph-name="nineinferior" unicode="&#x2089;" 
d="M256 -65q-49 0 -75 33t-26 86q0 52 33 86.5t85 34.5q47 0 79.5 -32.5t37.5 -79.5q8 -70 0 -140q-5 -47 -38 -79.5t-77 -32.5t-81 29.5t-37 69.5q0 10 10 10h50q13 0 18 -9q14 -23 35 -23q15 0 27.5 9t12.5 23q0 21 -13 21q-5 0 -18 -3t-23 -3zM273 94q-36 0 -36 -44
q0 -19 10 -29.5t26 -10.5q36 0 36 40q0 22 -10 33t-26 11z" />
    <glyph glyph-name="parenleftinferior" unicode="&#x208d;" 
d="M309 -148h36q10 0 10 -10v-59q0 -10 -10 -10h-36q-45 0 -76 28.5t-37 76.5q-4 30 -4 97.5t4 97.5q6 43 36 74t77 31h38q10 0 10 -10v-59q0 -10 -10 -10h-38q-11 0 -14.5 -0.5t-9.5 -6.5t-9 -19q-7 -31 -7 -97.5t7 -97.5q3 -15 10 -20.5t23 -5.5z" />
    <glyph glyph-name="parenrightinferior" unicode="&#x208e;" 
d="M204 -148h37q16 0 22.5 5.5t9.5 20.5q7 31 7 97.5t-7 97.5q-3 13 -8.5 19t-9 6.5t-14.5 0.5h-39q-10 0 -10 10v59q0 10 10 10h39q47 0 76.5 -30.5t35.5 -74.5q4 -30 4 -97.5t-4 -97.5q-6 -48 -36.5 -76.5t-75.5 -28.5h-37q-10 0 -10 10v59q0 10 10 10z" />
    <glyph glyph-name="Euro" unicode="&#x20ac;" 
d="M401 218q2 20 20 20h100q8 0 14 -6t6 -14q0 -100 -67 -164.5t-171 -64.5q-100 0 -163.5 63.5t-74.5 157.5q-2 14 -3.5 17t-7.5 3h-24q-8 0 -14 6t-6 14v62q0 8 6 14t14 6h19q8 0 8 8v39q0 5 -6 5h-21q-8 0 -14 6t-6 14v62q0 8 6 14t14 6h26q9 0 9 7q12 93 75.5 155.5
t162.5 62.5q104 0 171 -64.5t67 -164.5q0 -8 -6 -14t-14 -6h-60q-3 0 -13.5 -0.5t-16.5 -0.5t-13.5 1.5t-11.5 6.5t-5 13q-3 40 -29.5 64t-68.5 24q-82 0 -97 -77q-1 -7 5 -7h109q8 0 14 -6t6 -14v-62q0 -8 -6 -14t-14 -6h-114q-8 0 -8 -8v-34q0 -10 9 -10h113q8 0 14 -6
t6 -14v-62q0 -8 -6 -14t-14 -6h-105q-10 0 -9 -20q3 -35 28 -57.5t69 -22.5q42 0 68.5 24t29.5 64z" />
    <glyph glyph-name="afii61289" unicode="&#x2113;" 
d="M128 270h-48q-8 0 -14 6t-6 14v70q0 8 6 14t14 6h48v120q0 81 53.5 140.5t131.5 59.5q85 0 132.5 -54t47.5 -136q0 -98 -64 -169.5t-176 -71.5v-44q0 -72 29.5 -93.5t96.5 -21.5h36q8 0 14 -6t6 -14v-80q0 -8 -6 -14t-14 -6h-36q-133 0 -192 57.5t-59 175.5v47zM253 500
v-120q115 0 115 130q0 31 -14 50.5t-41 19.5q-60 0 -60 -80z" />
    <glyph glyph-name="afii61352" unicode="&#x2116;" 
d="M129 683l57 -323q0 -2 2 -2.5t4 1t2 3.5v318q0 8 6 14t14 6h51q8 0 14 -6t6 -14v-660q0 -8 -6 -14t-14 -6h-73q-19 0 -21 17l-57 335q0 2 -2 2.5t-4 -1t-2 -3.5v-330q0 -8 -6 -14t-14 -6h-51q-8 0 -14 6t-6 14v660q0 8 6 14t14 6h73q18 0 21 -17zM500 0h-154q-8 0 -14 6
t-6 14v63q0 8 6 14t14 6h154q8 0 14 -6t6 -14v-63q0 -8 -6 -14t-14 -6zM421 321q-28 0 -35 -26q-6 -20 0 -50q6 -24 35 -24t35 24q6 30 0 50q-7 26 -35 26zM421 409q101 0 113 -98q5 -34 0 -81q-6 -48 -38.5 -72.5t-74.5 -24.5t-74.5 24.5t-38.5 72.5q-5 47 0 81
q12 98 113 98z" />
    <glyph glyph-name="trademark" unicode="&#x2122;" 
d="M75 612h-51q-10 0 -10 10v68q0 10 10 10h200q10 0 10 -10v-68q0 -10 -10 -10h-51q-5 0 -5 -5v-247q0 -10 -10 -10h-68q-10 0 -10 10v247q0 5 -5 5zM391 600l-28 91q-3 9 -10 9h-79q-10 0 -10 -10v-330q0 -10 10 -10h59q10 0 10 10v182q1 2 4 0l24 -69q3 -8 10 -8h30
q7 0 10 8l24 69q2 2 4 0v-182q0 -10 10 -10h59q10 0 10 10v330q0 10 -10 10h-79q-8 0 -11 -9l-28 -91q-2 -4 -5 -4t-4 4z" />
    <glyph glyph-name="uni2126" unicode="&#x2126;" 
d="M446 142q-9 -5 -6.5 -13.5t13.5 -8.5h57q8 0 14 -6t6 -14v-80q0 -8 -6 -14t-14 -6h-186q-8 0 -14 6t-6 14v109q0 29 25 46q85 62 85 226q0 79 -35.5 127t-103.5 48q-67 0 -102.5 -48t-35.5 -127q0 -164 85 -226q25 -17 25 -46v-109q0 -8 -6 -14t-14 -6h-186q-8 0 -14 6
t-6 14v80q0 8 6 14t14 6h57q11 0 13.5 8t-5.5 13q-48 35 -72 111t-24 150q0 127 70.5 214t194.5 87t195 -87.5t71 -213.5q0 -76 -23.5 -150t-71.5 -110z" />
    <glyph glyph-name="estimated" unicode="&#x212e;" 
d="M286 100q64 0 98 43q15 17 23 17h76q18 0 17 -20q-7 -65 -67 -107.5t-147 -42.5q-95 0 -154.5 52.5t-77 134.5t-1.5 184q41 219 233 219q94 0 158.5 -57.5t64.5 -188.5v-63q0 -8 -6 -14t-14 -6h-309q-10 0 -10 -10q7 -75 35.5 -108t80.5 -33zM173 362q0 -10 10 -10h196
q10 0 10 10q0 108 -105 108q-44 0 -73 -22t-36 -62q-2 -16 -2 -24z" />
    <glyph glyph-name="arrowleft" unicode="&#x2190;" 
d="M208 312h294q8 0 14 -6t6 -14v-77q0 -7 -6 -13.5t-14 -6.5h-292l67 -62q15 -15 15 -23v-82q0 -12 -11 -17.5t-20 3.5l-225 225q-14 14 -1 27l233 233q8 7 16 3t8 -13v-85q0 -14 -12 -25z" />
    <glyph glyph-name="arrowup" unicode="&#x2191;" 
d="M214 20v352l-62 -67q-15 -15 -23 -15h-82q-12 0 -17.5 11t3.5 20l225 225q14 14 27 1l233 -233q7 -8 3 -16t-13 -8h-85q-14 0 -25 12l-67 72v-354q0 -8 -6.5 -14t-13.5 -6h-77q-8 0 -14 6t-6 14z" />
    <glyph glyph-name="arrowright" unicode="&#x2192;" 
d="M48 312h294l-72 67q-12 11 -12 25v85q0 9 8 13t16 -3l233 -233q13 -13 -1 -27l-225 -225q-9 -9 -20 -3.5t-11 17.5v82q0 8 15 23l67 62h-292q-8 0 -14 6.5t-6 13.5v77q0 8 6 14t14 6z" />
    <glyph glyph-name="arrowdown" unicode="&#x2193;" 
d="M214 159v352q0 7 6 13.5t14 6.5h77q7 0 13.5 -6.5t6.5 -13.5v-354l67 72q11 12 25 12h85q9 0 13 -8.5t-3 -15.5l-233 -233q-13 -13 -27 1l-225 225q-9 9 -3.5 20t17.5 11h82q8 0 23 -15z" />
    <glyph glyph-name="uni2196" unicode="&#x2196;" 
d="M233 367l250 -249q5 -5 5 -14t-5 -14l-54 -55q-5 -5 -14 -5t-15 5l-248 248l4 -91q0 -21 -6 -27l-58 -58q-8 -9 -20 -4.5t-12 16.5v318q0 20 18 20h330q10 0 13 -9t-3 -15l-60 -60q-10 -10 -26 -9z" />
    <glyph glyph-name="uni2197" unicode="&#x2197;" 
d="M66 118l250 249l-99 -3q-17 0 -26 9l-60 60q-6 6 -3 15t13 9h330q18 0 18 -20v-318q0 -12 -12 -16.5t-20 4.5l-58 58q-6 6 -6 27l4 91l-248 -248q-6 -5 -15 -5t-14 5l-54 55q-5 5 -5 14t5 14z" />
    <glyph glyph-name="uni2198" unicode="&#x2198;" 
d="M316 137l-250 249q-5 5 -5 14t5 14l54 55q5 5 14 5.5t15 -5.5l248 -248l-4 91q0 21 6 27l58 58q8 9 20 4.5t12 -16.5v-318q0 -20 -18 -20h-330q-10 0 -13 9t3 15l60 60q9 9 26 9z" />
    <glyph glyph-name="uni2199" unicode="&#x2199;" 
d="M483 386l-250 -249l99 3q17 0 26 -9l60 -60q6 -6 3 -15t-13 -9h-330q-18 0 -18 20v318q0 12 12 16.5t20 -4.5l58 -58q6 -6 6 -27l-4 -91l248 248q6 5 15 5t14 -5l54 -55q5 -5 5 -14t-5 -14z" />
    <glyph glyph-name="partialdiff" unicode="&#x2202;" 
d="M275 120q39 0 62.5 23.5t26.5 62.5q1 19 0 39q-3 40 -27 65t-62 25t-62 -25t-27 -65q-1 -20 0 -39q3 -39 26.5 -62.5t62.5 -23.5zM239 570h-66q-8 0 -14 6t-6 14v90q0 8 6 14t14 6h66q176 0 238 -220q15 -52 19.5 -132t-3.5 -142q-11 -98 -64.5 -157.5t-153.5 -59.5
q-93 0 -158 63.5t-65 155.5v35q0 92 65 154.5t158 62.5q27 0 46 -10q8 -5 15.5 -1t7.5 14q0 49 -32.5 78t-72.5 29z" />
    <glyph glyph-name="uni2206" unicode="&#x2206;" 
d="M513 0h-476q-8 0 -14 6t-6 14v51q0 11 7 29l200 585q4 15 19 15h64q15 0 19 -15l200 -585q7 -18 7 -29v-51q0 -8 -6 -14t-14 -6zM159 118h232q8 0 4 10l-115 373q-2 4 -4 4h-2q-4 0 -4 -4l-115 -373q-4 -10 4 -10z" />
    <glyph glyph-name="product" unicode="&#x220f;" 
d="M357 -180v730q0 10 -10 10h-136q-10 0 -10 -10v-730q0 -8 -6 -14t-14 -6h-82q-8 0 -14 6t-6 14v860q0 8 6 14t14 6h360q8 0 14 -6t6 -14v-860q0 -8 -6 -14t-14 -6h-82q-8 0 -14 6t-6 14z" />
    <glyph glyph-name="summation" unicode="&#x2211;" 
d="M269 270l-175 271q-9 15 -9 30v109q0 8 6 14t14 6h343q8 0 14 -6t6 -14v-100q0 -8 -6 -14t-14 -6h-203q-7 0 -9.5 -4t0.5 -8l172 -268q12 -21 0 -40l-182 -287q-1 -3 -1 -5.5t3 -5t7 -2.5h215q8 0 14 -6t6 -14v-100q0 -8 -6 -14t-14 -6h-355q-8 0 -14 6t-6 14v109
q0 15 9 30l185 290q6 11 0 21z" />
    <glyph glyph-name="minus" unicode="&#x2212;" 
d="M70 325h410q8 0 14 -6t6 -14v-89q0 -8 -6 -14t-14 -6h-410q-8 0 -14 6t-6 14v89q0 8 6 14t14 6z" />
    <glyph glyph-name="radical" unicode="&#x221a;" 
d="M421 860h183q8 0 14 -6t6 -14v-60q0 -8 -6 -14t-14 -6h-112l-215 -745q-5 -15 -19 -15h-96q-14 0 -19 15l-118 371q-3 8 2.5 16t16.5 8h85q15 0 19 -15l55 -228q1 -6 6 -6h2q5 0 6 6l185 678q4 15 19 15z" />
    <glyph glyph-name="infinity" unicode="&#x221e;" 
d="M267 343q4 -11 13 -11t13 11q14 34 44.5 59.5t70.5 25.5q60 0 94.5 -46.5t34.5 -122.5t-34.5 -123t-94.5 -47q-35 0 -65 27.5t-48 58.5q-6 11 -13 11q-11 0 -15 -11q-42 -86 -115 -86q-60 0 -94.5 47t-34.5 123t34.5 122.5t94.5 46.5q40 0 70.5 -25.5t44.5 -59.5z
M440 259q0 28 -10 44.5t-25 16.5q-14 0 -29 -15t-23 -31l-8 -15q3 -7 8.5 -17.5t21.5 -27.5t30 -17q15 0 25 16.5t10 45.5zM120 259q0 -29 10 -45.5t25 -16.5q14 0 29 15.5t23 31.5l8 15q-3 7 -8.5 17t-21.5 27t-30 17q-15 0 -25 -16.5t-10 -44.5z" />
    <glyph glyph-name="integral" unicode="&#x222b;" 
d="M204 -13v533q0 88 56 137.5t144 49.5h40q8 0 14 -6t6 -14v-72q0 -8 -6 -14t-14 -6h-40q-43 0 -61.5 -17t-18.5 -58v-533q0 -88 -56 -137.5t-144 -49.5h-40q-8 0 -14 6t-6 14v72q0 8 6 14t14 6h40q44 0 62 17.5t18 57.5z" />
    <glyph glyph-name="approxequal" unicode="&#x2248;" 
d="M161 300q-18 0 -46 -8t-36 -18q-5 -6 -12 -8t-12 3t-5 14v80q0 26 35.5 43.5t75.5 17.5q52 0 112.5 -22.5t115.5 -22.5q18 0 46 8t36 18q5 6 12 8t12 -3t5 -14v-80q0 -26 -35.5 -43.5t-75.5 -17.5q-51 0 -112 22.5t-116 22.5zM161 110q-18 0 -46 -8t-36 -18q-5 -6 -12 -8
t-12 3t-5 14v80q0 26 35.5 43.5t75.5 17.5q52 0 112.5 -22.5t115.5 -22.5q18 0 46 8t36 18q5 6 12 8t12 -3t5 -14v-80q0 -26 -35.5 -43.5t-75.5 -17.5q-51 0 -112 22.5t-116 22.5z" />
    <glyph glyph-name="notequal" unicode="&#x2260;" 
d="M318 214h157q8 0 14 -6t6 -14v-87q0 -8 -6 -14t-14 -6h-242q-9 0 -14 -7l-41 -55q-10 -15 -21 -15h-69q-10 0 -16 9t0 19l29 42q5 7 -5 7h-21q-8 0 -14 6t-6 14v87q0 8 6 14t14 6h106q9 0 14 7l41 58q5 7 -5 7h-156q-8 0 -14 6t-6 14v87q0 8 6 14t14 6h241q9 0 14 7
l39 55q10 15 19 15h72q10 0 16 -9t0 -19l-30 -42q-5 -7 5 -7h24q8 0 14 -6t6 -14v-87q0 -8 -6 -14t-14 -6h-108q-9 0 -14 -7l-40 -58q-5 -7 5 -7z" />
    <glyph glyph-name="lessequal" unicode="&#x2264;" 
d="M252 416l202 -101q15 -7 15 -21v-105q0 -11 -8 -17t-15 -2l-362 204q-15 8 -15 32v29q0 24 15 32l362 203q7 4 15 -2t8 -17v-105q0 -12 -15 -21l-202 -101q-8 -4 0 -8zM78 129h394q8 0 14 -6t6 -14v-89q0 -8 -6 -14t-14 -6h-394q-8 0 -14 6t-6 14v89q0 8 6 14t14 6z" />
    <glyph glyph-name="greaterequal" unicode="&#x2265;" 
d="M96 315l202 101q8 4 0 8l-202 101q-15 7 -15 21v105q0 11 8 17t15 2l362 -203q15 -8 15 -32v-29q0 -24 -15 -32l-362 -204q-7 -4 -15 2t-8 17v105q0 14 15 21zM78 129h394q8 0 14 -6t6 -14v-89q0 -8 -6 -14t-14 -6h-394q-8 0 -14 6t-6 14v89q0 8 6 14t14 6z" />
    <glyph glyph-name="lozenge" unicode="&#x25ca;" 
d="M525 347l-204 -332q-8 -15 -32 -15h-29q-24 0 -32 15l-203 332q-5 9 0 16l203 332q8 15 32 15h29q24 0 32 -15l204 -332q5 -8 0 -16zM380 355l-101 172q-4 8 -8 0l-101 -172l101 -172q4 -8 8 0z" />
    <glyph glyph-name="commaaccent" unicode="&#xf6c3;" 
d="M105 -185h-24q-8 0 -14 6t-6 14v100q0 8 6 14t14 6h100q8 0 14 -6t6 -14v-97q0 -36 -22 -69l-34 -54q-13 -20 -34 -20h-10q-15 0 -21.5 12.5t0.5 25.5l34 69q3 5 -0.5 9t-8.5 4z" />
    <glyph glyph-name="asuperior" unicode="&#xf6e9;" 
d="M301 451h-44q-17 0 -17 -23q0 -22 30 -22q36 0 36 26v14q0 5 -5 5zM276 543q-22 0 -30 -17q-4 -9 -7 -9q-3 -1 -8 -1h-46q-3 0 -6.5 3t-3.5 7q0 31 25.5 55.5t75.5 24.5q51 0 78.5 -26.5t27.5 -71.5v-148q0 -10 -10 -10h-31q-4 0 -7 4q-1 1 -2 4t-2.5 4t-5.5 1
q-1 0 -20 -9.5t-41 -9.5q-44 0 -70 21t-26 64q0 25 23.5 49.5t65.5 24.5h43l5 5v7q0 28 -28 28z" />
    <glyph glyph-name="bsuperior" unicode="&#xf6ea;" 
d="M274 421q21 0 23 15q2 39 0 78q-2 15 -23 15q-13 0 -17.5 -3t-5.5 -12q-4 -39 0 -78q1 -15 23 -15zM284 344q-21 0 -36 9t-19 9q-5 0 -13 -8q-4 -4 -7 -4h-31q-10 0 -10 10v336q0 10 10 10h60q10 0 10 -10v-89q0 -8 6 -10.5t12 1.5q18 8 33 8q32 0 54.5 -26t25.5 -66
q4 -39 0 -78q-3 -40 -29.5 -66t-65.5 -26z" />
    <glyph glyph-name="dsuperior" unicode="&#xf6eb;" 
d="M275 421q22 0 23 15q4 39 0 78q-1 9 -5.5 12t-17.5 3q-21 0 -23 -15q-2 -39 0 -78q2 -15 23 -15zM266 344q-39 0 -65.5 26t-29.5 66q-4 39 0 78q3 40 26.5 66t58.5 26q11 0 27 -8q18 -9 18 9v89q0 10 10 10h60q10 0 10 -10v-336q0 -10 -10 -10h-31q-3 0 -7 4q-8 8 -12 8
q-5 0 -19.5 -9t-35.5 -9z" />
    <glyph glyph-name="esuperior" unicode="&#xf6ec;" 
d="M243 447q0 -14 9 -25.5t25 -11.5q24 0 35 14q4 9 12 9h48q12 0 8 -12q-27 -77 -103 -77q-45 0 -72 25.5t-33 66.5q-6 39 0 78q6 41 33 66.5t72 25.5q46 0 74.5 -25.5t28.5 -72.5v-42q0 -10 -10 -10h-121q-6 0 -6 -9zM243 512q0 -4 5 -4h55q5 0 5 4q0 11 -8 19.5t-24 8.5
t-24.5 -9t-8.5 -19z" />
    <glyph glyph-name="isuperior" unicode="&#xf6ed;" 
d="M318 698v-68q0 -8 -8 -8h-69q-8 0 -8 8v68q0 8 8 8h69q8 0 8 -8zM229 521h-42q-10 0 -10 10v59q0 10 10 10h120q6 0 6 -6v-157q0 -5 5 -5h49q10 0 10 -10v-62q0 -10 -10 -10h-185q-10 0 -10 10v62q0 10 10 10h47q5 0 5 5v79q0 5 -5 5z" />
    <glyph glyph-name="lsuperior" unicode="&#xf6ee;" 
d="M223 626h-48q-10 0 -10 10v60q0 10 10 10h127q6 0 6 -6v-263q0 -5 5 -5h63q10 0 10 -10v-62q0 -10 -10 -10h-202q-10 0 -10 10v62q0 10 10 10h49q5 0 5 5v184q0 5 -5 5z" />
    <glyph glyph-name="msuperior" unicode="&#xf6ef;" 
d="M290 586q24 19 54 19q64 0 64 -86v-159q0 -10 -10 -10h-54q-10 0 -10 10v167q0 13 -12 13q-5 0 -9.5 -4t-4.5 -9v-167q0 -10 -10 -10h-48q-10 0 -10 10v167q0 13 -13 13t-13 -13v-167q0 -10 -10 -10h-52q-10 0 -10 10v230q0 10 10 10h14q9 0 13 -6t10 -6q3 0 18 8.5
t31 8.5q22 0 37 -18q2 -3 8 -3q3 0 7 2z" />
    <glyph glyph-name="osuperior" unicode="&#xf6f0;" 
d="M275 606q45 0 72 -25.5t33 -66.5q6 -39 0 -78q-6 -41 -33 -66.5t-72 -25.5t-72 25.5t-33 66.5q-6 39 0 78q6 41 33 66.5t72 25.5zM275 416q20 0 24 20q10 39 0 78q-4 18 -24 18q-21 0 -25 -18q-10 -38 0 -78q4 -20 25 -20z" />
    <glyph glyph-name="rsuperior" unicode="&#xf6f1;" 
d="M307 517q0 9 -8 17t-22 8q-13 0 -21 -8t-8 -20v-154q0 -10 -10 -10h-60q-10 0 -10 10v230q0 10 10 10h27q8 0 17 -7q7 -7 11 -7q6 0 23.5 10t34.5 10q41 0 66 -24t25 -65q0 -10 -10 -10h-55q-10 0 -10 10z" />
    <glyph glyph-name="ssuperior" unicode="&#xf6f2;" 
d="M162 427q0 10 10 10h48q4 0 7 -0.5t4.5 -0.5t3 -1.5t2 -1.5t1.5 -3l1 -2q5 -19 36 -19q40 0 40 18q0 12 -41 19q-107 16 -107 82q0 32 34 55t74 23q44 0 75.5 -21t31.5 -59q0 -10 -10 -10h-47q-10 0 -13 10q-5 21 -37 21q-37 0 -37 -19q0 -13 42 -22q3 -1 17 -3.5t19 -4
t17 -5t17.5 -7t14 -9.5t12.5 -12.5t7 -16.5t3 -21q0 -35 -33 -59t-79 -24t-79.5 23t-33.5 60z" />
    <glyph glyph-name="tsuperior" unicode="&#xf6f3;" 
d="M280 523v-80q0 -23 27 -23q26 0 26 23q0 10 10 10h60q10 0 10 -10q0 -43 -31 -71t-75 -28q-45 0 -76 27t-31 70v82q0 5 -5 5h-48q-10 0 -10 10v51q0 10 10 10h48q5 0 5 5v76q0 10 10 10h60q10 0 10 -10v-76q0 -5 5 -5h89q10 0 10 -10v-51q0 -10 -10 -10h-89q-5 0 -5 -5z
" />
    <glyph glyph-name="apple" unicode="&#xf8ff;" 
d="M184 120q-12 0 -18.5 -9t-9.5 -19.5t-12.5 -19.5t-27.5 -9q-21 0 -36.5 13.5t-15.5 31.5q0 22 21 44t21 53q0 17 -8 27.5t-20 10.5q-8 0 -15.5 -3.5t-14.5 -3.5q-14 0 -22 15.5t-8 36.5q0 14 9.5 26.5t23.5 12.5q7 0 14.5 -5.5t12.5 -5.5q13 0 20 13.5t7 26.5
q0 8 -5 24.5t-5 24.5q0 37 40 37q9 0 9 8q0 3 -4 11t-4 13t5.5 9.5t10.5 4.5q11 0 22 -17.5t20 -17.5q11 0 15 8.5t4.5 19t7.5 19t22 8.5q21 0 37 -24t35 -24q20 0 27.5 11t7.5 37q0 27 14.5 40t38.5 13q22 0 34.5 -13t12.5 -35q0 -18 -12 -31t-24 -21t-12 -17q0 -12 12 -22
t27 -16t27 -21t12 -37q0 -20 -16 -38t-16 -34q0 -26 44 -26q40 0 40 -45q0 -22 -15 -37t-37 -15q-15 0 -35 25t-37 25q-25 0 -25 -21q0 -10 10 -21t10 -28q0 -14 -9 -23.5t-26 -9.5q-10 0 -35 15t-45 15q-26 0 -26 -31q0 -27 -24 -27q-8 0 -13 7.5t-7 16.5t-10.5 16.5
t-23.5 7.5zM298 340q0 -16 12 -28t28 -12q17 0 30 12t13 28q0 17 -13.5 32t-29.5 15t-28 -15t-12 -32zM281 226q-26 0 -48 20q-5 5 -7 0q-1 -3 2 -7q18 -29 53 -29q30 0 44 34q2 4 -1 6t-5 -2q-12 -22 -38 -22zM214 335q0 21 14 21t14 -21t-14 -21t-14 21zM310 340
q0 21 14 21t14 -21t-14 -21t-14 21zM178 340q0 -21 10 -35.5t26 -14.5q17 0 28.5 14.5t11.5 35.5t-11.5 35.5t-28.5 14.5q-16 0 -26 -14.5t-10 -35.5zM85 520q0 14 8.5 24t20.5 10q10 0 17 -10t7 -24t-7 -24t-17 -10q-12 0 -20.5 10t-8.5 24z" />
    <glyph glyph-name="commaturn" 
d="M297 700h24q8 0 14 -6t6 -14v-100q0 -8 -6 -14t-14 -6h-100q-8 0 -14 6t-6 14v97q0 36 22 69l34 54q13 20 34 20h10q15 0 21.5 -12t-0.5 -26l-34 -69q-3 -5 0.5 -9t8.5 -4z" />
    <glyph glyph-name="zero.slash" 
d="M275 575q-34 0 -57 -23t-27 -58q-10 -87 -8 -183q0 -8 3.5 -11.5t10.5 6.5l136 226q10 17 -12 30t-46 13zM359 206q9 77 7 178q0 10 -4 12.5t-13 -9.5l-130 -218q-12 -19 10 -31.5t46 -12.5q34 0 57 23t27 58zM52 490q11 93 72 157t151 64t151 -64t72 -157
q17 -140 0 -280q-11 -93 -72 -157t-151 -64t-151 64t-72 157q-17 140 0 280z" />
    <glyph glyph-name="parenleft.case" 
d="M445 -65h66q11 0 18 -7.5t7 -17.5v-78q0 -10 -7.5 -17.5t-17.5 -7.5h-66q-113 0 -189.5 71.5t-91.5 191.5q-10 75 -10 244.5t9 243.5q14 109 89 185.5t193 76.5h61q10 0 17.5 -7t7.5 -18v-77q0 -10 -7.5 -17.5t-17.5 -7.5h-61q-56 0 -98 -36t-53 -100q-13 -76 -13.5 -243
t12.5 -244q9 -56 49 -95.5t103 -39.5z" />
    <glyph glyph-name="parenright.case" 
d="M39 -65h66q63 0 102.5 39.5t48.5 95.5q13 78 13 244t-13 243q-11 64 -53 100t-98 36h-61q-10 0 -17.5 7.5t-7.5 17.5v77q0 11 7.5 18t17.5 7h61q118 0 193 -76.5t89 -185.5q9 -74 9 -243.5t-10 -244.5q-15 -120 -91.5 -191.5t-189.5 -71.5h-66q-10 0 -17.5 7.5t-7.5 17.5
v78q0 10 7 17.5t18 7.5z" />
    <glyph glyph-name="bracketleft.case" 
d="M299 683v-739q0 -12 13 -12h158q10 0 17.5 -7.5t7.5 -17.5v-75q0 -10 -7.5 -17.5t-17.5 -7.5h-270q-10 0 -17.5 7.5t-7.5 17.5v963q0 11 7.5 18t17.5 7h268q10 0 17.5 -7t7.5 -18v-74q0 -11 -7.5 -18t-17.5 -7h-156q-13 0 -13 -13z" />
    <glyph glyph-name="bracketright.case" 
d="M241 -56v739q0 13 -13 13h-156q-10 0 -17.5 7t-7.5 18v74q0 11 7.5 18t17.5 7h268q10 0 17.5 -7t7.5 -18v-963q0 -10 -7.5 -17.5t-17.5 -7.5h-270q-10 0 -17.5 7.5t-7.5 17.5v75q0 10 7.5 17.5t17.5 7.5h158q13 0 13 12z" />
    <glyph glyph-name="braceleft.case" 
d="M173 70v169q0 15 -23 25l-13 6q-25 10 -25 25v50q0 15 25 25l14 6q22 10 22 25v157q0 107 73 184.5t192 77.5h66q10 0 17.5 -7t7.5 -18v-77q0 -10 -7.5 -17.5t-17.5 -7.5h-66q-57 0 -95.5 -36t-38.5 -100l-1 -156q0 -49 -51 -81q51 -32 51 -81v-169q0 -61 38 -98t97 -37
h74q10 0 17.5 -7.5t7.5 -17.5v-78q0 -10 -7.5 -17.5t-17.5 -7.5h-74q-117 0 -191 75.5t-74 187.5z" />
    <glyph glyph-name="braceright.case" 
d="M386 239v-169q0 -112 -73.5 -187.5t-191.5 -75.5h-74q-10 0 -17.5 7.5t-7.5 17.5v78q0 10 7 17.5t18 7.5h74q59 0 97 37t38 98v169q0 49 51 81q-51 32 -51 81l-1 156q0 64 -38.5 100t-95.5 36h-66q-11 0 -18 7.5t-7 17.5v77q0 11 7 18t18 7h66q119 0 192 -77.5t73 -184.5
v-157q0 -15 22 -25l14 -6q25 -10 25 -25v-50q0 -15 -25 -25l-13 -6q-23 -10 -23 -25z" />
    <glyph glyph-name="bar.case" 
d="M337 700v-750q0 -8 -6 -14t-14 -6h-85q-8 0 -14 6t-6 14v750q0 8 6 14t14 6h85q8 0 14 -6t6 -14z" />
    <glyph glyph-name="brokenbar.case" 
d="M333 687v-267q0 -8 -6 -14t-14 -6h-76q-8 0 -14 6t-6 14v267q0 8 6 14t14 6h76q8 0 14 -6t6 -14zM333 287v-267q0 -8 -6 -14t-14 -6h-76q-8 0 -14 6t-6 14v267q0 8 6 14t14 6h76q8 0 14 -6t6 -14z" />
    <glyph glyph-name="guillemotleft.case" 
d="M38 361l120 201q13 19 31 19h72q18 0 24 -11.5t-4 -30.5l-107 -181q-9 -14 0 -30l106 -181q11 -19 5 -30t-24 -11h-72q-19 0 -31 18l-120 201q-12 18 0 36zM269 360l120 202q13 19 31 19h72q19 0 25 -11.5t-5 -30.5l-107 -181q-9 -15 1 -30l106 -182q11 -19 5 -29.5
t-25 -10.5h-72q-19 0 -31 18l-120 202q-10 17 0 34z" />
    <glyph glyph-name="guillemotright.case" 
d="M392 562l120 -201q10 -18 0 -36l-120 -201q-12 -18 -31 -18h-72q-19 0 -25 11t5 30l107 181q9 15 0 30l-107 182q-11 19 -5 30t25 11h72q18 0 31 -19zM161 561l120 -200q10 -18 0 -36l-120 -200q-11 -19 -32 -19h-71q-19 0 -25 11t5 30l106 181q9 16 0 30l-106 182
q-11 19 -5 30t25 11h71q21 0 32 -20z" />
    <glyph glyph-name="guilsinglleft.case" 
d="M153 361l120 201q13 19 31 19h72q18 0 24 -11.5t-5 -30.5l-106 -181q-9 -14 0 -30l107 -182q10 -19 4 -29.5t-24 -10.5h-72q-19 0 -31 18l-120 201q-12 18 0 36z" />
    <glyph glyph-name="guilsinglright.case" 
d="M277 562l120 -201q10 -18 0 -36l-120 -201q-12 -18 -31 -18h-72q-19 0 -25 11t5 30l106 181q9 15 1 30l-107 181q-11 19 -5 30.5t25 11.5h72q18 0 31 -19z" />
    <glyph glyph-name="hyphen.case" 
d="M138 407h273q8 0 14 -6t6 -14v-99q0 -8 -6 -14t-14 -6h-273q-8 0 -14 6t-6 14v99q0 8 6 14t14 6z" />
    <glyph glyph-name="endash.case" 
d="M70 395h410q8 0 14 -6t6 -14v-89q0 -8 -6 -14t-14 -6h-410q-8 0 -14 6t-6 14v89q0 8 6 14t14 6z" />
    <glyph glyph-name="emdash.case" 
d="M-3 395h557q8 0 14 -6t6 -14v-89q0 -8 -6 -14t-14 -6h-557q-8 0 -14 6t-6 14v89q0 8 6 14t14 6z" />
    <glyph glyph-name="plus.case" 
d="M25 396h172q12 0 12 13v172q0 10 7.5 17.5t17.5 7.5h81q10 0 17.5 -7.5t7.5 -17.5v-172q0 -13 13 -13h172q11 0 18 -7t7 -18v-81q0 -10 -7 -17.5t-18 -7.5h-172q-13 0 -13 -12v-172q0 -11 -7 -18t-18 -7h-81q-10 0 -17.5 7t-7.5 18v172q0 12 -12 12h-172q-11 0 -18 7.5
t-7 17.5v81q0 11 7 18t18 7z" />
    <glyph glyph-name="equal.case" 
d="M525 384h-500q-11 0 -18 7t-7 18v80q0 11 7 18t18 7h500q11 0 18 -7t7 -18v-80q0 -11 -7 -18t-18 -7zM525 147h-500q-11 0 -18 7.5t-7 17.5v80q0 10 7 17.5t18 7.5h500q11 0 18 -7.5t7 -17.5v-80q0 -10 -7 -17.5t-18 -7.5z" />
    <glyph glyph-name="less.case" 
d="M201 325l305 -162q19 -10 19 -27v-94q0 -14 -9.5 -21.5t-19.5 -2.5l-453 255q-18 10 -18 32v52q0 22 19 32l453 254q9 5 18.5 -2.5t9.5 -21.5v-94q0 -15 -19 -27l-305 -162q-4 -2 -4 -6t4 -5z" />
    <glyph glyph-name="greater.case" 
d="M43 162l306 163q9 5 0 11l-306 163q-18 9 -18 26v94q0 14 10 21.5t19 2.5l453 -254q18 -10 18 -32v-52q0 -22 -19 -32l-453 -255q-9 -5 -18.5 2.5t-9.5 21.5v94q0 17 18 26z" />
    <glyph glyph-name="approxequal.case" 
d="M161 398q-18 0 -46 -8t-36 -18q-5 -6 -12 -8t-12 3t-5 14v80q0 26 35.5 43.5t75.5 17.5q52 0 112.5 -22.5t115.5 -22.5q18 0 46 8t36 18q5 6 12 8t12 -3t5 -14v-80q0 -26 -35.5 -43.5t-75.5 -17.5q-51 0 -112 22.5t-116 22.5zM161 166q-18 0 -46 -8t-36 -18q-5 -6 -12 -8
t-12 3t-5 14v80q0 26 35.5 43.5t75.5 17.5q52 0 112.5 -22.5t115.5 -22.5q18 0 46 8t36 18q5 6 12 8t12 -3t5 -14v-80q0 -26 -35.5 -43.5t-75.5 -17.5q-51 0 -112 22.5t-116 22.5z" />
    <glyph glyph-name="notequal.case" 
d="M321 277h204q11 0 18 -7.5t7 -17.5v-80q0 -10 -7 -17.5t-18 -7.5h-290q-11 0 -18 -9l-52 -74q-13 -19 -29 -19h-70q-13 0 -20 11.5t1 24.5l39 57q4 9 -6 9h-55q-11 0 -18 7.5t-7 17.5v80q0 10 7 17.5t18 7.5h141q11 0 18 10l62 88q4 9 -6 9h-215q-11 0 -18 7t-7 18v80
q0 11 7 18t18 7h302q11 0 18 9l55 79q1 1 2 3q12 16 22 16h73q13 0 21 -11.5t0 -23.5l-45 -63q-5 -9 7 -9h45q11 0 18 -7t7 -18v-80q0 -11 -7 -18t-18 -7h-132q-11 0 -18 -10l-60 -88q-2 -3 -0.5 -6t6.5 -3z" />
    <glyph glyph-name="minus.case" 
d="M31 410h488q11 0 18 -7t7 -18v-83q0 -10 -7 -17.5t-18 -7.5h-488q-11 0 -18 7.5t-7 17.5v83q0 11 7 18t18 7z" />
    <glyph glyph-name="divide.case" 
d="M31 395h488q11 0 18 -7.5t7 -17.5v-79q0 -11 -7 -18t-18 -7h-488q-11 0 -18 7t-7 18v79q0 10 7 17.5t18 7.5zM361 156v-113q0 -11 -7.5 -18t-17.5 -7h-112q-10 0 -17.5 7t-7.5 18v113q0 10 7.5 17.5t17.5 7.5h112q10 0 17.5 -7.5t7.5 -17.5zM361 610v-113
q0 -10 -7.5 -17.5t-17.5 -7.5h-112q-10 0 -17.5 7.5t-7.5 17.5v113q0 10 7.5 17.5t17.5 7.5h112q10 0 17.5 -7.5t7.5 -17.5z" />
    <glyph glyph-name="multiply.case" 
d="M44 192l129 129q8 9 0 19l-130 130q-17 18 0 35l58 58q17 17 34 0l131 -131q8 -8 17 0l130 130q7 8 18 8t18 -8l57 -58q8 -7 8 -17.5t-8 -17.5l-130 -130q-8 -9 1 -18l130 -130q17 -17 0 -35l-57 -58q-8 -8 -18 -8t-18 8l-131 131q-9 9 -17 0l-129 -130q-17 -17 -35 0
l-58 58q-8 7 -8 17t8 18z" />
    <glyph glyph-name="logicalnot.case" 
d="M414 147v104q0 12 -13 12h-370q-11 0 -18 7.5t-7 17.5v80q0 10 7 17.5t18 7.5h488q10 0 17.5 -7.5t7.5 -17.5v-221q0 -10 -7.5 -17.5t-17.5 -7.5h-80q-11 0 -18 7t-7 18z" />
    <glyph glyph-name="at.case" 
d="M279 40q61 0 106 21q10 4 17 -0.5t7 -14.5v-46q0 -3 -0.5 -6t-2.5 -5.5t-2.5 -4t-4 -3.5t-4.5 -3t-5 -4l-5 -2q-39 -22 -106 -22q-110 0 -184.5 64t-74.5 184v144q0 105 76 176.5t185 71.5q103 0 175.5 -58.5t72.5 -169.5v-142q0 -54 -24 -87t-70 -33q-20 0 -40 10
t-26 10q-7 0 -38 -12q-25 -10 -51 -10q-127 0 -127 166q0 37 4 64.5t16 56.5t38.5 45t67.5 16q55 0 90 -32.5t35 -81.5v-110q0 -22 19 -22q21 0 21 22v140q0 67 -48.5 102.5t-116.5 35.5q-77 0 -122.5 -42.5t-45.5 -115.5v-144q0 -80 52 -119t116 -39zM321 218v108
q0 32 -42 32q-13 0 -22 -5t-13.5 -11t-6.5 -20.5t-2.5 -24.5t-0.5 -32v-17.5t1 -16.5t4 -18t7.5 -13t13 -11t19.5 -3q42 0 42 32z" />
    <glyph glyph-name="arrowup.case" 
d="M214 110v352l-62 -67q-15 -15 -23 -15h-82q-12 0 -17.5 11t3.5 20l225 225q14 14 27 1l233 -233q7 -8 3 -16t-13 -8h-85q-14 0 -25 12l-67 72v-354q0 -8 -6.5 -14t-13.5 -6h-77q-8 0 -14 6t-6 14z" />
    <glyph glyph-name="arrowright.case" 
d="M48 402h294l-72 67q-12 11 -12 25v85q0 9 8 13t16 -3l233 -233q13 -13 -1 -27l-225 -225q-9 -9 -20 -3.5t-11 17.5v82q0 8 15 23l67 62h-292q-8 0 -14 6.5t-6 13.5v77q0 8 6 14t14 6z" />
    <glyph glyph-name="arrowleft.case" 
d="M208 402h294q8 0 14 -6t6 -14v-77q0 -7 -6 -13.5t-14 -6.5h-292l67 -62q15 -15 15 -23v-82q0 -12 -11 -17.5t-20 3.5l-225 225q-14 14 -1 27l233 233q8 7 16 3t8 -13v-85q0 -14 -12 -25z" />
    <glyph glyph-name="arrowdown.case" 
d="M214 249v352q0 7 6 13.5t14 6.5h77q7 0 13.5 -6.5t6.5 -13.5v-354l67 72q11 12 25 12h85q9 0 13 -8.5t-3 -15.5l-233 -233q-13 -13 -27 1l-225 225q-9 9 -3.5 20t17.5 11h82q8 0 23 -15z" />
    <glyph glyph-name="uni2196.case" 
d="M233 457l250 -249q5 -5 5 -14t-5 -14l-54 -55q-5 -5 -14 -5t-15 5l-248 248l4 -91q0 -21 -6 -27l-58 -58q-8 -9 -20 -4.5t-12 16.5v318q0 20 18 20h330q10 0 13 -9t-3 -15l-60 -60q-10 -10 -26 -9z" />
    <glyph glyph-name="uni2197.case" 
d="M66 208l250 249l-99 -3q-17 0 -26 9l-60 60q-6 6 -3 15t13 9h330q18 0 18 -20v-318q0 -12 -12 -16.5t-20 4.5l-58 58q-6 6 -6 27l4 91l-248 -248q-6 -5 -15 -5t-14 5l-54 55q-5 5 -5 14t5 14z" />
    <glyph glyph-name="uni2198.case" 
d="M316 227l-250 249q-5 5 -5 14t5 14l54 55q5 5 14 5.5t15 -5.5l248 -248l-4 91q0 21 6 27l58 58q8 9 20 4.5t12 -16.5v-318q0 -20 -18 -20h-330q-10 0 -13 9t3 15l60 60q9 9 26 9z" />
    <glyph glyph-name="uni2199.case" 
d="M483 476l-250 -249l99 3q17 0 26 -9l60 -60q6 -6 3 -15t-13 -9h-330q-18 0 -18 20v318q0 12 12 16.5t20 -4.5l58 -58q6 -6 6 -27l-4 -91l248 248q6 5 15 5t14 -5l54 -55q5 -5 5 -14t-5 -14z" />
    <glyph glyph-name="plusinferior" 
d="M175 -17h55q5 0 5 5v55q0 10 10 10h59q10 0 10 -10v-55q0 -5 5 -5h56q10 0 10 -10v-59q0 -10 -10 -10h-56q-5 0 -5 -5v-56q0 -10 -10 -10h-59q-10 0 -10 10v56q0 5 -5 5h-55q-10 0 -10 10v59q0 10 10 10z" />
    <glyph glyph-name="equalinferior" 
d="M375 -43h-200q-10 0 -10 10v57q0 10 10 10h200q10 0 10 -10v-57q0 -10 -10 -10zM375 -148h-200q-10 0 -10 10v57q0 10 10 10h200q10 0 10 -10v-57q0 -10 -10 -10z" />
    <glyph glyph-name="minusinferior" 
d="M167 -13h216q10 0 10 -10v-57q0 -10 -10 -10h-216q-10 0 -10 10v57q0 10 10 10z" />
    <glyph glyph-name="eight.numerator" 
d="M275 420q17 0 27 11t10 27q0 15 -10 25t-27 10t-27 -10t-10 -25q0 -16 10 -27t27 -11zM275 562q13 0 23 10t10 23q0 12 -10 23t-23 11t-23 -11t-10 -23q0 -13 10 -23t23 -10zM274 707q48 0 81.5 -31t33.5 -76q0 -36 -26 -67q-6 -6 0 -10q30 -25 30 -70q0 -46 -34.5 -78
t-83.5 -32t-83.5 32t-34.5 78q0 47 29 70q6 4 -1 10q-26 26 -26 67q0 44 34 75.5t81 31.5z" />
    <glyph glyph-name="zero.numerator" 
d="M160 591q5 49 38 82.5t77 33.5q45 0 77 -35.5t37 -80.5q7 -66 0 -132q-6 -49 -38.5 -82.5t-75.5 -33.5q-45 0 -77.5 35.5t-37.5 80.5q-8 66 0 132zM275 622q-11 0 -18.5 -8.5t-8.5 -18.5q-6 -70 0 -140q1 -12 9 -19t18 -7q11 0 18 8t8 18q6 70 0 140q-1 12 -9 19.5
t-17 7.5z" />
    <glyph glyph-name="one.numerator" 
d="M243 440v142q0 6 -5 7.5t-8 -2.5l-53 -40q-7 -5 -14.5 -1t-7.5 13v55q0 16 6 23l48 46q17 17 36 17h74q10 0 10 -10v-250q0 -5 5 -5h52q10 0 10 -10v-65q0 -10 -10 -10h-216q-10 0 -10 10v65q0 10 10 10h68q5 0 5 5z" />
    <glyph glyph-name="two.numerator" 
d="M303 602q0 10 -7.5 17t-19.5 7q-30 0 -30 -30v-9q0 -10 -10 -10h-64q-4 0 -7 3.5t-3 6.5v8q0 47 34 79.5t81 32.5q48 0 81 -28.5t33 -74.5q0 -38 -36 -74l-84 -84q-2 -2 -2.5 -4.5t1.5 -4.5t7 -2h109q10 0 10 -10v-65q0 -10 -10 -10h-217q-10 0 -10 10v79q0 8 4 12
l107 106q33 31 33 45z" />
    <glyph glyph-name="three.numerator" 
d="M308 462q0 16 -11 24.5t-23 8.5h-6q-10 0 -10 10v42q0 10 10 10h6q12 0 22 9t10 24t-8.5 24t-22.5 9q-13 0 -21.5 -8.5t-8.5 -19.5v-8q0 -10 -10 -10h-64q-10 0 -10 10v8q0 46 34 79t80 33q47 0 80 -33t33 -79q0 -34 -24 -64q-4 -5 0 -7q27 -21 27 -66q0 -48 -34 -81.5
t-82 -33.5t-82 33.5t-34 81.5v6q0 10 10 10h63q10 0 10 -10v-6q0 -14 9 -22.5t24 -8.5q33 0 33 35z" />
    <glyph glyph-name="four.numerator" 
d="M367 489h14q10 0 10 -10v-58q0 -10 -10 -10h-14q-5 0 -5 -5v-46q0 -10 -10 -10h-61q-10 0 -10 10v46q0 5 -5 5h-108q-10 0 -10 10v74q0 6 8 20l105 178q3 7 11 7h70q10 0 10 -10v-196q0 -5 5 -5zM274 564l-35 -68q-3 -7 4 -7h33q5 0 5 5v68q0 3 -2.5 3.5t-4.5 -1.5z" />
    <glyph glyph-name="five.numerator" 
d="M366 615h-115q-5 0 -5 -5v-25q0 -8 8 -5q12 6 26 6q51 0 81 -32t31 -87q1 -48 -30.5 -86t-87.5 -38q-52 0 -84.5 25.5t-32.5 80.5q0 10 10 10h63q10 0 10 -10q0 -20 30 -20q37 0 37 38q0 42 -33 42q-14 0 -24 -6q-8 -5 -14 -5h-65q-10 0 -10 10v182q0 10 10 10h195
q10 0 10 -10v-65q0 -10 -10 -10z" />
    <glyph glyph-name="six.numerator" 
d="M293 583q49 0 75 -33t26 -86q0 -52 -33 -86.5t-85 -34.5q-47 0 -79.5 32.5t-37.5 79.5q-8 70 0 140q5 47 38 79.5t77 32.5t81 -29.5t37 -69.5q0 -10 -10 -10h-50q-14 0 -18 9q-14 23 -35 23q-15 0 -27.5 -9t-12.5 -23q0 -21 13 -21q4 0 17 3t24 3zM276 424q36 0 36 44
q0 19 -10 29.5t-26 10.5q-36 0 -36 -40q0 -22 10 -33t26 -11z" />
    <glyph glyph-name="seven.numerator" 
d="M184 362l114 249q2 5 -4 5h-120q-10 0 -10 10v64q0 10 10 10h201q10 0 10 -10v-80q0 -2 -3 -10l-108 -243q-4 -7 -10 -7h-71q-6 0 -8.5 4t-0.5 8z" />
    <glyph glyph-name="nine.numerator" 
d="M256 467q-49 0 -75 33t-26 86q0 52 33 86.5t85 34.5q47 0 79.5 -32.5t37.5 -79.5q8 -70 0 -140q-5 -47 -38 -79.5t-77 -32.5t-81 29.5t-37 69.5q0 10 10 10h50q13 0 18 -9q14 -23 35 -23q15 0 27.5 9t12.5 23q0 21 -13 21q-5 0 -18 -3t-23 -3zM273 626q-36 0 -36 -44
q0 -19 10 -29.5t26 -10.5q36 0 36 40q0 22 -10 33t-26 11z" />
    <glyph glyph-name="plus.numerator" 
d="M175 515h55q5 0 5 5v55q0 10 10 10h59q10 0 10 -10v-55q0 -5 5 -5h56q10 0 10 -10v-59q0 -10 -10 -10h-56q-5 0 -5 -5v-56q0 -10 -10 -10h-59q-10 0 -10 10v56q0 5 -5 5h-55q-10 0 -10 10v59q0 10 10 10z" />
    <glyph glyph-name="parenleft.numerator" 
d="M309 384h36q10 0 10 -10v-59q0 -10 -10 -10h-36q-45 0 -76 28.5t-37 76.5q-4 30 -4 97.5t4 97.5q6 43 36 74t77 31h38q10 0 10 -10v-59q0 -10 -10 -10h-38q-11 0 -14.5 -0.5t-9.5 -6.5t-9 -19q-7 -31 -7 -97.5t7 -97.5q3 -15 10 -20.5t23 -5.5z" />
    <glyph glyph-name="parenright.numerator" 
d="M204 384h37q16 0 22.5 5.5t9.5 20.5q7 31 7 97.5t-7 97.5q-3 13 -8.5 19t-9 6.5t-14.5 0.5h-39q-10 0 -10 10v59q0 10 10 10h39q47 0 76.5 -30.5t35.5 -74.5q4 -30 4 -97.5t-4 -97.5q-6 -48 -36.5 -76.5t-75.5 -28.5h-37q-10 0 -10 10v59q0 10 10 10z" />
    <glyph glyph-name="equal.numerator" 
d="M375 489h-200q-10 0 -10 10v57q0 10 10 10h200q10 0 10 -10v-57q0 -10 -10 -10zM375 384h-200q-10 0 -10 10v57q0 10 10 10h200q10 0 10 -10v-57q0 -10 -10 -10z" />
    <glyph glyph-name="minus.numerator" 
d="M167 519h216q10 0 10 -10v-57q0 -10 -10 -10h-216q-10 0 -10 10v57q0 10 10 10z" />
    <glyph glyph-name="eight.denominator" 
d="M275 72q17 0 27 11t10 27q0 15 -10 25t-27 10t-27 -10t-10 -25q0 -16 10 -27t27 -11zM275 214q13 0 23 10t10 23q0 12 -10 23t-23 11t-23 -11t-10 -23q0 -13 10 -23t23 -10zM274 359q48 0 81.5 -31t33.5 -76q0 -36 -26 -67q-6 -6 0 -10q30 -25 30 -70q0 -46 -34.5 -78
t-83.5 -32t-83.5 32t-34.5 78q0 47 29 70q6 4 -1 10q-26 26 -26 67q0 44 34 75.5t81 31.5z" />
    <glyph glyph-name="zero.denominator" 
d="M160 243q5 49 38 82.5t77 33.5q45 0 77 -35.5t37 -80.5q7 -66 0 -132q-6 -49 -38.5 -82.5t-75.5 -33.5q-45 0 -77.5 35.5t-37.5 80.5q-8 66 0 132zM275 274q-11 0 -18.5 -8.5t-8.5 -18.5q-6 -70 0 -140q1 -12 9 -19t18 -7q11 0 18 8t8 18q6 70 0 140q-1 12 -9 19.5
t-17 7.5z" />
    <glyph glyph-name="one.denominator" 
d="M243 90v142q0 6 -5 7.5t-8 -2.5l-53 -40q-7 -5 -14.5 -1t-7.5 13v55q0 16 6 23l48 46q17 17 36 17h74q10 0 10 -10v-250q0 -5 5 -5h52q10 0 10 -10v-65q0 -10 -10 -10h-216q-10 0 -10 10v65q0 10 10 10h68q5 0 5 5z" />
    <glyph glyph-name="two.denominator" 
d="M303 252q0 10 -7.5 17t-19.5 7q-30 0 -30 -30v-9q0 -10 -10 -10h-64q-4 0 -7 3.5t-3 6.5v8q0 47 34 79.5t81 32.5q48 0 81 -28.5t33 -74.5q0 -38 -36 -74l-84 -84q-2 -2 -2.5 -4.5t1.5 -4.5t7 -2h109q10 0 10 -10v-65q0 -10 -10 -10h-217q-10 0 -10 10v79q0 8 4 12
l107 106q33 31 33 45z" />
    <glyph glyph-name="three.denominator" 
d="M308 114q0 16 -11 24.5t-23 8.5h-6q-10 0 -10 10v42q0 10 10 10h6q12 0 22 9t10 24t-8.5 24t-22.5 9q-13 0 -21.5 -8.5t-8.5 -19.5v-8q0 -10 -10 -10h-64q-10 0 -10 10v8q0 46 34 79t80 33q47 0 80 -33t33 -79q0 -34 -24 -64q-4 -5 0 -7q27 -21 27 -66q0 -48 -34 -81.5
t-82 -33.5t-82 33.5t-34 81.5v6q0 10 10 10h63q10 0 10 -10v-6q0 -14 9 -22.5t24 -8.5q33 0 33 35z" />
    <glyph glyph-name="four.denominator" 
d="M367 139h14q10 0 10 -10v-58q0 -10 -10 -10h-14q-5 0 -5 -5v-46q0 -10 -10 -10h-61q-10 0 -10 10v46q0 5 -5 5h-108q-10 0 -10 10v74q0 6 8 20l105 178q3 7 11 7h70q10 0 10 -10v-196q0 -5 5 -5zM274 214l-35 -68q-3 -7 4 -7h33q5 0 5 5v68q0 3 -2.5 3.5t-4.5 -1.5z" />
    <glyph glyph-name="five.denominator" 
d="M366 267h-115q-5 0 -5 -5v-25q0 -8 8 -5q12 6 26 6q51 0 81 -32t31 -87q1 -48 -30.5 -86t-87.5 -38q-52 0 -84.5 25.5t-32.5 80.5q0 10 10 10h63q10 0 10 -10q0 -20 30 -20q37 0 37 38q0 42 -33 42q-14 0 -24 -6q-8 -5 -14 -5h-65q-10 0 -10 10v182q0 10 10 10h195
q10 0 10 -10v-65q0 -10 -10 -10z" />
    <glyph glyph-name="six.denominator" 
d="M293 235q49 0 75 -33t26 -86q0 -52 -33 -86.5t-85 -34.5q-47 0 -79.5 32.5t-37.5 79.5q-8 70 0 140q5 47 38 79.5t77 32.5t81 -29.5t37 -69.5q0 -10 -10 -10h-50q-14 0 -18 9q-14 23 -35 23q-15 0 -27.5 -9t-12.5 -23q0 -21 13 -21q4 0 17 3t24 3zM276 76q36 0 36 44
q0 19 -10 29.5t-26 10.5q-36 0 -36 -40q0 -22 10 -33t26 -11z" />
    <glyph glyph-name="seven.denominator" 
d="M184 12l114 249q2 5 -4 5h-120q-10 0 -10 10v64q0 10 10 10h201q10 0 10 -10v-80q0 -2 -3 -10l-108 -243q-4 -7 -10 -7h-71q-6 0 -8.5 4t-0.5 8z" />
    <glyph glyph-name="nine.denominator" 
d="M256 119q-49 0 -75 33t-26 86q0 52 33 86.5t85 34.5q47 0 79.5 -32.5t37.5 -79.5q8 -70 0 -140q-5 -47 -38 -79.5t-77 -32.5t-81 29.5t-37 69.5q0 10 10 10h50q13 0 18 -9q14 -23 35 -23q15 0 27.5 9t12.5 23q0 21 -13 21q-5 0 -18 -3t-23 -3zM273 278q-36 0 -36 -44
q0 -19 10 -29.5t26 -10.5q36 0 36 40q0 22 -10 33t-26 11z" />
    <glyph glyph-name="plus.denominator" 
d="M175 515h55q5 0 5 5v55q0 10 10 10h59q10 0 10 -10v-55q0 -5 5 -5h56q10 0 10 -10v-59q0 -10 -10 -10h-56q-5 0 -5 -5v-56q0 -10 -10 -10h-59q-10 0 -10 10v56q0 5 -5 5h-55q-10 0 -10 10v59q0 10 10 10z" />
    <glyph glyph-name="parenleft.denominator" 
d="M309 384h36q10 0 10 -10v-59q0 -10 -10 -10h-36q-45 0 -76 28.5t-37 76.5q-4 30 -4 97.5t4 97.5q6 43 36 74t77 31h38q10 0 10 -10v-59q0 -10 -10 -10h-38q-11 0 -14.5 -0.5t-9.5 -6.5t-9 -19q-7 -31 -7 -97.5t7 -97.5q3 -15 10 -20.5t23 -5.5z" />
    <glyph glyph-name="parenright.denominator" 
d="M204 384h37q16 0 22.5 5.5t9.5 20.5q7 31 7 97.5t-7 97.5q-3 13 -8.5 19t-9 6.5t-14.5 0.5h-39q-10 0 -10 10v59q0 10 10 10h39q47 0 76.5 -30.5t35.5 -74.5q4 -30 4 -97.5t-4 -97.5q-6 -48 -36.5 -76.5t-75.5 -28.5h-37q-10 0 -10 10v59q0 10 10 10z" />
    <glyph glyph-name="equal.denominator" 
d="M375 489h-200q-10 0 -10 10v57q0 10 10 10h200q10 0 10 -10v-57q0 -10 -10 -10zM375 384h-200q-10 0 -10 10v57q0 10 10 10h200q10 0 10 -10v-57q0 -10 -10 -10z" />
    <glyph glyph-name="minus.denominator" 
d="M167 519h216q10 0 10 -10v-57q0 -10 -10 -10h-216q-10 0 -10 10v57q0 10 10 10z" />
    <glyph glyph-name="csuperior" 
d="M277 416q12 0 18.5 6t12.5 22q2 8 10 8h58q7 0 7 -10q0 -46 -31 -72t-75 -26q-45 0 -73 25.5t-34 66.5q-6 39 0 78q6 41 34 66.5t73 25.5q44 0 75 -25.5t31 -72.5q0 -10 -8 -10h-58q-7 0 -9 8q-4 24 -32 24q-23 0 -26 -20q-6 -32 0 -74q4 -20 27 -20z" />
    <glyph glyph-name="psuperior" 
d="M274 529q-22 0 -23 -15q-4 -39 0 -78q1 -9 5.5 -12t17.5 -3q21 0 23 15q2 39 0 78q-2 15 -23 15zM284 606q39 0 65.5 -26t29.5 -66q4 -39 0 -78q-3 -40 -25.5 -66t-54.5 -26q-15 0 -33 8q-6 4 -12 1.5t-6 -10.5v-83q0 -10 -10 -10h-60q-10 0 -10 10v330q0 10 10 10h31
q3 0 7 -4q8 -8 13 -8q4 0 19 9t36 9z" />
    <glyph glyph-name="qsuperior" 
d="M275 529q-21 0 -23 -15q-2 -39 0 -78q2 -15 23 -15q13 0 17.5 3t5.5 12q4 39 0 78q-1 15 -23 15zM265 606q21 0 36 -9t19 -9q5 0 13 8q4 4 7 4h31q10 0 10 -10v-330q0 -10 -10 -10h-60q-10 0 -10 10v83q0 8 -6 10.5t-12 -1.5q-18 -8 -33 -8q-32 0 -54.5 26t-25.5 66
q-4 39 0 78q3 40 29.5 66t65.5 26z" />
    <glyph glyph-name="fsuperior" 
d="M219 528h-49q-10 0 -10 10v51q0 10 10 10h49q5 0 5 5v12q0 38 29 64t68 26h57q10 0 10 -10v-56q0 -10 -10 -10h-57q-17 0 -17 -11v-15q0 -5 5 -5h71q10 0 10 -10v-51q0 -10 -10 -10h-71q-5 0 -5 -5v-163q0 -10 -10 -10h-60q-10 0 -10 10v163q0 5 -5 5z" />
    <glyph glyph-name="usuperior" 
d="M317 362q-6 0 -24 -9t-32 -9q-39 0 -65 26.5t-26 65.5v154q0 10 10 10h60q10 0 10 -10v-155q0 -7 6 -14t19 -7q11 0 17.5 7t6.5 12v157q0 10 10 10h60q10 0 10 -10v-230q0 -10 -10 -10h-27q-7 0 -15 8q-4 4 -10 4z" />
    <glyph glyph-name="ksuperior" 
d="M309 358l-72 89q-1 2 -3 1.5t-2 -2.5v-86q0 -10 -10 -10h-60q-10 0 -10 10v336q0 10 10 10h60q10 0 10 -10v-175q1 -5 6 -1l66 73q5 7 12 7h66q8 0 10 -6t-2 -10l-80 -90q-7 -7 1 -17l84 -110q4 -5 1.5 -11t-9.5 -6h-67q-6 0 -11 8z" />
    <glyph glyph-name="vsuperior" 
d="M277 448l44 144q3 8 9 8h65q6 0 8.5 -4t0.5 -8l-83 -231q-3 -7 -9 -7h-72q-7 0 -10 8l-84 231q-2 4 1 7.5t9 3.5h64q6 0 9 -8l43 -144q2 -3 5 0z" />
    <glyph glyph-name="zsuperior" 
d="M178 432l105 90q5 5 -3 5h-99q-10 0 -10 10v53q0 10 10 10h187q10 0 10 -10v-55q0 -13 -10 -21l-97 -86q-2 -2 -1 -3.5t3 -1.5h95q10 0 10 -10v-53q0 -10 -10 -10h-187q-10 0 -10 10v57q0 9 7 15z" />
    <glyph glyph-name="gsuperior" 
d="M340 600h31q10 0 10 -10v-255q0 -39 -29.5 -66.5t-74.5 -27.5t-76.5 26t-27.5 62q0 3 4 6t7 3h48q9 0 10.5 -2.5t1.5 -10.5t8 -13.5t20 -5.5q29 0 29 29v24q0 10 -14 0q-11 -9 -27 -9q-39 0 -62.5 23t-26.5 63q-4 39 0 78q3 40 29.5 66t65.5 26q21 0 35.5 -8.5t19.5 -8.5
t12 7q4 4 7 4zM275 529q-21 0 -23 -15q-2 -39 0 -78q2 -15 23 -15q22 0 23 15q4 39 0 78q-1 9 -5.5 12t-17.5 3z" />
  </font>
</defs>
</svg>
